<?xml version="1.0" encoding="UTF-8" standalone="no"?>
<svg
   version="1.1"
   id="svg176"
   width="70"
   height="69.99"
   viewBox="0 0 70 69.99"
   xmlns="http://www.w3.org/2000/svg">
  <style>
    :root {
      --icon-color: #000000;
    }
    @media (prefers-color-scheme: dark) {
      :root {
        --icon-color: #ebebeb;
      }
    }
    .icon-path {
      fill: var(--icon-color);
      fill-opacity: 1;
    }
  </style>
  <g transform="translate(7594,6811)">
    <g transform="matrix(0.1723,0,0,0.1723,-6371,-5609)" style="stroke-width:5.8028">
      <g transform="translate(0.2947,1.374)" style="stroke-width:5.80211">
        <g transform="matrix(0.9692,0,0,1.016,-218.3,114.6)" style="stroke-width:5.84573">
          <g style="stroke-width:5.84573">
            <g style="stroke-width:5.84573">
              <g style="stroke-width:5.84573">
                <g style="stroke-width:5.84573">
                  <g style="stroke-width:5.84573">
                    <g style="stroke-width:5.84573">
                      <path
                         class="icon-path"
                         style="stroke-width:7.43214"
                         d="m -6898,-6592 c -4,4 -5,5 -11,5 -5,0 -9,-1 -12,-6 -3,-2 -5,-7 -6,-10 -1,-3 -1,-12 -1,-15 0,-5 1,-18 0,-22 -1,-4 -1,-7 -3,-8 -1,0 -7,3 -7,3 l -13,4 -24,10 -18,10 -3,1 -14,9 -27,13 -11,6 c 0,0 -23,12 -31,3 -8,-8 -8,-16 -8,-16 l 1,-24 v -65 l -2,-27 -2,-31 -2,-26 -3,-29 -3,-58 -1,-46 v -19 c 0,0 4,-17 8,-21 3,-3 11,-5 15,-4 5,1 15,16 15,16 l 3,10 -1,11 v 41 20 18 l 2,21 1,16 c 0,6 0,17 1,24 l 2,45 4,73 v 12 c 0,0 0,8 2,9 1,1 3,2 6,-2 1,-2 5,-4 8,-5 4,-1 8,-3 10,-5 3,-2 28,-16 29,-16 1,0 4,-1 7,-3 4,-2 10,-4 13,-5 3,-2 9,-4 13,-6 7,-4 11,-5 24,-9 l 5,-1 -1,-6 -2,-17 c 0,0 -1,-31 -3,-52 -1,-10 -2,-21 -2,-25 -1,-3 -2,-11 -2,-17 -1,-6 -2,-23 -2,-23 l -5,-47 c 0,0 -3,-22 -3,-34 -1,-12 -3,-27 -3,-31 -1,-8 -2,-21 -1,-25 1,-2 -1,-5 1,-11 3,-6 14,-6 17,-6 4,0 3,-1 9,0 7,0 11,4 11,8 1,5 1,12 2,16 0,3 0,13 0,15 1,1 1,22 1,26 0,9 2,22 2,38 1,24 1,30 2,37 1,14 2,37 2,37 l 6,69 c 0,0 2,29 3,39 2,10 2,19 3,41 0,22 3,40 3,41 0,0 1,5 1,11 0,10 -5,15 -5,15 z" />
                    </g>
                  </g>
                </g>
              </g>
            </g>
          </g>
        </g>
        <g transform="matrix(0.9692,0,0,1.016,-983.5,114.6)" style="stroke-width:5.84573">
          <g style="stroke-width:5.84573">
            <g style="stroke-width:5.84573">
              <path
                 class="icon-path"
                 style="stroke-width:8.01542"
                 d="m -5899,-6594 c -12,11 -15,11 -27,0 -8,-7 -25,-29 -37,-41 -7,-9 -17,-20 -23,-27 -11,-14 -8,-11 -16,-19 -4,-4 -7,-11 -11,-15 -3,-5 -9,-11 -11,-12 -1,-2 -6,-8 -12,-15 -6,-8 -7,-12 -8,-13 -2,0 -9,-10 -9,-10 0,0 -5,-6 -9,-11 -5,-4 -12,-15 -12,-18 0,-2 1,-5 2,-7 0,-1 6,-14 6,-14 l 14,-20 10,-14 9,-12 10,-15 22,-30 10,-13 11,-16 17,-23 c 0,0 15,-21 23,-32 3,-3 11,-14 14,-14 4,-1 13,5 16,8 5,5 12,5 4,21 -3,7 -16,23 -16,23 l -14,22 -11,16 -12,16 -30,38 -24,33 -7,11 c 0,0 -6,10 -6,11 0,2 1,4 3,6 9,12 22,31 22,31 l 14,18 6,8 5,6 8,10 3,3 2,4 3,5 4,6 9,8 7,9 6,8 c 5,6 9,11 13,16 0,0 9,12 13,16 5,5 10,12 15,19 5,8 3,10 -6,19 z" />
            </g>
          </g>
        </g>
      </g>
    </g>
  </g>
</svg>