<?xml version="1.0" encoding="UTF-8" standalone="no"?>
<!-- Created with Inkscape (http://www.inkscape.org/) -->

<svg
   width="32.4mm"
   height="23.6mm"
   viewBox="0 0 32.4 23.6"
   version="1.1"
   id="svg5"
   inkscape:version="1.2.2 (b0a8486541, 2022-12-01)"
   sodipodi:docname="main.svg"
   xmlns:inkscape="http://www.inkscape.org/namespaces/inkscape"
   xmlns:sodipodi="http://sodipodi.sourceforge.net/DTD/sodipodi-0.dtd"
   xmlns="http://www.w3.org/2000/svg"
   xmlns:svg="http://www.w3.org/2000/svg">
  <sodipodi:namedview
     id="namedview7"
     pagecolor="#ffffff"
     bordercolor="#000000"
     borderopacity="0.25"
     inkscape:showpageshadow="2"
     inkscape:pageopacity="0.0"
     inkscape:pagecheckerboard="0"
     inkscape:deskcolor="#d1d1d1"
     inkscape:document-units="mm"
     showgrid="false"
     inkscape:zoom="0.7198"
     inkscape:cx="2390"
     inkscape:cy="-383.4"
     inkscape:window-width="1920"
     inkscape:window-height="1043"
     inkscape:window-x="0"
     inkscape:window-y="0"
     inkscape:window-maximized="1"
     inkscape:current-layer="layer1">
    <inkscape:grid
       type="xygrid"
       id="grid182" />
  </sodipodi:namedview>
  <defs
     id="defs2">
    <rect
       x="-143.1"
       y="-5.092"
       width="424"
       height="318.6"
       id="rect1150" />
  </defs>
  <g
     inkscape:label="Layer 1"
     inkscape:groupmode="layer"
     id="layer1"
     transform="translate(-504.3,-45.3)">
    <g
       id="g19477">
      <path
         d="m 514.2,68.9 c 2.9,0 5.4,-2.4 5.4,-6.5 0,-4.2 -2.5,-6.6 -5.4,-6.6 -1.9,0 -3.2,0.9 -4,2.2 v -7.4 h -4.3 l -0.1,7.3 -1.5,10.7 h 5.4 l 0.5,-1.9 c 0.8,1.4 2.1,2.2 4,2.2 z m -0.6,-1.8 c -2.1,0 -3.7,-1.7 -3.7,-4.7 0,-3 1.6,-4.8 3.7,-4.8 2.1,0 3.7,1.8 3.7,4.8 0,3 -1.6,4.7 -3.7,4.7 z"
         id="path1919-9-4-9-4"
         style="font-size:96px;font-family:'Atkinson Hyperlegible Next';-inkscape-font-specification:'Atkinson Hyperlegible Next, Normal';white-space:pre;stroke-width:3.99946;stroke-linecap:round;stroke-linejoin:round"
         sodipodi:nodetypes="ssscccccccssssss" />
      <path
         style="font-size:37.3333px;font-family:'Atkinson Hyperlegible Next';-inkscape-font-specification:'Atkinson Hyperlegible Next, Normal';white-space:pre;fill:none;fill-opacity:1;stroke:#000000;stroke-width:1;stroke-linecap:round;stroke-linejoin:round;stroke-dasharray:none;stroke-opacity:1"
         d="m 505.9,50.6 c -1.3,-0.9 -1.1,-3.7 -0.1,-4.7"
         id="path1976-1-0-4-5-9-1"
         sodipodi:nodetypes="cc" />
      <path
         style="font-size:37.3333px;font-family:'Atkinson Hyperlegible Next';-inkscape-font-specification:'Atkinson Hyperlegible Next, Normal';white-space:pre;shape-inside:url(#rect1150);fill:none;fill-opacity:1;stroke:#000000;stroke-width:0.999902;stroke-linecap:round;stroke-linejoin:round;stroke-dasharray:none;stroke-opacity:1"
         d="m 515.4,48.1 c -0.7,2.6 -3.1,3 -5.5,1.7 v 0.6"
         id="path1976-9-5-96-8-4-2-2"
         sodipodi:nodetypes="ccc" />
      <path
         style="font-size:37.3333px;font-family:'Atkinson Hyperlegible Next';-inkscape-font-specification:'Atkinson Hyperlegible Next, Normal';white-space:pre;shape-inside:url(#rect1150);fill:none;fill-opacity:1;stroke:#000000;stroke-width:0.999802;stroke-linecap:round;stroke-linejoin:round;stroke-dasharray:none;stroke-opacity:1"
         d="m 522.3,45.8 c 0.4,2.7 -4.5,5.2 -6.9,3.3"
         id="path1976-9-2-9-3-1-0-2-8"
         sodipodi:nodetypes="cc" />
      <path
         d="m 531.3,68.9 c 2.9,0 5.4,-2.4 5.4,-6.5 0,-4.2 -2.5,-6.6 -5.4,-6.6 -1.9,0 -3.2,0.9 -4,2.2 v -7.4 h -0.9 l -0.4,3.7 -1.3,8.2 0.6,6.1 h 1.5 l 0.5,-1.9 c 0.8,1.4 2.1,2.2 4,2.2 z m -0.6,-1.8 c -2.1,0 -3.7,-1.7 -3.7,-4.7 0,-3 1.6,-4.8 3.7,-4.8 2.1,0 3.7,1.8 3.7,4.8 0,3 -1.6,4.7 -3.7,4.7 z"
         id="path1919-9-4-3-9-2"
         style="font-size:96px;font-family:'Atkinson Hyperlegible Next';-inkscape-font-specification:'Atkinson Hyperlegible Next, Normal';white-space:pre;stroke-width:3.999;stroke-linecap:round;stroke-linejoin:round;stroke-dasharray:none"
         sodipodi:nodetypes="sssccccccccssssss" />
      <path
         style="fill:#000000;fill-opacity:1;stroke:none;stroke-width:3.00019;stroke-linecap:square;stroke-linejoin:miter;stroke-dasharray:none;stroke-opacity:1"
         d="m 523,50.6 -0.1,7.3 -1.5,10.7 h 3 l -0.6,-6.1 0.2,-8.2 -0.6,-3.7 z"
         id="path12755-0-4-1"
         sodipodi:nodetypes="cccccccc" />
    </g>
  </g>
</svg>
