<?xml version="1.0" encoding="UTF-8" standalone="no"?>
<!-- Created with Inkscape (http://www.inkscape.org/) -->

<svg
   width="105.9mm"
   height="23.59mm"
   viewBox="0 0 105.9 23.59"
   version="1.1"
   id="svg5"
   inkscape:version="1.2.2 (b0a8486541, 2022-12-01)"
   sodipodi:docname="main.svg"
   xmlns:inkscape="http://www.inkscape.org/namespaces/inkscape"
   xmlns:sodipodi="http://sodipodi.sourceforge.net/DTD/sodipodi-0.dtd"
   xmlns="http://www.w3.org/2000/svg"
   xmlns:svg="http://www.w3.org/2000/svg">
  <sodipodi:namedview
     id="namedview7"
     pagecolor="#ffffff"
     bordercolor="#000000"
     borderopacity="0.25"
     inkscape:showpageshadow="2"
     inkscape:pageopacity="0.0"
     inkscape:pagecheckerboard="0"
     inkscape:deskcolor="#d1d1d1"
     inkscape:document-units="mm"
     showgrid="false"
     inkscape:zoom="0.7198"
     inkscape:cx="2390"
     inkscape:cy="-383.4"
     inkscape:window-width="1920"
     inkscape:window-height="1043"
     inkscape:window-x="0"
     inkscape:window-y="0"
     inkscape:window-maximized="1"
     inkscape:current-layer="layer1">
    <inkscape:grid
       type="xygrid"
       id="grid182" />
  </sodipodi:namedview>
  <defs
     id="defs2">
    <rect
       x="-143.1"
       y="-5.092"
       width="424"
       height="318.6"
       id="rect1150" />
  </defs>
  <g
     inkscape:label="Layer 1"
     inkscape:groupmode="layer"
     id="layer1"
     transform="translate(-474.2,1.09)">
    <g
       id="g18498">
      <path
         d="m 495.4,22.5 c 2.1,0 3.2,-0.9 3.9,-2.1 l 0.6,1.8 h 1.6 V 9.6 h -2.2 v 6.9 c 0,2.7 -1.2,4.1 -3.2,4.1 -2.3,0 -2.6,-1.6 -2.6,-3.6 V 9.6 h -2.1 v 8 c 0,2.9 1.1,4.9 4,4.9 z"
         id="path1921-6-8-7"
         style="font-size:96px;font-family:'Atkinson Hyperlegible Next';-inkscape-font-specification:'Atkinson Hyperlegible Next, Normal';white-space:pre;stroke-width:3.99946;stroke-linecap:round;stroke-linejoin:round" />
      <path
         d="m 504.1,22.2 h 2.2 v -5.4 c 0,-3.4 1.1,-5.2 4.6,-5.2 V 9.4 c -2.1,0 -3.6,1 -4.5,2.5 l -0.7,-2.3 h -1.6 z"
         id="path1923-4-8-7"
         style="font-size:96px;font-family:'Atkinson Hyperlegible Next';-inkscape-font-specification:'Atkinson Hyperlegible Next, Normal';white-space:pre;stroke-width:3.99946;stroke-linecap:round;stroke-linejoin:round" />
      <path
         d="m 513.6,22.2 h 2.1 v -6.8 c 0,-2.7 1.2,-4.2 3.3,-4.2 2.4,0 2.8,1.7 2.8,3.7 v 7.3 h 2.1 v -8 c 0,-2.8 -1.1,-4.8 -4.1,-4.8 -2.2,0 -3.4,1 -4.1,2.1 l -0.6,-1.9 h -1.5 z"
         id="path1925-3-8-6"
         style="font-size:96px;font-family:'Atkinson Hyperlegible Next';-inkscape-font-specification:'Atkinson Hyperlegible Next, Normal';white-space:pre;stroke-width:3.99946;stroke-linecap:round;stroke-linejoin:round" />
      <path
         d="m 484.1,22.5 c 2.9,0 5.4,-2.4 5.4,-6.5 0,-4.2 -2.5,-6.6 -5.4,-6.6 -1.9,0 -3.2,0.9 -4,2.2 V 4.2 h -4.3 l -0.1,7.3 -1.5,10.7 h 5.4 l 0.5,-1.9 c 0.8,1.4 2.1,2.2 4,2.2 z m -0.6,-1.8 c -2.1,0 -3.7,-1.7 -3.7,-4.7 0,-3 1.6,-4.8 3.7,-4.8 2.1,0 3.7,1.8 3.7,4.8 0,3 -1.6,4.7 -3.7,4.7 z"
         id="path1919-9-4-9"
         style="font-size:96px;font-family:'Atkinson Hyperlegible Next';-inkscape-font-specification:'Atkinson Hyperlegible Next, Normal';white-space:pre;stroke-width:3.99946;stroke-linecap:round;stroke-linejoin:round"
         sodipodi:nodetypes="ssscccccccssssss" />
      <path
         style="font-size:37.3333px;font-family:'Atkinson Hyperlegible Next';-inkscape-font-specification:'Atkinson Hyperlegible Next, Normal';white-space:pre;fill:none;fill-opacity:1;stroke:#000000;stroke-width:1;stroke-linecap:round;stroke-linejoin:round;stroke-dasharray:none;stroke-opacity:1"
         d="m 475.8,4.24 c -1.3,-0.91 -1.1,-3.69 -0.1,-4.76"
         id="path1976-1-0-4-5-9"
         sodipodi:nodetypes="cc" />
      <path
         style="font-size:37.3333px;font-family:'Atkinson Hyperlegible Next';-inkscape-font-specification:'Atkinson Hyperlegible Next, Normal';white-space:pre;shape-inside:url(#rect1150);fill:none;fill-opacity:1;stroke:#000000;stroke-width:0.999902;stroke-linecap:round;stroke-linejoin:round;stroke-dasharray:none;stroke-opacity:1"
         d="m 485.3,1.73 c -0.7,2.53 -3.1,2.98 -5.5,1.66 v 0.57"
         id="path1976-9-5-96-8-4-2"
         sodipodi:nodetypes="ccc" />
      <path
         style="font-size:37.3333px;font-family:'Atkinson Hyperlegible Next';-inkscape-font-specification:'Atkinson Hyperlegible Next, Normal';white-space:pre;shape-inside:url(#rect1150);fill:none;fill-opacity:1;stroke:#000000;stroke-width:0.999802;stroke-linecap:round;stroke-linejoin:round;stroke-dasharray:none;stroke-opacity:1"
         d="m 492.2,-0.59 c 0.4,2.7 -4.5,5.2 -6.9,3.25"
         id="path1976-9-2-9-3-1-0-2"
         sodipodi:nodetypes="cc" />
      <path
         d="m 551.6,22.5 c 2.1,0 3.2,-0.9 3.9,-2.1 l 0.6,1.8 h 1.6 V 9.6 h -2.2 v 6.9 c 0,2.7 -1.2,4.1 -3.2,4.1 -2.3,0 -2.6,-1.6 -2.6,-3.6 V 9.6 h -2.1 v 8 c 0,2.9 1.1,4.9 4,4.9 z"
         id="path1921-6-8"
         style="font-size:96px;font-family:'Atkinson Hyperlegible Next';-inkscape-font-specification:'Atkinson Hyperlegible Next, Normal';white-space:pre;stroke-width:3.99946;stroke-linecap:round;stroke-linejoin:round" />
      <path
         d="m 560.3,22.2 h 2.2 v -5.4 c 0,-3.4 1.1,-5.2 4.6,-5.2 V 9.4 c -2.1,0 -3.6,1 -4.5,2.5 l -0.7,-2.3 h -1.6 z"
         id="path1923-4-8"
         style="font-size:96px;font-family:'Atkinson Hyperlegible Next';-inkscape-font-specification:'Atkinson Hyperlegible Next, Normal';white-space:pre;stroke-width:3.99946;stroke-linecap:round;stroke-linejoin:round" />
      <path
         d="m 569.8,22.2 h 2.1 v -6.8 c 0,-2.7 1.2,-4.2 3.3,-4.2 2.4,0 2.8,1.7 2.8,3.7 v 7.3 h 2.1 v -8 c 0,-2.8 -1.1,-4.8 -4.1,-4.8 -2.2,0 -3.4,1 -4.1,2.1 l -0.6,-1.9 h -1.5 z"
         id="path1925-3-8"
         style="font-size:96px;font-family:'Atkinson Hyperlegible Next';-inkscape-font-specification:'Atkinson Hyperlegible Next, Normal';white-space:pre;stroke-width:3.99946;stroke-linecap:round;stroke-linejoin:round" />
      <path
         d="m 540.3,22.5 c 2.9,0 5.4,-2.4 5.4,-6.5 0,-4.2 -2.5,-6.6 -5.4,-6.6 -1.9,0 -3.2,0.9 -4,2.2 V 4.2 h -0.9 l -0.4,3.7 -1.3,8.2 0.6,6.1 h 1.5 l 0.5,-1.9 c 0.8,1.4 2.1,2.2 4,2.2 z m -0.6,-1.8 c -2.1,0 -3.7,-1.7 -3.7,-4.7 0,-3 1.6,-4.8 3.7,-4.8 2.1,0 3.7,1.8 3.7,4.8 0,3 -1.6,4.7 -3.7,4.7 z"
         id="path1919-9-4-3-9"
         style="font-size:96px;font-family:'Atkinson Hyperlegible Next';-inkscape-font-specification:'Atkinson Hyperlegible Next, Normal';white-space:pre;stroke-width:3.999;stroke-linecap:round;stroke-linejoin:round;stroke-dasharray:none"
         sodipodi:nodetypes="sssccccccccssssss" />
      <path
         style="fill:#000000;fill-opacity:1;stroke:none;stroke-width:3.00019;stroke-linecap:square;stroke-linejoin:miter;stroke-dasharray:none;stroke-opacity:1"
         d="m 532,4.2 -0.1,7.3 -1.5,10.7 h 3 l -0.6,-6.1 0.2,-8.2 -0.6,-3.7 z"
         id="path12755-0-4"
         sodipodi:nodetypes="cccccccc" />
    </g>
  </g>
</svg>
