<?xml version="1.0" encoding="UTF-8" standalone="no"?>
<svg
   width="98.603pt"
   height="65.755pt"
   viewBox="0 0 98.603 65.755"
   version="1.1"
   id="svg480"
   xml:space="preserve"
   xmlns="http://www.w3.org/2000/svg"
   xmlns:svg="http://www.w3.org/2000/svg"
   xmlns:rdf="http://www.w3.org/1999/02/22-rdf-syntax-ns#"
   xmlns:cc="http://creativecommons.org/ns#"
   xmlns:dc="http://purl.org/dc/elements/1.1/"><metadata
     id="metadata1"><rdf:RDF><cc:Work><dc:type
           rdf:resource="http://purl.org/dc/dcmitype/StillImage" /><dc:date>2025-09-25T09:01:30.953355</dc:date><dc:format>image/svg+xml</dc:format><dc:creator><cc:Agent><dc:title>Matplotlib v3.10.6, https://matplotlib.org/</dc:title></cc:Agent></dc:creator></cc:Work></rdf:RDF></metadata><defs
     id="defs1"><style
       type="text/css"
       id="style1">* {   }
</style></defs><defs
     id="defs480" /><g
     id="g3"
     transform="translate(4.611,-48.605)"><path
       id="rect654-2"
       style="fill:none;stroke:#000000;stroke-width:2.25;stroke-miterlimit:0;paint-order:stroke markers fill"
       d="M -4.611,48.605 H 93.992 V 114.36 H -4.611 Z" /><path
       style="fill:none;stroke:#000000;stroke-width:1.875;stroke-miterlimit:0;stroke-dasharray:none;stroke-opacity:1;paint-order:stroke markers fill"
       d="m 24.119,63.245 h -11.84 v 11.27"
       id="path481-5" /><path
       style="fill:none;stroke:#000000;stroke-width:1.87496;stroke-miterlimit:0;stroke-dasharray:none;stroke-opacity:1;paint-order:stroke markers fill"
       d="M 76.889,75.085 V 63.245 H 65.619"
       id="path481-5-4" /><path
       style="fill:none;stroke:#000000;stroke-width:1.87496;stroke-miterlimit:0;stroke-dasharray:none;stroke-opacity:1;paint-order:stroke markers fill"
       d="m 12.279,91.275 v 11.835 h 11.27"
       id="path481-5-6" /><path
       style="fill:none;stroke:#000000;stroke-width:1.87496;stroke-miterlimit:0;stroke-dasharray:none;stroke-opacity:1;paint-order:stroke markers fill"
       d="m 65.049,103.11 h 11.84 V 91.855"
       id="path481-5-5" /><path
       id="rect486-6"
       style="stroke-width:0.273712;stroke-miterlimit:0;paint-order:stroke markers fill"
       d="m 7.468,53.883 h 24.09 v 4.21 H 7.468 Z" /><path
       d="m 6.1393,-2927.9 q 0.2669,0 0.3776,0.1 0.1107,0.1 0.1107,0.3 v 1.5 q 0,0.2 -0.1107,0.3 -0.1107,0.1 -0.3776,0.1 -0.2474,0 -0.3385,-0.2 -0.3125,-0.5 -0.8789,-0.9 -0.5664,-0.3 -1.2891,-0.3 -0.7161,0 -1.1133,0.4 -0.3906,0.3 -0.3906,0.9 0,0.2 0.1367,0.4 0.1367,0.2 0.3906,0.3 0.2279,0.1 0.5339,0.2 0.306,0.1 0.8203,0.2 0.5599,0.1 0.8854,0.2 0.3321,0 0.6511,0.2 0.651,0.2 1.0156,0.7 0.3711,0.5 0.3711,1.3 0,0.7 -0.319,1.2 -0.319,0.5 -0.944,0.8 -0.6185,0.3 -1.4909,0.3 -0.6511,0 -1.211,-0.2 -0.5533,-0.3 -0.9635,-0.7 v 0.5 q 0,0.2 -0.1107,0.3 -0.1107,0.1 -0.3776,0.1 -0.2669,0 -0.3776,-0.1 -0.1107,-0.1 -0.1107,-0.3 v -2 q 0,-0.2 0.1107,-0.3 0.1107,-0.1 0.3776,-0.1 0.28,0 0.3776,0.3 0.267,0.7 0.8464,1.1 0.5859,0.4 1.4388,0.4 0.8333,0 1.276,-0.3 0.4492,-0.4 0.4492,-1 0,-0.4 -0.2083,-0.7 -0.2018,-0.2 -0.5924,-0.4 -0.2474,-0.1 -0.5404,-0.2 -0.293,0 -0.8008,-0.1 -0.5338,-0.1 -0.8984,-0.2 -0.3581,-0.1 -0.6641,-0.3 -0.5208,-0.2 -0.8138,-0.6 -0.2864,-0.4 -0.2864,-1 0,-0.7 0.319,-1.2 0.3255,-0.5 0.8984,-0.8 0.5794,-0.2 1.3151,-0.2 0.5729,0 1.1068,0.2 0.5338,0.2 0.9114,0.6 v -0.4 q 0,-0.2 0.1107,-0.3 0.1107,-0.1 0.3776,-0.1 z m 8.3597,0 q 0.267,0 0.377,0.1 0.111,0.1 0.111,0.3 v 2.1 q 0,0.3 -0.111,0.4 -0.11,0.1 -0.377,0.1 -0.267,0 -0.378,-0.1 -0.111,-0.1 -0.111,-0.4 0,-0.4 -0.201,-0.8 -0.196,-0.3 -0.606,-0.5 -0.41,-0.3 -1.016,-0.3 -0.703,0 -1.25,0.4 -0.54,0.4 -0.846,1.1 -0.2994,0.7 -0.2994,1.6 0,0.9 0.2864,1.6 0.287,0.7 0.814,1.1 0.527,0.3 1.23,0.3 0.645,0 1.231,-0.2 0.586,-0.2 1.055,-0.5 0.11,-0.1 0.24,-0.1 0.196,0 0.345,0.2 0.118,0.2 0.118,0.4 0,0.2 -0.202,0.3 -0.606,0.5 -1.322,0.7 -0.709,0.2 -1.465,0.2 -1.015,0 -1.777,-0.5 -0.7552,-0.5 -1.1718,-1.4 -0.4102,-0.9 -0.4102,-2.1 0,-1.2 0.4232,-2.1 0.4232,-0.9 1.1848,-1.4 0.768,-0.5 1.751,-0.5 0.612,0 1.088,0.2 0.475,0.2 0.8,0.6 v -0.4 q 0,-0.2 0.111,-0.3 0.111,-0.1 0.378,-0.1 z m 5.657,0.1 q 0.261,0 0.417,0.1 0.163,0.1 0.241,0.3 l 2.298,6.5 h 0.397 q 0.221,0 0.313,0.1 0.1,0.1 0.1,0.3 0,0.2 -0.1,0.3 -0.09,0.1 -0.313,0.1 h -2.305 q -0.221,0 -0.319,-0.1 -0.09,-0.1 -0.09,-0.3 0,-0.2 0.09,-0.3 0.1,-0.1 0.319,-0.1 h 0.879 l -0.534,-1.6 h -3.157 l -0.54,1.6 h 0.787 q 0.222,0 0.313,0.1 0.1,0.1 0.1,0.3 0,0.2 -0.1,0.3 -0.09,0.1 -0.313,0.1 h -2.174 q -0.222,0 -0.319,-0.1 -0.09,-0.1 -0.09,-0.3 0,-0.2 0.09,-0.3 0.1,-0.1 0.319,-0.1 h 0.364 l 2.155,-6 h -1.217 q -0.221,0 -0.319,-0.1 -0.09,-0.1 -0.09,-0.3 0,-0.3 0.09,-0.4 0.1,-0.1 0.319,-0.1 z m -0.241,0.9 -1.217,3.5 h 2.552 l -1.211,-3.5 z m 8.607,-0.9 q 0.221,0 0.313,0.1 0.1,0.1 0.1,0.4 0,0.2 -0.1,0.3 -0.09,0.1 -0.313,0.1 h -1.575 v 6 h 3.222 v -2.2 q 0,-0.2 0.111,-0.3 0.111,-0.1 0.377,-0.1 0.267,0 0.378,0.1 0.111,0.1 0.111,0.3 v 2.6 q 0,0.2 -0.1,0.3 -0.09,0.1 -0.312,0.1 h -5.821 q -0.221,0 -0.319,-0.1 -0.09,-0.1 -0.09,-0.3 0,-0.2 0.09,-0.3 0.1,-0.1 0.319,-0.1 h 1.055 v -6 h -1.055 q -0.221,0 -0.319,-0.1 -0.09,-0.1 -0.09,-0.3 0,-0.3 0.09,-0.4 0.1,-0.1 0.319,-0.1 z m 10.13,4.9 q 0.267,0 0.378,0.1 0.111,0.1 0.111,0.4 v 1.9 q 0,0.2 -0.1,0.3 -0.09,0.1 -0.313,0.1 h -5.82 q -0.221,0 -0.319,-0.1 -0.09,-0.1 -0.09,-0.3 0,-0.2 0.09,-0.3 0.1,-0.1 0.319,-0.1 h 0.664 v -6 H 32.91 q -0.221,0 -0.319,-0.1 -0.09,-0.1 -0.09,-0.3 0,-0.3 0.09,-0.4 0.1,-0.1 0.319,-0.1 h 5.69 q 0.222,0 0.313,0.1 0.1,0.1 0.1,0.4 v 1.6 q 0,0.2 -0.11,0.3 -0.111,0.1 -0.378,0.1 -0.267,0 -0.378,-0.1 -0.11,-0.1 -0.11,-0.3 v -1.2 h -3.483 v 2.4 h 1.679 v -0.6 q 0,-0.2 0.1,-0.3 0.104,-0.1 0.365,-0.1 0.26,0 0.358,0.1 0.104,0.1 0.104,0.3 v 2.1 q 0,0.2 -0.104,0.3 -0.1,0.1 -0.358,0.1 -0.261,0 -0.365,-0.1 -0.1,-0.1 -0.1,-0.3 v -0.6 h -1.679 v 2.7 h 3.613 v -1.5 q 0,-0.3 0.111,-0.4 0.11,-0.1 0.377,-0.1 z m 15.658,2 q 0.221,0 0.312,0.1 0.1,0.1 0.1,0.3 0,0.2 -0.1,0.3 -0.09,0.1 -0.312,0.1 h -4.388 q -0.222,0 -0.319,-0.1 -0.09,-0.1 -0.09,-0.3 0,-0.2 0.09,-0.3 0.1,-0.1 0.319,-0.1 h 1.751 v -5.6 l -1.621,1 q -0.111,0 -0.202,0 -0.208,0 -0.358,-0.2 -0.09,-0.2 -0.09,-0.3 0,-0.2 0.202,-0.4 l 2.454,-1.5 q 0.13,0 0.261,0 0.143,0 0.234,0 0.1,0.1 0.1,0.3 v 6.7 z m 5.651,-3.2 q -0.469,0 -0.677,-0.1 -0.202,-0.1 -0.202,-0.3 v -1.2 q 0,-0.2 0.202,-0.3 0.208,-0.1 0.677,-0.1 0.469,0 0.67,0.1 0.209,0.1 0.209,0.3 v 1.2 q 0,0.2 -0.209,0.3 -0.201,0.1 -0.67,0.1 z m 0,4.1 q -0.469,0 -0.677,-0.1 -0.202,-0.1 -0.202,-0.3 v -1.2 q 0,-0.2 0.202,-0.3 0.208,-0.1 0.677,-0.1 0.469,0 0.67,0.1 0.209,0.1 0.209,0.3 v 1.2 q 0,0.2 -0.209,0.3 -0.201,0.1 -0.67,0.1 z m 10.338,-0.9 q 0.222,0 0.313,0.1 0.1,0.1 0.1,0.3 0,0.2 -0.1,0.3 -0.09,0.1 -0.313,0.1 h -4.388 q -0.221,0 -0.319,-0.1 -0.09,-0.1 -0.09,-0.3 0,-0.2 0.09,-0.3 0.1,-0.1 0.319,-0.1 h 1.752 v -5.6 l -1.622,1 q -0.11,0 -0.201,0 -0.209,0 -0.358,-0.2 -0.09,-0.2 -0.09,-0.3 0,-0.2 0.202,-0.4 l 2.455,-1.5 q 0.13,0 0.26,0 0.143,0 0.234,0 0.1,0.1 0.1,0.3 v 6.7 z m 7.624,-7 q 0.176,0 0.273,0.1 0.105,0.1 0.105,0.4 0,0.2 -0.07,0.3 -0.06,0.1 -0.175,0.1 -1.732,0.1 -2.663,0.9 -0.931,0.8 -1.113,2.2 0.338,-0.4 0.833,-0.7 0.495,-0.2 1.055,-0.2 0.716,0 1.289,0.3 0.579,0.3 0.905,0.9 0.332,0.5 0.332,1.2 0,0.7 -0.332,1.3 -0.332,0.6 -0.944,0.9 -0.606,0.3 -1.394,0.3 -0.709,0 -1.308,-0.3 -0.593,-0.4 -0.957,-1 -0.501,-0.8 -0.501,-2.2 0,-1.1 0.475,-2.1 0.482,-1 1.523,-1.7 1.048,-0.7 2.663,-0.7 z m -1.895,4 q -0.475,0 -0.852,0.2 -0.378,0.2 -0.593,0.5 -0.208,0.3 -0.208,0.7 0,0.5 0.202,0.9 0.208,0.3 0.579,0.5 0.378,0.2 0.872,0.2 0.495,0 0.866,-0.2 0.371,-0.1 0.573,-0.5 0.202,-0.3 0.202,-0.8 0,-0.4 -0.202,-0.7 -0.195,-0.4 -0.566,-0.6 -0.365,-0.2 -0.873,-0.2 z"
       id="text486-0"
       style="font-size:13.3333px;font-family:'Courier Prime';-inkscape-font-specification:'Courier Prime, Normal';white-space:pre;fill:#ffffff;stroke-width:3.50667;stroke-miterlimit:0;paint-order:stroke markers fill"
       transform="matrix(0.28824,0,0,0.28824,8.0178,898.72)"
       aria-label="SCALE 1:16" /><path
       id="path492"
       style="fill:#ff2a00;stroke-width:0.243205;stroke-miterlimit:0;paint-order:stroke markers fill"
       d="M 3.4535,55.985 A 1.5355,1.5355 0 0 1 1.918,57.521 1.5355,1.5355 0 0 1 0.3825,55.985 1.5355,1.5355 0 0 1 1.918,54.45 1.5355,1.5355 0 0 1 3.4535,55.985 Z" /></g></svg>
