<?xml version="1.0" encoding="UTF-8" standalone="no"?>
<svg
   width="1183pt"
   height="2112pt"
   viewBox="0 0 1183 2112"
   version="1.1"
   id="svg480"
   xml:space="preserve"
   xmlns="http://www.w3.org/2000/svg"
   xmlns:svg="http://www.w3.org/2000/svg"
   xmlns:rdf="http://www.w3.org/1999/02/22-rdf-syntax-ns#"
   xmlns:cc="http://creativecommons.org/ns#"
   xmlns:dc="http://purl.org/dc/elements/1.1/"><metadata
     id="metadata1"><rdf:RDF><cc:Work><dc:type
           rdf:resource="http://purl.org/dc/dcmitype/StillImage" /><dc:date>2025-09-25T09:01:30.953355</dc:date><dc:format>image/svg+xml</dc:format><dc:creator><cc:Agent><dc:title>Matplotlib v3.10.6, https://matplotlib.org/</dc:title></cc:Agent></dc:creator></cc:Work></rdf:RDF></metadata><defs
     id="defs1"><style
       type="text/css"
       id="style1">*{stroke-linejoin: round; stroke-linecap: butt}</style></defs><defs
     id="defs480" /><rect
     style="opacity:0;fill:#b2b2b2;fill-opacity:1;stroke:none;stroke-width:1.72188;stroke-linecap:butt;stroke-linejoin:round;stroke-miterlimit:0;paint-order:stroke markers fill"
     id="rect479-8-3-9"
     width="1183"
     height="1634"
     x="-1183"
     y="0"
     transform="scale(-1,1)" /><rect
     style="fill:#313131;stroke-width:1.43674;stroke-miterlimit:0;paint-order:stroke markers fill"
     id="rect486"
     width="55.99"
     height="9"
     x="132.2"
     y="1947" /><rect
     style="fill:#313131;stroke-width:0.82938;stroke-linecap:butt;stroke-linejoin:round;stroke-miterlimit:0;paint-order:stroke markers fill"
     id="rect486-7"
     width="55.97"
     height="3"
     x="132.2"
     y="2009" /><rect
     style="fill:#313131;stroke-width:1.5514;stroke-linecap:butt;stroke-linejoin:round;stroke-miterlimit:0;paint-order:stroke markers fill"
     id="rect486-7-1"
     width="55.95"
     height="10.5"
     x="132.2"
     y="1928" /><rect
     style="fill:#313131;stroke-width:1.01563;stroke-linecap:butt;stroke-linejoin:round;stroke-miterlimit:0;paint-order:stroke markers fill"
     id="rect486-7-9"
     width="55.95"
     height="4.5"
     x="132.2"
     y="1996" /><rect
     style="fill:#313131;stroke-width:1.17275;stroke-linecap:butt;stroke-linejoin:round;stroke-miterlimit:0;paint-order:stroke markers fill"
     id="rect486-7-2"
     width="55.95"
     height="6"
     x="132.2"
     y="1981" /><rect
     style="fill:#313131;stroke-width:1.31117;stroke-linecap:butt;stroke-linejoin:round;stroke-miterlimit:0;paint-order:stroke markers fill"
     id="rect486-7-5"
     width="55.95"
     height="7.5"
     x="132.2"
     y="1965" /><rect
     style="fill:#313131;stroke-width:0.586374;stroke-linecap:butt;stroke-linejoin:round;stroke-miterlimit:0;paint-order:stroke markers fill"
     id="rect486-7-28"
     width="55.95"
     height="1.5"
     x="132.2"
     y="2021" /><ellipse
     stroke-width="1.52963"
     style="fill:#313131;fill-opacity:1;stroke:#313131;stroke-linecap:butt;stroke-linejoin:round;stroke-miterlimit:0;paint-order:stroke markers fill"
     id="circle857-2-6"
     transform="matrix(0.7456,0.6664,-0.5186,0.855,0,0)"
     cy="1300"
     cx="1243"
     rx="3.15"
     ry="3.334" /><ellipse
     stroke-width="1.52217"
     style="fill:#313131;fill-opacity:1;stroke:#313131;stroke-linecap:butt;stroke-linejoin:round;stroke-miterlimit:0;paint-order:stroke markers fill"
     id="circle857-2-5-7"
     transform="matrix(0.7652,0.6438,-0.5416,0.8406,0,0)"
     cy="1326"
     cx="1321"
     rx="3.259"
     ry="3.389" /><ellipse
     stroke-width="1.51807"
     style="fill:#313131;fill-opacity:1;stroke:#313131;stroke-linecap:butt;stroke-linejoin:round;stroke-miterlimit:0;paint-order:stroke markers fill"
     id="circle857-2-5-6-2"
     transform="matrix(0.7786,0.6275,-0.558,0.8298,0,0)"
     cy="1345"
     cx="1397"
     rx="3.343"
     ry="3.432" /><ellipse
     stroke-width="1.51595"
     style="fill:#313131;fill-opacity:1;stroke:#313131;stroke-linecap:butt;stroke-linejoin:round;stroke-miterlimit:0;paint-order:stroke markers fill"
     id="circle857-2-5-6-6-8"
     transform="matrix(0.791,0.6118,-0.5739,0.8189,0,0)"
     cy="1366"
     cx="1478"
     rx="3.428"
     ry="3.478" /><circle
     stroke-width="1.51497"
     style="fill:#313131;fill-opacity:1;stroke:#313131;stroke-linecap:butt;stroke-linejoin:round;stroke-miterlimit:0;paint-order:stroke markers fill"
     id="circle857-2-5-6-6-0-8"
     transform="rotate(36.36)"
     cy="1396"
     cx="1560"
     r="3.536" /><circle
     stroke-width="1.51458"
     style="fill:#313131;fill-opacity:1;stroke:#313131;stroke-linecap:butt;stroke-linejoin:round;stroke-miterlimit:0;paint-order:stroke markers fill"
     id="circle857-2-5-6-6-0-5-1"
     transform="rotate(36.36)"
     cy="1392"
     cx="1615"
     r="3.535" /><ellipse
     stroke-width="1.54144"
     style="fill:#313131;fill-opacity:1;stroke:#313131;stroke-linecap:butt;stroke-linejoin:round;stroke-miterlimit:0;paint-order:stroke markers fill"
     id="circle857-7"
     transform="matrix(0.7225,0.6914,-0.4929,0.8701,0,0)"
     cy="1274"
     cx="1171"
     rx="3.037"
     ry="3.278" /><rect
     style="fill:#646464;fill-opacity:1;stroke:#313131;stroke-width:1.50383;stroke-miterlimit:0;stroke-dasharray:none;stroke-opacity:1;paint-order:stroke markers fill"
     id="rect489"
     width="449.9"
     height="8.188"
     x="1252"
     y="1521"
     transform="matrix(0.85,0.5268,-0.6076,0.7943,0,0)" /><path
     style="fill:#313131;fill-opacity:1;stroke:none;stroke-width:1.38735;stroke-linecap:butt;stroke-linejoin:round;stroke-miterlimit:0;paint-order:stroke markers fill"
     d="m 518.2,2109 -10.2,-5 -9.6,-6 -8.4,-5 -6.8,-5 -10.5,-6 -6.5,-4 7.3,-1 3.7,2 4.2,1 2.3,2 5.2,2 3.8,3 3.9,1 h 3.9 l 3.9,2 2.8,2 2.1,4 2.2,3 2,2 1.4,2 1.7,3 z"
     id="coals-1" /><path
     style="fill:#313131;fill-opacity:1;stroke:none;stroke-width:1.38763;stroke-linecap:butt;stroke-linejoin:round;stroke-miterlimit:0;paint-order:stroke markers fill"
     d="m 465.9,2078 3,2 4.6,3 5.1,2 4.4,4 7.4,4 15.9,10 8.4,6 3.9,2 -0.7,-3 -1.4,-3 -2.3,-3 -0.5,-4 -2.3,-3 -1.7,-3 -1.9,-2 -3.4,-1 -2.7,-3 -5.2,-1 h -5.6 l -2,-4 -1.6,-3 -1.9,-1 h -2 l -4,-1 h -3.5 -3.7 -4.9 -3.3 z"
     id="coals-2" /><path
     style="fill:#313131;fill-opacity:1;stroke:none;stroke-width:1.38791;stroke-miterlimit:0;paint-order:stroke markers fill"
     d="m 471.2,2082 1.7,1 12.1,6 4.1,3 7.2,4 8,6 8.8,6 4.6,4 -1.2,-8 -0.9,-5 -1.5,-4 -2.4,-3 -3.3,-5 -2.8,-3 -1.3,-2 h -2.6 l -2.3,-1 -4.6,1 h -5 -5.1 l -3.1,-2 -5.8,1 z"
     id="coals-3" /><path
     style="fill:#313131;fill-opacity:1;stroke:none;stroke-width:1.38715;stroke-linecap:butt;stroke-linejoin:round;stroke-miterlimit:0;paint-order:stroke markers fill"
     d="m 473.9,2083 9.7,7 14.6,8 10.5,7 9,6 0.4,-2 -4.2,-5 -4.7,-4 -0.2,-1 -2.5,-3 -3.4,-2 -4.3,-1 -2.8,-2 -4.7,-2 -1.9,-3 -3.4,-1 -1.4,-2 h -3.3 -4.3 z"
     id="coals-4" /><path
     style="fill:#313131;fill-opacity:1;stroke:none;stroke-width:1.38763;stroke-linecap:butt;stroke-linejoin:round;stroke-miterlimit:0;paint-order:stroke markers fill"
     d="m 466.7,2079 4.4,3 7.4,3 4.4,3 8.4,5 11.6,8 10.6,7 4.2,3 0.7,-5 -3.3,-6 -3.1,-5 -4.4,-2 -3,-4 -3.5,-3 -3.8,-1 -4.3,-3 -2.4,-3 h -3.7 l -3.7,-1 -3.5,-1 -4.7,1 h -3.1 l -2.5,1 z"
     id="coals-5" /><ellipse
     stroke-width="1.54179"
     style="fill:#b4b4b4;fill-opacity:1;stroke:#313131;stroke-linecap:butt;stroke-linejoin:round;stroke-miterlimit:0;paint-order:stroke markers fill"
     id="circle857"
     transform="matrix(0.7225,0.6914,-0.4929,0.8701,0,0)"
     cy="1284"
     cx="1165"
     rx="3.038"
     ry="3.279" /><ellipse
     stroke-width="1.53025"
     style="fill:#b4b4b4;fill-opacity:1;stroke:#313131;stroke-linecap:butt;stroke-linejoin:round;stroke-miterlimit:0;paint-order:stroke markers fill"
     id="circle857-2"
     transform="matrix(0.7456,0.6664,-0.5186,0.855,0,0)"
     cy="1310"
     cx="1238"
     rx="3.151"
     ry="3.336" /><ellipse
     stroke-width="1.52284"
     style="fill:#b4b4b4;fill-opacity:1;stroke:#313131;stroke-linecap:butt;stroke-linejoin:round;stroke-miterlimit:0;paint-order:stroke markers fill"
     id="circle857-2-5"
     transform="matrix(0.7652,0.6438,-0.5416,0.8406,0,0)"
     cy="1335"
     cx="1317"
     rx="3.26"
     ry="3.391" /><ellipse
     stroke-width="1.51923"
     style="fill:#b4b4b4;fill-opacity:1;stroke:#313131;stroke-linecap:butt;stroke-linejoin:round;stroke-miterlimit:0;paint-order:stroke markers fill"
     id="circle857-2-5-6"
     transform="matrix(0.7786,0.6275,-0.5581,0.8298,0,0)"
     cy="1355"
     cx="1394"
     rx="3.344"
     ry="3.435" /><ellipse
     stroke-width="1.51652"
     style="fill:#b4b4b4;fill-opacity:1;stroke:#313131;stroke-linecap:butt;stroke-linejoin:round;stroke-miterlimit:0;paint-order:stroke markers fill"
     id="circle857-2-5-6-6"
     transform="matrix(0.791,0.6118,-0.5739,0.8189,0,0)"
     cy="1375"
     cx="1475"
     rx="3.429"
     ry="3.479" /><circle
     stroke-width="1.51536"
     style="fill:#b4b4b4;fill-opacity:1;stroke:#313131;stroke-linecap:butt;stroke-linejoin:round;stroke-miterlimit:0;paint-order:stroke markers fill"
     id="circle857-2-5-6-6-0"
     transform="rotate(36.36)"
     cy="1405"
     cx="1556"
     r="3.537" /><path
     style="fill:#313131;fill-opacity:1;stroke:none;stroke-width:1.38693;stroke-linecap:butt;stroke-linejoin:round;stroke-miterlimit:0;paint-order:stroke markers fill"
     d="m 470.1,2081 47.6,29 -2.1,-3 -4.4,-4 -3.9,-4 -3.8,-1 -2.6,-3 -4.1,-1 -3.4,-3 -5.8,-2 -2.2,-3 -2.7,-1 -3,-4 h -3.1 -2.6 l -2,-1 z"
     id="coals-6" /><circle
     stroke-width="1.51497"
     style="fill:#b4b4b4;fill-opacity:1;stroke:#313131;stroke-linecap:butt;stroke-linejoin:round;stroke-miterlimit:0;paint-order:stroke markers fill"
     id="circle857-2-5-6-6-0-5"
     transform="rotate(36.36)"
     cy="1400"
     cx="1613"
     r="3.536" /><g
     id="wheels"><path
       id="path497"
       style="fill:#313131;stroke:#313131;stroke-width:0.975;stroke-miterlimit:0;paint-order:stroke markers fill"
       d="m 208.8,1923 h -1.6 1.6 v 0 h 1.6 z" /><path
       id="path497-7"
       style="fill:#313131;stroke:#313131;stroke-width:0.974708;stroke-linecap:butt;stroke-linejoin:round;stroke-miterlimit:0;paint-order:stroke markers fill"
       d="m 243.7,1945 h -1.6 1.6 v 0 h 1.6 z" /><path
       id="path497-7-5"
       style="fill:#313131;stroke:#313131;stroke-width:0.974416;stroke-linecap:butt;stroke-linejoin:round;stroke-miterlimit:0;paint-order:stroke markers fill"
       d="m 284.7,1970 h -1.6 1.6 v 0 h 1.6 z" /><path
       id="path497-7-7"
       style="fill:#313131;stroke:#313131;stroke-width:0.974416;stroke-linecap:butt;stroke-linejoin:round;stroke-miterlimit:0;paint-order:stroke markers fill"
       d="m 329.2,1999 h -1.6 1.6 v 0 h 1.6 z" /><path
       id="path497-7-3"
       style="fill:#313131;stroke:#313131;stroke-width:0.974416;stroke-linecap:butt;stroke-linejoin:round;stroke-miterlimit:0;paint-order:stroke markers fill"
       d="m 377.7,2028 h -1.6 1.6 v 0 h 1.6 z" /><path
       id="path497-7-6"
       style="fill:#313131;stroke:#313131;stroke-width:0.974416;stroke-linecap:butt;stroke-linejoin:round;stroke-miterlimit:0;paint-order:stroke markers fill"
       d="m 420.1,2054 h -1.6 1.6 v 0 h 1.6 z" /><path
       id="path497-7-4"
       style="fill:#313131;stroke:#313131;stroke-width:0.974416;stroke-linecap:butt;stroke-linejoin:round;stroke-miterlimit:0;paint-order:stroke markers fill"
       d="m 468.9,2084 h -1.6 1.6 v 0 h 1.6 z" /></g><path
     d="M 87.25,588.2 H 203.2 l 3,53 21,1 -1,1 -6,16 -12,2 -1,2 -2,-2 -5,3 1,-5 h 1 l 2,-2 h -4 l 3,-3 h -4 l -1,2 v -1 -2 l 4,-2 h -1 l 2,-1 h -2 l -1,1 -1,-2 2,-4 -2,1 v 4 l -1,1 -2,-3 2,-2 -2,-1 v 2 l -1,1 1,1 -1,1 1,1 -2,-1 v 0 h -1 l 1,-1 -1,-1 -1,1 1,-1 -3,-1 h 2 l -2,-3 v 4 h 2 l -1,1 2,1 h -2 l -1,-2 -4,-8 4,-2 h -2 l -1,-2 h 1 v -2 l 2,1 1,-1 1,2 4,1 -2,-3 h -2 l -1,-3 -1,1 -1,-1 1,-2 v 0 l -2,2 -1,-2 -1,3 v -4 l 3,-4 1,3 1,2 1,-1 -2,-1 v -6 l -1,-1 v 2 l -1,-1 -1,2 -1,-1 v 2 l -1,1 v -4 l 2,-4 2,3 3,-1 -1,-2 1,-2 h -2 v 3 h -1 l -1,-6 2,-5 1,-1 v -1 h 1 l 1,-2 h 4 l -2,-1 3,-3 h -2 l 2,-5 -2,2 h -2 l -1,2 2,2 -5,4 -1,-1 1,-2 -1,-2 -1,4 1,1 -1,2 -1,-3 v -1 h -2 l 1,3 h -2 l 1,2 -2,1 1,1 -1,1 -5,-2 3,4 2,1 v 3 l 1,2 -2,1 v 3 h -1 v 1 l -1,2 h 1 l -2,3 1,2 1,9 4,5 -2,3 h -1 l 3,1 -1,2 3,5 -1,1 1,3 1,1259.8 h -56 l -4,-1329.8 -3,3 h -5 l 1,2 h -2 l 2,1 h -2 v 2 h -3 l -6,-3 -1,-1 h 2 l -2,-1 1,-1 -2,3 v 1 l -2,1 -2,4 -3,-2 h -1.95 l -2,4 -3,1 -1,3 h -2 l -3,4 z"
     clip-path="none"
     style="fill:#313131;fill-opacity:1;stroke:#505050;stroke-width:0.42183;stroke-linecap:butt;stroke-linejoin:round;stroke-opacity:0.2862"
     id="path60-4-2-8-5-8" /><path
     d="m 261.2,489.2 8,-28 62,2 1,-2 2,1 1,-3 h 3 l 1,-3 3.9,-1 2.7,1 1.3,8 2.7,1 1.9,-2 1.2,3 -2,2 -0.7,-1 -1.1,2 -5.1,1 -0.4,1 h 1.4 l 0.2,1 -3,1 0.8,2 -1.8,-1 -1,1 1,3 v -1 h -1 l -1,3 1,-1 -1,1 2,1 v 1 l 1.5,-1 1.2,1 -0.9,-1 h 0.9 l -0.3,-1 h -1.1 l 1,-1 1.2,2 2.7,1 5.3,10 -1.3,1 0.8,-1 -1.2,-1 -1.8,2 1.9,2 -0.1,-2 0.9,2 2.7,1 -0.1,4 4,3 4.8,2 7.9,-4 0.3,-4 -1.4,-1 -0.8,1 -0.8,-6 -1.9,-1 -1.1,2 -1.7,-2 1.7,-1 3.4,1 3.6,6 1.3,9 -2.4,7 1,-5 -1.4,-1 -5.7,1 -2.2,2 -0.4,-1 h -2.3 l -4.2,3 -5.4,2 -0.9,-1 1.4,-1 -0.4,-3 0.9,-1 -1.1,-1 1.2,-1 -1.6,1 0.5,-1 -1.9,-1 0.1,2 -1.1,-1 -0.5,3 -1.7,-1 0.6,1 h -1.8 l 0.2,2 -0.7,-2 -1.2,1 0.3,1 -0.8,-1 v 3 l -3.1,2 -1,-1 -2,1 v -7 l -2,-1 -5,-5 v -4 h -1 v -5 l -43,-1 -1,1 -1,1 v -2 l -22,-1 z"
     clip-path="none"
     style="fill:#313131;fill-opacity:1;stroke:#505050;stroke-width:0.42183;stroke-linecap:butt;stroke-linejoin:round;stroke-opacity:0.2862"
     id="path2-3-6-59-4-0" /><path
     d="m 345.1,520.2 h 2 l 2.4,-4 3,-2 3.2,4 1.5,-1 0.2,1 -0.1,2 h -8.1 l -2.1,2 z"
     clip-path="none"
     style="fill:#313131;fill-opacity:1;stroke:#505050;stroke-width:0.42183;stroke-linecap:butt;stroke-linejoin:round;stroke-opacity:0.2862"
     id="path3-5-8-2-9-2" /><path
     d="m 364.1,523.2 5.4,-1 1.2,-3 -0.7,-1 0.9,1 1.9,5 -4.5,1 z"
     clip-path="none"
     style="fill:#313131;fill-opacity:1;stroke:#505050;stroke-width:0.42183;stroke-linecap:butt;stroke-linejoin:round;stroke-opacity:0.2862"
     id="path4-6-7-6-4-4" /><path
     d="m 64.26,481.2 9.99,-6 3,-3 7,-3 3,-5 6,-4 -2,-7 -3,-2 v -3 l -2,-1 1,-3 -1,-5 18.95,-4 22,1 7,5 5,-2 h 14 l 5,-2 12,-8 h 4 l 2,-2 v -8 l -1,-3 -2,-2 3,-1 -1,1 1,1 3,-2 -1,-2 3,-2 -5,1 3,-3 h -2 l 1,-1 h -2 v -1 l -2,2 v 1 l 2,-1 -2,3 -1,-4 -2,-1 h 1 l -1,-1 2,-4 3,-1 1,-1 1,-1 7,-4 3,-3 2,-3 15,-14 9,-6 6,-1 3,1 43,-1 v 4 l -1,3 2,2 -2,7 3,8 -2,3 1,4 -2,3 -2,7 2,7 v 2 l 1,2 -3,8 2,1 v -3 h 2 l 2,4 -1,31 1,2 -8,28 1,4 -2,29 2,4 -8,4 2,6 -2,2 -2,2 v 1 h -1 v 1 l 2,2 v -3 l 2,1 -1,-2 3,2 v -3 l 4,-1 -1,2 1,-1 1,1 v -3 l 2,2 2,-1 h -2 l 1,-1 5,2 2,-1 v -2 h 1 l 15,-1 12,-7 h 1 l -2,2 -1,-1 v 2 l 2,2 4,-1 1,3 5,-2 v -1 h 3 l -17,8 -21,9 -16,3 h -6 l -6,2 1,-2 -3,1 -1,-3 2,-3 h -1 v -2 l 4,-10 -25,-15 -2,-3 -5,-1 v -1 l -2,-1 -3,-5 h 1 l -1,-6 -1,-1 1,-2 -3,-2 h -3 l -1,-3 -2,-2 H 64.26 Z"
     clip-path="none"
     style="fill:#313131;fill-opacity:1;stroke:#505050;stroke-width:0.42183;stroke-linecap:butt;stroke-linejoin:round;stroke-opacity:0.2862"
     id="path35-6-9-85-1-9" /><path
     d="m 238.2,555.2 2,-5 h 1 l 2,-1 v 1 l 1,1 -2,3 z"
     clip-path="none"
     style="fill:#313131;fill-opacity:1;stroke:#505050;stroke-width:0.42183;stroke-linecap:butt;stroke-linejoin:round;stroke-opacity:0.2862"
     id="path36-1-0-2-9-0" /><path
     d="m 263.2,407.2 2,-7 2,-3 -1,-4 2,-3 -3,-8 2,-7 -2,-2 1,-3 v -4 h 59 l -2,1 1,3 -4,7 3,7 -2,1 1,2 -4,4 -3,1 -1,2 -7,1 -1,2 1,8 -2,4 1,1 -3,4 -1,4 -3,3 -1,4 -1,1 -2,9 1,2 -2,7 1,1 -1,3 v 2 l -2,2 -1,4 1,4 2,2 -26,-1 1,-33 -2,-4 h -2 v 3 l -2,-1 3,-8 -1,-2 v -2 z"
     clip-path="none"
     style="fill:#313131;fill-opacity:1;stroke:#505050;stroke-width:0.42183;stroke-linecap:butt;stroke-linejoin:round;stroke-opacity:0.2862"
     id="path53-3-3-8-5-1" /><path
     d="m 291.2,457.2 1,-5 2,-2 v -2 l 1,-3 -1,-1 2,-7 -1,-2 2,-9 1,-1 1,-4 3,-3 1,-4 3,-4 -1,-1 2,-4 -1,-8 3,-3 h 5 l 1,-2 3,-1 4,-4 -1,-2 2,-1 -3,-7 4,-7 -1,-3 2,-1 h -1 v -2 l 2,-3 1,-3 -1,-2 2,1 3,-3 2,2 h 2 l 2,-3 4,73 v 1 l -1,7 1,2 4.6,4 -0.3,5 3.8,2 -0.2,2 -3.3,7 -3.1,-1 -3.5,1 -1,3 h -3 l -1,3 -2,-1 -1,2 -37,-1 -2,-2 z"
     clip-path="none"
     style="fill:#313131;fill-opacity:1;stroke:#505050;stroke-width:0.42183;stroke-linecap:butt;stroke-linejoin:round;stroke-opacity:0.2862"
     id="path54-2-3-3-7-2" /><path
     d="m 147.2,622.2 3,-3 4,4 -4,5 v -4 z"
     clip-path="none"
     style="fill:#313131;fill-opacity:1;stroke:#505050;stroke-width:0.42183;stroke-linecap:butt;stroke-linejoin:round;stroke-opacity:0.2862"
     id="path58-5-3-6-4-0" /><path
     d="m 197.2,592.2 3,-6 3,-3 7,-1 v -4 l 10,-7 3,-1 -7,-8 -1,-2 -3,-1 v -5 l -4,-1 v -2 l 1,-3 h -1 v -3 l 3,-2 v -2 l 2,-1 -3,-5 5,-4 h -1 l 4,-4 3,-6 3,-1 25,15 -4,12 -2,2 -3,1 -3,6 2,2 2,-1 5,2 -1,-3 1,2 v 6 l -3,23 -5,8 -3,2 v 3 l -9,8 -5,11 -3,2 -3,1 3,-10 -5,-1 v -2 l -4,2 -3,-5 h -1 l -6,-6 -2,-1 1,-4 z"
     clip-path="none"
     style="fill:#313131;fill-opacity:1;stroke:#505050;stroke-width:0.42183;stroke-linecap:butt;stroke-linejoin:round;stroke-opacity:0.2862"
     id="path59-5-73-7-1-0" /><path
     d="m 189.2,588.2 4,-4 h 4 l 4,1 -6,8 1,2 -1,4 6,9 v 8 l 3,3 1,3 4,6 2,-1 2,15 h -21 z"
     clip-path="none"
     style="fill:#313131;fill-opacity:1;stroke:#505050;stroke-width:0.42183;stroke-linecap:butt;stroke-linejoin:round;stroke-opacity:0.2862"
     id="path285-1-5-2-1-6" /><path
     d="m 313.2,522.2 1,-2 -1,-3 h 2 v -25 h 13 v 5 h 1 v 4 l 4,4 -1,2 v 1 l -1,-2 -1,1 1,-2 -3,-3 1,2 -1,3 -2,-1 1,1 v 3 h -1 l 1,5 -2,4 h -2 z"
     clip-path="none"
     style="fill:#313131;fill-opacity:1;stroke:#505050;stroke-width:0.42183;stroke-linecap:butt;stroke-linejoin:round;stroke-opacity:0.2862"
     id="path289-3-2-6-6-3" /><path
     d="m 328.2,515.2 h 2 l -1,-2 2,-5 h 2 l 1,-2 2,1 v 7 l -2,1 -1,-7 -1,1 v 6 z"
     clip-path="none"
     style="fill:#313131;fill-opacity:1;stroke:#505050;stroke-width:0.42183;stroke-linecap:butt;stroke-linejoin:round;stroke-opacity:0.2862"
     id="path290-3-6-6-2-9" /><path
     d="m 254.2,530.2 8,-4 -2,-4 2,-32 21,1 v 2 l 1,-1 1,-1 30,1 v 25 h -2 l 1,3 -1,1 -3,-1 -5,2 -2,-1 -1,2 h -4 l -1,-1 1,1 -1,1 -9,-1 -2,1 -1,-1 -5,1 v -2 l -3,4 -3,1 v 1 h -3 l -2,2 h -4 l -5,4 v -1 l -1,2 -1,-1 -2,1 z"
     clip-path="none"
     style="fill:#313131;fill-opacity:1;stroke:#505050;stroke-width:0.42183;stroke-linecap:butt;stroke-linejoin:round;stroke-opacity:0.2862"
     id="path302-6-5-2-0-0" /><path
     d="m 60.26,487.2 6,-6 v 11 H 204.2 l 2,3 1,3 h 3 l 3,2 -1,2 1,1 1,5 -1,1 3,5 h 2 v 2 h 5 l 2,3 -4,2 -2,6 -4,4 h 1 l -5,4 2,5 -1,1 v 2 l -3,2 v 2 1 4 l 4,2 v 5 l 3,1 1,2 7,8 -3,1 -10,7 v 3 l -7,2 -2,2 -3,-2 -4,1 -2,1 -2,3 H 60.26 Z"
     clip-path="none"
     style="fill:#313131;fill-opacity:1;stroke:#505050;stroke-width:0.799462;stroke-linecap:butt;stroke-linejoin:round;stroke-opacity:0.29"
     id="path35-2-8" /><path
     d="m 336.2,354.2 -1,-353.5899 59.1,-0.1999 2.2,262.8898 4.1,1 -0.2,8 4.7,3 5.8,-3 h 3.3 l 1.1,-2 h 6.3 l 0.5,-3 h 4 l 8.8,7 2.3,4 3,1 0.2,47.9 1,1 -1.6,1 1.5,3 -1.6,1 0.7,3 -1.1,1 2.8,2 -0.2,-1 h 0.8 l 2,3 6.8,1 0.4,4 h -2.7 l 2.7,5 -2.2,4 2.6,5 1.9,1 1.5,-1 0.5,-1 3.9,1 2.1,4 -0.4,1 3.8,5 0.1,5 1,-1 -3.8,3 -3.8,5 -2.6,-1 0.8,2 -2.5,-2 0.6,-2 -2.8,1 1.1,2 -1.4,2 -0.7,-2 -1,2 -1.5,-2 h -1.2 l -0.6,4 h -3.9 l -0.8,2 h -0.9 l -0.4,-2 h -0.6 l -0.3,1 -0.7,-1 -1.4,-1 -1.6,7 -0.5,-3 -0.7,3 -1,-3 h -1.8 l 2.2,3 h -2.1 l -0.8,3 -2,-3 -0.3,-3 -1.2,-1 0.2,1 h -1.3 0.5 l -1,-2 -0.4,2 -1.2,-1 -1,1 0.4,1 h -2.3 l -0.4,1 h 0.9 2.9 l 2.2,3 -1.7,3 h -2.7 l 0.8,1 -1.4,2 -3,-4 1,-3 1.4,-1 -1.2,-1 -1.2,1 0.1,-4 h -1.4 l 0.3,5 -0.6,-3 -0.6,1 -2,1 0.5,2 -0.6,2 1.5,2 h -1.1 l 1,1 -6.9,-4 -2.7,1 0.1,-4 1.4,-4 -0.8,-1 -1,2 h 0.8 l -2.1,2 -1.4,-1 -2.4,1 1.5,4 -3.5,5 0.2,2 -0.6,-1 -0.9,5 1.9,-1 -2.7,3 0.1,2 -1.2,-1 -1.6,3 -1.9,1 0.2,-2 h -0.5 -1.1 l -0.2,-1 -1.6,2 1.4,-2 h -1.2 l 0.2,-1 -2.1,2 -0.3,-1 -2,6 -1.3,-2 -0.3,2 -1.3,1 v -2 l -0.9,1 -0.5,-1 -0.5,3 -1.1,-2 0.4,-4 -1.4,6 -3.7,4 -1.1,-4 -2.6,1 -1.5,2 0.3,-1 h -1.6 l 2.9,-5 h -1.3 l -1,1 1.2,-1 h -1 l -1.6,2 -0.3,-1 -3.6,3 -0.7,3 -1.2,1 1.8,4 -5.2,2 -0.7,2 1.6,1 -3,3 0.4,1 -4.4,2 -1.2,3 0.1,3 -3.6,5 -3.9,-3 0.6,-4 -6.8,-7 1,-7 -1,-10 z"
     clip-path="none"
     style="fill:#313131;fill-opacity:1;stroke:#313131;stroke-width:0.421916;stroke-linecap:butt;stroke-linejoin:round;stroke-opacity:1"
     id="path78-7-6-8-3" /></svg>
