<?xml version="1.0" encoding="UTF-8" standalone="no"?>
<svg
   width="1183pt"
   height="1842pt"
   viewBox="0 0 1183 1842"
   version="1.1"
   id="svg480"
   sodipodi:docname="smokestack.svg"
   inkscape:version="1.4 (e7c3feb100, 2024-10-09)"
   xml:space="preserve"
   inkscape:export-filename="../../ban-carbon/public/rggi-power-plants.svg"
   inkscape:export-xdpi="96"
   inkscape:export-ydpi="96"
   xmlns:inkscape="http://www.inkscape.org/namespaces/inkscape"
   xmlns:sodipodi="http://sodipodi.sourceforge.net/DTD/sodipodi-0.dtd"
   xmlns="http://www.w3.org/2000/svg"
   xmlns:svg="http://www.w3.org/2000/svg"
   xmlns:rdf="http://www.w3.org/1999/02/22-rdf-syntax-ns#"
   xmlns:cc="http://creativecommons.org/ns#"
   xmlns:dc="http://purl.org/dc/elements/1.1/"><sodipodi:namedview
     id="namedview1"
     pagecolor="#ffffff"
     bordercolor="#000000"
     borderopacity="0.25"
     inkscape:showpageshadow="2"
     inkscape:pageopacity="0.0"
     inkscape:pagecheckerboard="0"
     inkscape:deskcolor="#d1d1d1"
     inkscape:document-units="px"
     inkscape:zoom="0.32"
     inkscape:cx="-109.38"
     inkscape:cy="1531.3"
     inkscape:window-width="1920"
     inkscape:window-height="1017"
     inkscape:window-x="0"
     inkscape:window-y="0"
     inkscape:window-maximized="1"
     inkscape:current-layer="svg480"
     showgrid="false"><inkscape:grid
       id="grid483"
       units="pt"
       originx="1618"
       originy="-964"
       spacingx="0.75"
       spacingy="0.75"
       empcolor="#0099e5"
       empopacity="0.302"
       color="#0099e5"
       opacity="0.149"
       empspacing="5"
       enabled="true"
       visible="false" /><inkscape:page
       x="0"
       y="0"
       width="1183"
       height="1842"
       id="page2"
       margin="0"
       bleed="0" /></sodipodi:namedview><metadata
     id="metadata1"><rdf:RDF><cc:Work><dc:type
           rdf:resource="http://purl.org/dc/dcmitype/StillImage" /><dc:date>2025-09-25T09:01:30.953355</dc:date><dc:format>image/svg+xml</dc:format><dc:creator><cc:Agent><dc:title>Matplotlib v3.10.6, https://matplotlib.org/</dc:title></cc:Agent></dc:creator></cc:Work></rdf:RDF></metadata><defs
     id="defs1"><style
       type="text/css"
       id="style1">*{stroke-linejoin: round; stroke-linecap: butt}</style></defs><defs
     id="defs480" /><rect
     style="opacity:0;fill:#b2b2b2;fill-opacity:1;stroke:none;stroke-width:1.72188;stroke-linecap:butt;stroke-linejoin:round;stroke-miterlimit:0;paint-order:stroke markers fill"
     id="rect479-8-3-9"
     width="1183"
     height="1634"
     x="-1183"
     y="0"
     transform="scale(-1,1)"
     inkscape:export-filename="../../ban-carbon/public/rggi-power-plants.svg"
     inkscape:export-xdpi="96"
     inkscape:export-ydpi="96" /><rect
     style="fill:#313131;stroke-width:1.43674;stroke-miterlimit:0;paint-order:stroke markers fill"
     id="rect486"
     width="55.99"
     height="9"
     x="118.1"
     y="1678.5" /><rect
     style="fill:#313131;stroke-width:0.82938;stroke-linecap:butt;stroke-linejoin:round;stroke-miterlimit:0;paint-order:stroke markers fill"
     id="rect486-7"
     width="55.97"
     height="3"
     x="118.1"
     y="1740.5" /><rect
     style="fill:#313131;stroke-width:1.5514;stroke-linecap:butt;stroke-linejoin:round;stroke-miterlimit:0;paint-order:stroke markers fill"
     id="rect486-7-1"
     width="55.95"
     height="10.5"
     x="118.1"
     y="1659.5" /><rect
     style="fill:#313131;stroke-width:1.01563;stroke-linecap:butt;stroke-linejoin:round;stroke-miterlimit:0;paint-order:stroke markers fill"
     id="rect486-7-9"
     width="55.95"
     height="4.5"
     x="118.1"
     y="1727.5" /><rect
     style="fill:#313131;stroke-width:1.17275;stroke-linecap:butt;stroke-linejoin:round;stroke-miterlimit:0;paint-order:stroke markers fill"
     id="rect486-7-2"
     width="55.95"
     height="6"
     x="118.1"
     y="1712.5" /><rect
     style="fill:#313131;stroke-width:1.31117;stroke-linecap:butt;stroke-linejoin:round;stroke-miterlimit:0;paint-order:stroke markers fill"
     id="rect486-7-5"
     width="55.95"
     height="7.5"
     x="118.1"
     y="1696.5" /><ellipse
     stroke-width="1.52988"
     style="fill:#313131;fill-opacity:1;stroke:#313131;stroke-linecap:butt;stroke-linejoin:round;stroke-miterlimit:0;paint-order:stroke markers fill"
     id="circle857-2-6"
     transform="matrix(0.7456,0.6664,-0.51861,0.85501,0,0)"
     cy="1104.9"
     cx="1090.1"
     rx="3.1511"
     ry="3.3338" /><ellipse
     stroke-width="1.52272"
     style="fill:#313131;fill-opacity:1;stroke:#313131;stroke-linecap:butt;stroke-linejoin:round;stroke-miterlimit:0;paint-order:stroke markers fill"
     id="circle857-2-5-7"
     transform="matrix(0.7652,0.6438,-0.54162,0.84063,0,0)"
     cy="1129.1"
     cx="1162"
     rx="3.2601"
     ry="3.3904" /><ellipse
     stroke-width="1.51847"
     style="fill:#313131;fill-opacity:1;stroke:#313131;stroke-linecap:butt;stroke-linejoin:round;stroke-miterlimit:0;paint-order:stroke markers fill"
     id="circle857-2-5-6-2"
     transform="matrix(0.77861,0.62751,-0.55802,0.82983,0,0)"
     cy="1144.5"
     cx="1235.4"
     rx="3.3432"
     ry="3.4335" /><ellipse
     stroke-width="1.51621"
     style="fill:#313131;fill-opacity:1;stroke:#313131;stroke-linecap:butt;stroke-linejoin:round;stroke-miterlimit:0;paint-order:stroke markers fill"
     id="circle857-2-5-6-6-8"
     transform="matrix(0.79101,0.61181,-0.57391,0.81892,0,0)"
     cy="1161.2"
     cx="1313.1"
     rx="3.429"
     ry="3.4782" /><circle
     stroke-width="1.51497"
     style="fill:#313131;fill-opacity:1;stroke:#313131;stroke-linecap:butt;stroke-linejoin:round;stroke-miterlimit:0;paint-order:stroke markers fill"
     id="circle857-2-5-6-6-0-8"
     transform="rotate(36.36)"
     cy="1188.4"
     cx="1389.9"
     r="3.536" /><circle
     stroke-width="1.51458"
     style="fill:#313131;fill-opacity:1;stroke:#313131;stroke-linecap:butt;stroke-linejoin:round;stroke-miterlimit:0;paint-order:stroke markers fill"
     id="circle857-2-5-6-6-0-5-1"
     transform="rotate(36.36)"
     cy="1184.4"
     cx="1444.9"
     r="3.535" /><ellipse
     stroke-width="1.54166"
     style="fill:#313131;fill-opacity:1;stroke:#313131;stroke-linecap:butt;stroke-linejoin:round;stroke-miterlimit:0;paint-order:stroke markers fill"
     id="circle857-7"
     transform="matrix(0.72249,0.69139,-0.49289,0.87009,0,0)"
     cy="1084"
     cx="1022.8"
     rx="3.0386"
     ry="3.2778" /><rect
     style="fill:#646464;fill-opacity:1;stroke:#313131;stroke-width:1.50355;stroke-miterlimit:0;stroke-dasharray:none;stroke-opacity:1;paint-order:stroke markers fill"
     id="rect489"
     width="449.92"
     height="8.186"
     x="1077"
     y="1299.7"
     transform="matrix(0.84999,0.5268,-0.60757,0.79426,0,0)" /><path
     style="fill:#313131;fill-opacity:1;stroke:none;stroke-width:1.38735;stroke-linecap:butt;stroke-linejoin:round;stroke-miterlimit:0;paint-order:stroke markers fill"
     d="m 504.1,1840.5 -10.2,-5 -9.6,-6 -8.4,-5 -6.8,-5 -10.5,-6 -6.5,-4 7.3,-1 3.7,2 4.2,1 2.3,2 5.2,2 3.8,3 3.9,1 h 3.9 l 3.9,2 2.8,2 2.1,4 2.2,3 2,2 1.4,2 1.7,3 z"
     id="coals-1"
     sodipodi:nodetypes="ccccccccccccccccccccccc" /><path
     style="fill:#313131;fill-opacity:1;stroke:none;stroke-width:1.38763;stroke-linecap:butt;stroke-linejoin:round;stroke-miterlimit:0;paint-order:stroke markers fill"
     d="m 451.8,1809.5 3,2 4.6,3 5.1,2 4.4,4 7.4,4 15.9,10 8.4,6 3.9,2 -0.7,-3 -1.4,-3 -2.3,-3 -0.5,-4 -2.3,-3 -1.7,-3 -1.9,-2 -3.4,-1 -2.7,-3 -5.2,-1 h -5.6 l -2,-4 -1.6,-3 -1.9,-1 h -2 l -4,-1 h -3.5 -3.7 -4.9 -3.3 z"
     id="coals-2"
     sodipodi:nodetypes="cccccccccccccccccccccccccccccc" /><path
     style="fill:#313131;fill-opacity:1;stroke:none;stroke-width:1.38791;stroke-miterlimit:0;paint-order:stroke markers fill"
     d="m 457.1,1813.5 1.7,1 12.1,6 4.1,3 7.2,4 8,6 8.8,6 4.6,4 -1.2,-8 -0.9,-5 -1.5,-4 -2.4,-3 -3.3,-5 -2.8,-3 -1.3,-2 h -2.6 l -2.3,-1 -4.6,1 h -5 -5.1 l -3.1,-2 -5.8,1 z"
     id="coals-3"
     sodipodi:nodetypes="ccccccccccccccccccccccc" /><path
     style="fill:#313131;fill-opacity:1;stroke:none;stroke-width:1.38715;stroke-linecap:butt;stroke-linejoin:round;stroke-miterlimit:0;paint-order:stroke markers fill"
     d="m 459.8,1814.5 9.7,7 14.6,8 10.5,7 9,6 0.4,-2 -4.2,-5 -4.7,-4 -0.2,-1 -2.5,-3 -3.4,-2 -4.3,-1 -2.8,-2 -4.7,-2 -1.9,-3 -3.4,-1 -1.4,-2 h -3.3 -4.3 z"
     id="coals-4"
     sodipodi:nodetypes="cccccccccccccccccccc" /><path
     style="fill:#313131;fill-opacity:1;stroke:none;stroke-width:1.38763;stroke-linecap:butt;stroke-linejoin:round;stroke-miterlimit:0;paint-order:stroke markers fill"
     d="m 452.6,1810.5 4.4,3 7.4,3 4.4,3 8.4,5 11.6,8 10.6,7 4.2,3 0.7,-5 -3.3,-6 -3.1,-5 -4.4,-2 -3,-4 -3.5,-3 -3.8,-1 -4.3,-3 -2.4,-3 h -3.7 l -3.7,-1 -3.5,-1 -4.7,1 h -3.1 l -2.5,1 z"
     id="coals-5"
     sodipodi:nodetypes="cccccccccccccccccccccccc" /><ellipse
     stroke-width="1.54201"
     style="fill:#d5d6d7;fill-opacity:1;stroke:#313131;stroke-linecap:butt;stroke-linejoin:round;stroke-miterlimit:0;paint-order:stroke markers fill"
     id="circle857"
     transform="matrix(0.72249,0.69139,-0.49289,0.87009,0,0)"
     cy="1093.9"
     cx="1016.8"
     rx="3.0396"
     ry="3.2788" /><ellipse
     stroke-width="1.5305"
     style="fill:#d5d6d7;fill-opacity:1;stroke:#313131;stroke-linecap:butt;stroke-linejoin:round;stroke-miterlimit:0;paint-order:stroke markers fill"
     id="circle857-2"
     transform="matrix(0.7456,0.6664,-0.51861,0.85501,0,0)"
     cy="1114.8"
     cx="1085.1"
     rx="3.1521"
     ry="3.3358" /><ellipse
     stroke-width="1.52337"
     style="fill:#d5d6d7;fill-opacity:1;stroke:#313131;stroke-linecap:butt;stroke-linejoin:round;stroke-miterlimit:0;paint-order:stroke markers fill"
     id="circle857-2-5"
     transform="matrix(0.7652,0.6438,-0.54162,0.84063,0,0)"
     cy="1137.1"
     cx="1158"
     rx="3.2611"
     ry="3.3924" /><ellipse
     stroke-width="1.51922"
     style="fill:#d5d6d7;fill-opacity:1;stroke:#313131;stroke-linecap:butt;stroke-linejoin:round;stroke-miterlimit:0;paint-order:stroke markers fill"
     id="circle857-2-5-6"
     transform="matrix(0.77861,0.62751,-0.55809,0.82978,0,0)"
     cy="1153.6"
     cx="1232.5"
     rx="3.344"
     ry="3.4351" /><ellipse
     stroke-width="1.51678"
     style="fill:#d5d6d7;fill-opacity:1;stroke:#313131;stroke-linecap:butt;stroke-linejoin:round;stroke-miterlimit:0;paint-order:stroke markers fill"
     id="circle857-2-5-6-6"
     transform="matrix(0.79101,0.61181,-0.57391,0.81892,0,0)"
     cy="1170.2"
     cx="1310.1"
     rx="3.43"
     ry="3.4792" /><circle
     stroke-width="1.51536"
     style="fill:#d5d6d7;fill-opacity:1;stroke:#313131;stroke-linecap:butt;stroke-linejoin:round;stroke-miterlimit:0;paint-order:stroke markers fill"
     id="circle857-2-5-6-6-0"
     transform="rotate(36.36)"
     cy="1197.4"
     cx="1385.9"
     r="3.537" /><path
     style="fill:#313131;fill-opacity:1;stroke:none;stroke-width:1.38693;stroke-linecap:butt;stroke-linejoin:round;stroke-miterlimit:0;paint-order:stroke markers fill"
     d="m 456,1812.5 47.6,29 -2.1,-3 -4.4,-4 -3.9,-4 -3.8,-1 -2.6,-3 -4.1,-1 -3.4,-3 -5.8,-2 -2.2,-3 -2.7,-1 -3,-4 h -3.1 -2.6 l -2,-1 z"
     id="coals-6"
     sodipodi:nodetypes="ccccccccccccccccc" /><circle
     stroke-width="1.51497"
     style="fill:#d5d6d7;fill-opacity:1;stroke:#313131;stroke-linecap:butt;stroke-linejoin:round;stroke-miterlimit:0;paint-order:stroke markers fill"
     id="circle857-2-5-6-6-0-5"
     transform="rotate(36.36)"
     cy="1192.4"
     cx="1442.9"
     r="3.536" /><g
     id="wheels"
     transform="translate(-14.1,16.5)"><path
       id="path497"
       style="fill:#313131;stroke:#313131;stroke-width:0.975;stroke-miterlimit:0;paint-order:stroke markers fill"
       d="m 208.5,1638 h -1.6 1.6 v 0 h 1.6 z"
       sodipodi:nodetypes="ccccccc" /><path
       id="path497-7"
       style="fill:#313131;stroke:#313131;stroke-width:0.974708;stroke-linecap:butt;stroke-linejoin:round;stroke-miterlimit:0;paint-order:stroke markers fill"
       d="m 243.8,1661 h -1.6 1.6 v 0 h 1.6 z"
       sodipodi:nodetypes="ccccccc" /><path
       id="path497-7-5"
       style="fill:#313131;stroke:#313131;stroke-width:0.974416;stroke-linecap:butt;stroke-linejoin:round;stroke-miterlimit:0;paint-order:stroke markers fill"
       d="m 284.4,1685 h -1.6 1.6 v 0 h 1.6 z"
       sodipodi:nodetypes="ccccccc" /><path
       id="path497-7-7"
       style="fill:#313131;stroke:#313131;stroke-width:0.974416;stroke-linecap:butt;stroke-linejoin:round;stroke-miterlimit:0;paint-order:stroke markers fill"
       d="m 328.9,1714 h -1.6 1.6 v 0 h 1.6 z"
       sodipodi:nodetypes="ccccccc" /><path
       id="path497-7-3"
       style="fill:#313131;stroke:#313131;stroke-width:0.974416;stroke-linecap:butt;stroke-linejoin:round;stroke-miterlimit:0;paint-order:stroke markers fill"
       d="m 377.5,1743 h -1.6 1.6 v 0 h 1.6 z"
       sodipodi:nodetypes="ccccccc" /><path
       id="path497-7-6"
       style="fill:#313131;stroke:#313131;stroke-width:0.974416;stroke-linecap:butt;stroke-linejoin:round;stroke-miterlimit:0;paint-order:stroke markers fill"
       d="m 419.8,1769 h -1.6 1.6 v 0 h 1.6 z"
       sodipodi:nodetypes="ccccccc" /><path
       id="path497-7-4"
       style="fill:#313131;stroke:#313131;stroke-width:0.974416;stroke-linecap:butt;stroke-linejoin:round;stroke-miterlimit:0;paint-order:stroke markers fill"
       d="m 468.6,1799 h -1.6 1.6 v 0 h 1.6 z"
       sodipodi:nodetypes="ccccccc" /></g><path
     d="M 73.25,588.2 H 189.2 l 3,53 21,1 -1,1 -6,16 -12,2 -1,2 -2,-2 -5,3 1,-5 h 1 l 2,-2 h -4 l 3,-3 h -4 l -1,2 v -1 -2 l 4,-2 h -1 l 2,-1 h -2 l -1,1 -1,-2 2,-4 -2,1 v 4 l -1,1 -2,-3 2,-2 -2,-1 v 2 l -1,1 1,1 -1,1 1,1 -2,-1 v 0 h -1 l 1,-1 -1,-1 -1,1 1,-1 -3,-1 h 2 l -2,-3 v 4 h 2 l -1,1 2,1 h -2 l -1,-2 -4,-8 4,-2 h -2 l -1,-2 h 1 v -2 l 2,1 1,-1 1,2 4,1 -2,-3 h -2 l -1,-3 -1,1 -1,-1 1,-2 v 0 l -2,2 -1,-2 -1,3 v -4 l 3,-4 1,3 1,2 1,-1 -2,-1 v -6 l -1,-1 v 2 l -1,-1 -1,2 -1,-1 v 2 l -1,1 v -4 l 2,-4 2,3 3,-1 -1,-2 1,-2 h -2 v 3 h -1 l -1,-6 2,-5 1,-1 v -1 h 1 l 1,-2 h 4 l -2,-1 3,-3 h -2 l 2,-5 -2,2 h -2 l -1,2 2,2 -5,4 -1,-1 1,-2 -1,-2 -1,4 1,1 -1,2 -1,-3 v -1 h -2 l 1,3 h -2 l 1,2 -2,1 1,1 -1,1 -5,-2 3,4 2,1 v 3 l 1,2 -2,1 v 3 h -1 v 1 l -1,2 h 1 l -2,3 1,2 1,9 4,5 -2,3 h -1 l 3,1 -1,2 3,5 -1,1 1,3 1,989.8 h -56 l -4,-1059.8 -3,3 h -5 l 1,2 h -2 l 2,1 h -2 v 2 h -3 l -6,-3 -1,-1 h 2 l -2,-1 1,-1 -2,3 v 1 l -2,1 -2,4 -3,-2 h -1.95 l -2,4 -3,1 -1,3 h -2 l -3,4 z"
     clip-path="none"
     style="fill:#313131;fill-opacity:1;stroke:#505050;stroke-width:0.42183;stroke-linecap:butt;stroke-linejoin:round;stroke-opacity:0.2862"
     id="path60-4-2-8-5-8"
     sodipodi:nodetypes="ccccccccccccccccccccccccccccccccccccccccccccccccccccccccccccccccccccccccccccccccccccccccccccccccccccccccccccccccccccccccccccccccccccccccccccccccccccccccccccccccccccccccccccccccc" /><path
     d="m 261.2,489.2 8,-28 62,2 1,-2 2,1 1,-3 h 3 l 1,-3 3.9,-1 2.7,1 1.3,8 2.7,1 1.9,-2 1.2,3 -2,2 -0.7,-1 -1.1,2 -5.1,1 -0.4,1 h 1.4 l 0.2,1 -3,1 0.8,2 -1.8,-1 -1,1 1,3 v -1 h -1 l -1,3 1,-1 -1,1 2,1 v 1 l 1.5,-1 1.2,1 -0.9,-1 h 0.9 l -0.3,-1 h -1.1 l 1,-1 1.2,2 2.7,1 5.3,10 -1.3,1 0.8,-1 -1.2,-1 -1.8,2 1.9,2 -0.1,-2 0.9,2 2.7,1 -0.1,4 4,3 4.8,2 7.9,-4 0.3,-4 -1.4,-1 -0.8,1 -0.8,-6 -1.9,-1 -1.1,2 -1.7,-2 1.7,-1 3.4,1 3.6,6 1.3,9 -2.4,7 1,-5 -1.4,-1 -5.7,1 -2.2,2 -0.4,-1 h -2.3 l -4.2,3 -5.4,2 -0.9,-1 1.4,-1 -0.4,-3 0.9,-1 -1.1,-1 1.2,-1 -1.6,1 0.5,-1 -1.9,-1 0.1,2 -1.1,-1 -0.5,3 -1.7,-1 0.6,1 h -1.8 l 0.2,2 -0.7,-2 -1.2,1 0.3,1 -0.8,-1 v 3 l -3.1,2 -1,-1 -2,1 v -7 l -2,-1 -5,-5 v -4 h -1 v -5 l -43,-1 -1,1 -1,1 v -2 l -22,-1 z"
     clip-path="none"
     style="fill:#313131;fill-opacity:1;stroke:#505050;stroke-width:0.42183;stroke-linecap:butt;stroke-linejoin:round;stroke-opacity:0.2862"
     id="path2-3-6-59-4-0"
     sodipodi:nodetypes="ccccccccccccccccccccccccccccccccccccccccccccccccccccccccccccccccccccccccccccccccccccccccccccccccccccccccccccccc"
     inkscape:export-filename="../export/web/rggi-power-plants.svg"
     inkscape:export-xdpi="96"
     inkscape:export-ydpi="96" /><path
     d="m 345.1,520.2 h 2 l 2.4,-4 3,-2 3.2,4 1.5,-1 0.2,1 -0.1,2 h -8.1 l -2.1,2 z"
     clip-path="none"
     style="fill:#313131;fill-opacity:1;stroke:#505050;stroke-width:0.42183;stroke-linecap:butt;stroke-linejoin:round;stroke-opacity:0.2862"
     id="path3-5-8-2-9-2"
     sodipodi:nodetypes="ccccccccccc" /><path
     d="m 364.1,523.2 5.4,-1 1.2,-3 -0.7,-1 0.9,1 1.9,5 -4.5,1 z"
     clip-path="none"
     style="fill:#313131;fill-opacity:1;stroke:#505050;stroke-width:0.42183;stroke-linecap:butt;stroke-linejoin:round;stroke-opacity:0.2862"
     id="path4-6-7-6-4-4"
     sodipodi:nodetypes="cccccccc" /><path
     d="m 64.26,481.2 9.99,-6 3,-3 7,-3 3,-5 6,-4 -2,-7 -3,-2 v -3 l -2,-1 1,-3 -1,-5 18.95,-4 22,1 7,5 5,-2 h 14 l 5,-2 12,-8 h 4 l 2,-2 v -8 l -1,-3 -2,-2 3,-1 -1,1 1,1 3,-2 -1,-2 3,-2 -5,1 3,-3 h -2 l 1,-1 h -2 v -1 l -2,2 v 1 l 2,-1 -2,3 -1,-4 -2,-1 h 1 l -1,-1 2,-4 3,-1 1,-1 1,-1 7,-4 3,-3 2,-3 15,-14 9,-6 6,-1 3,1 43,-1 v 4 l -1,3 2,2 -2,7 3,8 -2,3 1,4 -2,3 -2,7 2,7 v 2 l 1,2 -3,8 2,1 v -3 h 2 l 2,4 -1,31 1,2 -8,28 1,4 -2,29 2,4 -8,4 2,6 -2,2 -2,2 v 1 h -1 v 1 l 2,2 v -3 l 2,1 -1,-2 3,2 v -3 l 4,-1 -1,2 1,-1 1,1 v -3 l 2,2 2,-1 h -2 l 1,-1 5,2 2,-1 v -2 h 1 l 15,-1 12,-7 h 1 l -2,2 -1,-1 v 2 l 2,2 4,-1 1,3 5,-2 v -1 h 3 l -17,8 -21,9 -16,3 h -6 l -6,2 1,-2 -3,1 -1,-3 2,-3 h -1 v -2 l 4,-10 -25,-15 -2,-3 -5,-1 v -1 l -2,-1 -3,-5 h 1 l -1,-6 -1,-1 1,-2 -3,-2 h -3 l -1,-3 -2,-2 H 64.26 Z"
     clip-path="none"
     style="fill:#313131;fill-opacity:1;stroke:#505050;stroke-width:0.42183;stroke-linecap:butt;stroke-linejoin:round;stroke-opacity:0.2862"
     id="path35-6-9-85-1-9"
     sodipodi:nodetypes="ccccccccccccccccccccccccccccccccccccccccccccccccccccccccccccccccccccccccccccccccccccccccccccccccccccccccccccccccccccccccccccccccccccccccccccccccc" /><path
     d="m 238.2,555.2 2,-5 h 1 l 2,-1 v 1 l 1,1 -2,3 z"
     clip-path="none"
     style="fill:#313131;fill-opacity:1;stroke:#505050;stroke-width:0.42183;stroke-linecap:butt;stroke-linejoin:round;stroke-opacity:0.2862"
     id="path36-1-0-2-9-0"
     sodipodi:nodetypes="cccccccc" /><path
     d="m 263.2,407.2 2,-7 2,-3 -1,-4 2,-3 -3,-8 2,-7 -2,-2 1,-3 v -4 h 59 l -2,1 1,3 -4,7 3,7 -2,1 1,2 -4,4 -3,1 -1,2 -7,1 -1,2 1,8 -2,4 1,1 -3,4 -1,4 -3,3 -1,4 -1,1 -2,9 1,2 -2,7 1,1 -1,3 v 2 l -2,2 -1,4 1,4 2,2 -26,-1 1,-33 -2,-4 h -2 v 3 l -2,-1 3,-8 -1,-2 v -2 z"
     clip-path="none"
     style="fill:#313131;fill-opacity:1;stroke:#505050;stroke-width:0.42183;stroke-linecap:butt;stroke-linejoin:round;stroke-opacity:0.2862"
     id="path53-3-3-8-5-1"
     sodipodi:nodetypes="cccccccccccccccccccccccccccccccccccccccccccccccccc" /><path
     d="m 291.2,457.2 1,-5 2,-2 v -2 l 1,-3 -1,-1 2,-7 -1,-2 2,-9 1,-1 1,-4 3,-3 1,-4 3,-4 -1,-1 2,-4 -1,-8 3,-3 h 5 l 1,-2 3,-1 4,-4 -1,-2 2,-1 -3,-7 4,-7 -1,-3 2,-1 h -1 v -2 l 2,-3 1,-3 -1,-2 2,1 3,-3 2,2 h 2 l 2,-3 4,73 v 1 l -1,7 1,2 4.6,4 -0.3,5 3.8,2 -0.2,2 -3.3,7 -3.1,-1 -3.5,1 -1,3 h -3 l -1,3 -2,-1 -1,2 -37,-1 -2,-2 z"
     clip-path="none"
     style="fill:#313131;fill-opacity:1;stroke:#505050;stroke-width:0.42183;stroke-linecap:butt;stroke-linejoin:round;stroke-opacity:0.2862"
     id="path54-2-3-3-7-2"
     sodipodi:nodetypes="ccccccccccccccccccccccccccccccccccccccccccccccccccccccccc" /><path
     d="m 147.2,622.2 3,-3 4,4 -4,5 v -4 z"
     clip-path="none"
     style="fill:#313131;fill-opacity:1;stroke:#505050;stroke-width:0.42183;stroke-linecap:butt;stroke-linejoin:round;stroke-opacity:0.2862"
     id="path58-5-3-6-4-0"
     sodipodi:nodetypes="cccccc" /><path
     d="m 197.2,592.2 3,-6 3,-3 7,-1 v -4 l 10,-7 3,-1 -7,-8 -1,-2 -3,-1 v -5 l -4,-1 v -2 l 1,-3 h -1 v -3 l 3,-2 v -2 l 2,-1 -3,-5 5,-4 h -1 l 4,-4 3,-6 3,-1 25,15 -4,12 -2,2 -3,1 -3,6 2,2 2,-1 5,2 -1,-3 1,2 v 6 l -3,23 -5,8 -3,2 v 3 l -9,8 -5,11 -3,2 -3,1 3,-10 -5,-1 v -2 l -4,2 -3,-5 h -1 l -6,-6 -2,-1 1,-4 z"
     clip-path="none"
     style="fill:#313131;fill-opacity:1;stroke:#505050;stroke-width:0.42183;stroke-linecap:butt;stroke-linejoin:round;stroke-opacity:0.2862"
     id="path59-5-73-7-1-0"
     sodipodi:nodetypes="cccccccccccccccccccccccccccccccccccccccccccccccccccccc" /><path
     d="m 188.7,588.2 4,-4 5.92,-0.85 1.98,1.51 -5.9,8.34 1,2 -1,4 6,9 v 8 l 3,3 1,3 4,6 2,-1 2,15 h -21 z"
     clip-path="none"
     style="fill:#313131;fill-opacity:1;stroke:#505050;stroke-width:0.42183;stroke-linecap:butt;stroke-linejoin:round;stroke-opacity:0.2862"
     id="path285-1-5-2-1-6"
     sodipodi:nodetypes="cccccccccccccccc" /><path
     d="m 313.2,522.2 1,-2 -1,-3 h 2 v -25 h 13 v 5 h 1 v 4 l 4,4 -1,2 v 1 l -1,-2 -1,1 1,-2 -3,-3 1,2 -1,3 -2,-1 1,1 v 3 h -1 l 1,5 -2,4 h -2 z"
     clip-path="none"
     style="fill:#313131;fill-opacity:1;stroke:#505050;stroke-width:0.42183;stroke-linecap:butt;stroke-linejoin:round;stroke-opacity:0.2862"
     id="path289-3-2-6-6-3"
     sodipodi:nodetypes="cccccccccccccccccccccccccc" /><path
     d="m 328.2,515.2 h 2 l -1,-2 2,-5 h 2 l 1,-2 2,1 v 7 l -2,1 -1,-7 -1,1 v 6 z"
     clip-path="none"
     style="fill:#313131;fill-opacity:1;stroke:#505050;stroke-width:0.42183;stroke-linecap:butt;stroke-linejoin:round;stroke-opacity:0.2862"
     id="path290-3-6-6-2-9"
     sodipodi:nodetypes="ccccccccccccc" /><path
     d="m 254.2,530.2 8,-4 -2,-4 2,-32 21,1 v 2 l 1,-1 1,-1 30,1 v 25 h -2 l 1,3 -1,1 -3,-1 -5,2 -2,-1 -1,2 h -4 l -1,-1 1,1 -1,1 -9,-1 -2,1 -1,-1 -5,1 v -2 l -3,4 -3,1 v 1 h -3 l -2,2 h -4 l -5,4 v -1 l -1,2 -1,-1 -2,1 z"
     clip-path="none"
     style="fill:#313131;fill-opacity:1;stroke:#505050;stroke-width:0.42183;stroke-linecap:butt;stroke-linejoin:round;stroke-opacity:0.2862"
     id="path302-6-5-2-0-0"
     sodipodi:nodetypes="cccccccccccccccccccccccccccccccccccccc" /><path
     d="m 60.26,487.2 6,-6 v 11 H 204.2 l 2,3 1,3 h 3 l 3,2 -1,2 1,1 1,5 -1,1 3,5 h 2 v 2 h 5 l 2,3 -4,2 -2,6 -4,4 h 1 l -5,4 2,5 -1,1 v 2 l -3,2 v 2 1 4 l 4,2 v 5 l 3,1 1,2 7,8 -3,1 -10,7 v 3 l -7,2 -2,2 -3,-2 -4,1 -2,1 -2,3 H 60.26 Z"
     clip-path="none"
     style="fill:#313131;fill-opacity:1;stroke:#505050;stroke-width:0.799462;stroke-linecap:butt;stroke-linejoin:round;stroke-opacity:0.29"
     id="path35-2-8"
     sodipodi:nodetypes="ccccccccccccccccccccccccccccccccccccccccccccc" /><path
     d="m 336.2,354.2 -1,-353.5899 59.1,-0.1999 2.2,262.8898 4.1,1 -0.2,8 4.7,3 5.8,-3 h 3.3 l 1.1,-2 h 6.3 l 0.5,-3 h 4 l 8.8,7 2.3,4 3,1 0.2,47.9 1,1 -1.6,1 1.5,3 -1.6,1 0.7,3 -1.1,1 2.8,2 -0.2,-1 h 0.8 l 2,3 6.8,1 0.4,4 h -2.7 l 2.7,5 -2.2,4 2.6,5 1.9,1 1.5,-1 0.5,-1 3.9,1 2.1,4 -0.4,1 3.8,5 0.1,5 1,-1 -3.8,3 -3.8,5 -2.6,-1 0.8,2 -2.5,-2 0.6,-2 -2.8,1 1.1,2 -1.4,2 -0.7,-2 -1,2 -1.5,-2 h -1.2 l -0.6,4 h -3.9 l -0.8,2 h -0.9 l -0.4,-2 h -0.6 l -0.3,1 -0.7,-1 -1.4,-1 -1.6,7 -0.5,-3 -0.7,3 -1,-3 h -1.8 l 2.2,3 h -2.1 l -0.8,3 -2,-3 -0.3,-3 -1.2,-1 0.2,1 h -1.3 0.5 l -1,-2 -0.4,2 -1.2,-1 -1,1 0.4,1 h -2.3 l -0.4,1 h 0.9 2.9 l 2.2,3 -1.7,3 h -2.7 l 0.8,1 -1.4,2 -3,-4 1,-3 1.4,-1 -1.2,-1 -1.2,1 0.1,-4 h -1.4 l 0.3,5 -0.6,-3 -0.6,1 -2,1 0.5,2 -0.6,2 1.5,2 h -1.1 l 1,1 -6.9,-4 -2.7,1 0.1,-4 1.4,-4 -0.8,-1 -1,2 h 0.8 l -2.1,2 -1.4,-1 -2.4,1 1.5,4 -3.5,5 0.2,2 -0.6,-1 -0.9,5 1.9,-1 -2.7,3 0.1,2 -1.2,-1 -1.6,3 -1.9,1 0.2,-2 h -0.5 -1.1 l -0.2,-1 -1.6,2 1.4,-2 h -1.2 l 0.2,-1 -2.1,2 -0.3,-1 -2,6 -1.3,-2 -0.3,2 -1.3,1 v -2 l -0.9,1 -0.5,-1 -0.5,3 -1.1,-2 0.4,-4 -1.4,6 -3.7,4 -1.1,-4 -2.6,1 -1.5,2 0.3,-1 h -1.6 l 2.9,-5 h -1.3 l -1,1 1.2,-1 h -1 l -1.6,2 -0.3,-1 -3.6,3 -0.7,3 -1.2,1 1.8,4 -5.2,2 -0.7,2 1.6,1 -3,3 0.4,1 -4.4,2 -1.2,3 0.1,3 -3.6,5 -3.9,-3 0.6,-4 -6.8,-7 1,-7 -1,-10 z"
     clip-path="none"
     style="fill:#313131;fill-opacity:1;stroke:#313131;stroke-width:0.421916;stroke-linecap:butt;stroke-linejoin:round;stroke-opacity:1"
     id="path78-7-6-8-3"
     sodipodi:nodetypes="cccccccccccccccccccccccccccccccccccccccccccccccccccccccccccccccccccccccccccccccccccccccccccccccccccccccccccccccccccccccccccccccccccccccccccccccccccccccccccccccccccccccccccccccccccccc" /></svg>
