<?xml version="1.0" encoding="UTF-8" standalone="no"?>
<svg
   width="1183pt"
   height="665.1pt"
   viewBox="0 0 1183 665.1"
   version="1.1"
   id="svg480"
   xml:space="preserve"
   xmlns="http://www.w3.org/2000/svg"
   xmlns:svg="http://www.w3.org/2000/svg"
   xmlns:rdf="http://www.w3.org/1999/02/22-rdf-syntax-ns#"
   xmlns:cc="http://creativecommons.org/ns#"
   xmlns:dc="http://purl.org/dc/elements/1.1/"><metadata
     id="metadata1"><rdf:RDF><cc:Work><dc:type
           rdf:resource="http://purl.org/dc/dcmitype/StillImage" /><dc:date>2025-09-25T09:01:30.953355</dc:date><dc:format>image/svg+xml</dc:format><dc:creator><cc:Agent><dc:title>Matplotlib v3.10.6, https://matplotlib.org/</dc:title></cc:Agent></dc:creator></cc:Work></rdf:RDF></metadata><defs
     id="defs1"><style
       type="text/css"
       id="style1">*{stroke-linejoin: round; stroke-linecap: butt}</style><clipPath
       id="p12f52910fc-6-5-7"><rect
         x="7.2"
         y="7.2"
         width="842.4"
         height="840.2"
         id="rect480-7-3-52" /></clipPath><clipPath
       id="p79a06f174f"><rect
         x="7.2"
         y="7.2"
         width="842.4"
         height="793.3"
         id="rect481" /></clipPath></defs><defs
     id="defs480" /><rect
     style="opacity:0;fill:#b2b2b2;fill-opacity:1;stroke:none;stroke-width:1.72307;stroke-linecap:butt;stroke-linejoin:round;stroke-miterlimit:0;paint-order:stroke markers fill"
     id="rect479-8"
     width="1183"
     height="665.1"
     x="-1183"
     y="1.319e-05"
     transform="scale(-1,1)" /><path
     d="m 419.3,475.3 14.5,-52.8 117.8,3.9 2.9,-3.6 3.9,0.4 0.9,-5.7 6.1,0.2 2,-4.3 7.6,-2.2 5.1,1.2 2.5,14.5 5.1,2.8 3.6,-2.9 2.3,4.2 -3.7,4.6 -1.4,-2 -2,2.8 -9.8,2.2 -0.7,2.9 2.7,-0.9 0.3,2.3 -5.9,2.6 1.8,3.4 -3.3,-2.4 -1.8,3.1 2.2,5.1 -1.2,-2.1 -1.5,0.1 -2.5,5.2 2.6,-1.4 -1.4,2.7 4,0.5 v 2.6 l 2.2,-1.9 2.3,1.8 -1.6,-2.5 1.6,0.2 -0.5,-1.5 -2.2,-0.4 2,-0.7 2.3,3.4 5.1,1.1 10.1,20 -2.5,0.9 1.5,-1.4 -2.2,-2.8 -3.5,3.7 3.7,4 -0.2,-2.6 1.6,3.1 5.1,1.3 -0.1,8.9 7.6,5.7 9.2,2.5 15,-7 0.5,-6.9 -2.7,-3.4 -1.4,3.6 -1.6,-11.9 -3.6,-2.3 -2.1,3.4 -3.3,-3.5 3.4,-1.5 6.4,2.2 6.8,11.4 2.4,16.3 -4.5,13.4 2,-8.4 -2.7,-2.1 -10.8,1.9 -4.2,3.1 -0.9,-2 H 608 l -8,6.4 -10.3,3.2 -1.8,-1.2 2.7,-3.4 -0.7,-5.4 1.7,-1.3 -2.2,-2 2.3,-2.1 -3,1.3 1,-2 -3.7,-1.6 0.2,4.8 -2,-1.7 -1,4.4 -3.3,-1 1.2,2 -3.5,0.4 0.4,3.4 -1.2,-3.7 -2.4,0.7 0.7,2.2 -1.7,-1.7 0.1,5.9 -6.6,4.7 -1.9,-2.2 -3,0.9 -0.7,-13 -3.8,-1.2 -8.6,-9.9 0.1,-8 -2.6,0.4 v -10 l -82.1,-1.4 -0.7,2.6 -3,0.5 0.2,-3.2 -40.8,-1 z"
     clip-path="url(#p12f52910fc-6-5-7)"
     style="fill:#313131;fill-opacity:1;stroke:#505050;stroke-width:0.80227;stroke-linecap:butt;stroke-linejoin:round;stroke-opacity:0.2862"
     id="path2-3-6-59"
     transform="matrix(0.526,0,0,0.526,-9,239.1)" /><path
     d="m 578.9,534.4 3.8,-0.2 4.4,-6.8 5.8,-3.8 6.1,7.7 2.9,-2.8 0.4,1.9 -0.3,3.8 -15.4,0.6 -4,3.3 z"
     clip-path="url(#p12f52910fc-6-5-7)"
     style="fill:#313131;fill-opacity:1;stroke:#505050;stroke-width:0.80227;stroke-linecap:butt;stroke-linejoin:round;stroke-opacity:0.2862"
     id="path3-5-8-2"
     transform="matrix(0.526,0,0,0.526,-9,239.1)" /><path
     d="m 615,539.3 10.3,-1.8 2.2,-4.2 -1.4,-2.5 1.7,1.8 3.6,8.4 -8.4,1.9 z"
     clip-path="url(#p12f52910fc-6-5-7)"
     style="fill:#313131;fill-opacity:1;stroke:#505050;stroke-width:0.80227;stroke-linecap:butt;stroke-linejoin:round;stroke-opacity:0.2862"
     id="path4-6-7-6"
     transform="matrix(0.526,0,0,0.526,-9,239.1)" /><path
     d="m 45.49,460.6 18.44,-11.3 5.92,-6.7 12.3,-4.7 6.09,-11 11.55,-7.4 -3.9,-13.1 -6.05,-3.8 1.23,-4.9 -4.49,-1.8 1.92,-5.2 -1.68,-9.5 34.98,-9 43.3,2.7 13.2,8.5 8.9,-3.3 26.2,0.4 9.9,-3.2 22.1,-16.8 7.5,0.6 4.9,-3.7 -0.2,-15.5 -1.3,-5.5 -3.7,-2.7 5,-3.6 -1.4,3 2.2,0.7 4.3,-3.5 -0.4,-3.8 4.5,-3.2 -8.4,1.4 4.7,-5 -2.8,-0.2 0.8,-2.5 -3.4,0.6 0.6,-1.8 -4.2,3.1 -0.4,2 4.7,-0.8 -4.8,5.3 -0.9,-7.9 -3.9,-1 1,-1.4 -1.6,-1 3.5,-7.9 6.3,-1.2 2.5,-2 0.2,-3.3 14.9,-7 5.5,-5.1 3.2,-6.7 28.9,-26.7 17.4,-10.2 9.9,-3.1 5.7,2 83,-1.6 0.2,7.5 -2.5,5.8 2.9,4.5 -3.5,13.6 5.8,14.2 -2.4,6.1 1.3,7.9 -4.7,6 -2.8,11.7 3.8,13.5 -1.1,4.4 2.5,3.9 -4.8,14.7 2.1,1.6 1.4,-4.5 4,-0.3 3.8,7.5 -2.9,58.6 1.5,4.5 -14.5,52.8 1.1,6.9 -3.7,56.3 4.1,6.6 -14.6,9 4.3,9.7 -5.2,4.2 -2.9,4.7 0.6,2.4 -1.9,-1.6 -0.2,2.2 3.4,4.9 0.4,-5.5 2.8,1.8 -1.5,-4 4.9,3 0.9,-5.9 6.7,-1.3 -1.2,3.3 2.8,-1.4 1.5,2.3 -0.9,-6.4 4.1,3.3 3.7,-0.7 -3.2,-0.2 0.9,-3.2 9.8,4 4.8,-1.8 -0.7,-3.2 2.5,-0.8 28.9,-0.3 21.3,-14.1 2.8,-0.2 -3.8,3.8 -1.9,-1.5 0.6,3.5 3.4,3.7 6.4,-0.8 3,4.8 8.3,-4 0.5,-2.5 5.9,0.2 -32.2,16.3 -39.4,16.1 -31,7 -12,-1 -9.9,3.8 0.5,-2.6 -4.8,0.1 -1.8,-4 2.7,-6.1 -1.7,-0.7 0.7,-3.8 7.1,-19.2 -47.9,-28.8 -2.5,-5.9 -9.3,-0.6 -1.1,-3 -4.3,-0.4 -5.4,-10 1.8,-1 -0.6,-10.7 -3,-1.8 1.9,-3.1 -5.9,-4.7 -5.3,0.7 -1.2,-6 -4.8,-4.9 H 45.53 Z"
     clip-path="url(#p12f52910fc-6-5-7)"
     style="fill:#313131;fill-opacity:1;stroke:#505050;stroke-width:0.80227;stroke-linecap:butt;stroke-linejoin:round;stroke-opacity:0.2862"
     id="path35-6-9-85"
     transform="matrix(0.526,0,0,0.526,-9,239.1)" /><path
     d="m 374.6,601.5 4,-10.7 2.2,0.3 3.9,-0.8 1,0.6 1,3 -3.5,4.5 z"
     clip-path="url(#p12f52910fc-6-5-7)"
     style="fill:#313131;fill-opacity:1;stroke:#505050;stroke-width:0.80227;stroke-linecap:butt;stroke-linejoin:round;stroke-opacity:0.2862"
     id="path36-1-0-2"
     transform="matrix(0.526,0,0,0.526,-9,239.1)" /><path
     d="m 423.5,318.6 2.8,-11.7 4.7,-6 -1.3,-7.9 2.4,-5.8 -5.8,-14.5 3.5,-13.6 -2.9,-4.5 2.5,-5.8 -0.2,-7.5 112.3,-0.2 -4.3,1.5 2.4,7.2 -8.1,12.2 5.8,13.1 -3.7,2.2 1.1,4.7 -7.3,6.9 -5.6,1.3 -1.3,3.6 -13,2.7 -2.1,4 2.2,15.3 -5.1,6.8 1.5,2.3 -5.6,8.2 -1.2,7.4 -5.7,5.1 -1.7,8.5 -3,2.1 -2.2,15.8 1.2,5.1 -3.7,13.2 1.5,2.3 -2.1,5.4 1.4,3.7 -5.3,4.1 -1.4,7 2.4,8.1 3.4,3.1 -48.8,-1.5 2,-63.1 -3.8,-7.5 -4,0.3 -1.4,4.5 -2.1,-1.5 4.8,-14.8 -2.5,-3.9 1.1,-4.4 z"
     clip-path="url(#p12f52910fc-6-5-7)"
     style="fill:#313131;fill-opacity:1;stroke:#505050;stroke-width:0.80227;stroke-linecap:butt;stroke-linejoin:round;stroke-opacity:0.2862"
     id="path53-3-3-8"
     transform="matrix(0.526,0,0,0.526,-9,239.1)" /><path
     d="m 476.1,413.9 1.5,-8.1 5.3,-4.1 -1.4,-3.7 2.1,-5.4 -1.5,-2.3 3.7,-13.2 -1.2,-5.1 2.2,-15.8 3,-2.1 1.7,-8.5 5.7,-5.1 1.2,-7.4 5.6,-8.2 -1.5,-2.3 5.1,-6.8 -2.1,-15.8 5.1,-4.8 9.9,-1.4 1.3,-3.6 5.6,-1.3 7.3,-6.9 -1.1,-4.7 3.7,-2.2 -5.8,-13.1 8.1,-12.2 -2.7,-6.4 4.6,-2.3 h -2.2 l -0.3,-3 4.6,-5.8 1.8,-6.4 -2.7,-2.8 3.5,0.4 6,-5.5 3.2,4.2 5,0.8 3.8,-5.3 6.7,138.8 1.3,1.6 -2.2,12.9 1.2,3.7 8.9,8.4 -0.6,8.7 7.3,4.3 -0.4,2.6 -6.3,13.7 -5.8,-1.2 -6.9,2.2 -2,4.3 -6.1,-0.2 -0.9,5.7 -3.9,-0.4 -2.9,3.6 -69.6,-2.4 -3.4,-3.1 z"
     clip-path="url(#p12f52910fc-6-5-7)"
     style="fill:#313131;fill-opacity:1;stroke:#505050;stroke-width:0.80227;stroke-linecap:butt;stroke-linejoin:round;stroke-opacity:0.2862"
     id="path54-2-3-3"
     transform="matrix(0.526,0,0,0.526,-9,239.1)" /><path
     d="m 203.4,727.4 4.7,-4.8 7.9,8.1 -7.7,8.1 -0.1,-6.3 z"
     clip-path="url(#p12f52910fc-6-5-7)"
     style="fill:#313131;fill-opacity:1;stroke:#505050;stroke-width:0.80227;stroke-linecap:butt;stroke-linejoin:round;stroke-opacity:0.2862"
     id="path58-5-3-6"
     transform="matrix(0.526,0,0,0.526,-9,239.1)" /><path
     d="m 296.7,671.8 6.5,-11.6 5.7,-5.2 12.6,-3.6 1,-6.1 18.2,-13.3 6,-1.8 -13,-15.1 -1.7,-4.9 -5.4,-1.5 -0.6,-9.9 -6.8,-2 -1.1,-4 1.5,-4.7 -1.7,-1.3 0.5,-4.8 5.2,-3.1 0.8,-4.5 2.7,-1.5 -4.8,-10 9.7,-7.8 -1.4,-0.3 6.6,-7.1 5.2,-11.2 6,-2.9 47.8,28.8 -7.8,23 -4.1,4.9 -5.7,0.4 -5,12.4 4,3.9 4.3,-1.4 8,3.6 -0.3,-5.7 1.4,3.2 0.2,11.5 -6.9,43.3 -8.8,16.3 -5,3.7 -0.2,5.5 -17.1,15.6 -10.7,20.2 -4.3,4.1 -6.1,0.6 4.8,-18 -8.5,-2.9 -0.1,-2.5 -7.2,2.9 -6,-8.9 -2.2,0.7 -10.6,-11.7 -4.2,-1.8 1.5,-9.3 z"
     clip-path="url(#p12f52910fc-6-5-7)"
     style="fill:#313131;fill-opacity:1;stroke:#505050;stroke-width:0.80227;stroke-linecap:butt;stroke-linejoin:round;stroke-opacity:0.2862"
     id="path59-5-73-7"
     transform="matrix(0.526,0,0,0.526,-9,239.1)" /><path
     d="m 62.54,664.5 220.46,-0.1 5.7,101 38.5,0.7 -0.3,2.9 -11.3,31 -22.8,2.6 -1.9,3.3 -5.4,-2.7 -8.3,6 0.8,-9.6 1.7,0.4 4.2,-4 -6.3,0.1 5.4,-5.6 -8.2,-0.4 -1,3.1 -1,-2 1,-4 6.9,-2.4 -2.1,-1.2 3.6,-1.7 -4.5,-0.1 -0.9,2.2 -1.7,-3 4.2,-8.1 -3.7,1.8 -1.7,7.7 -1.8,1.1 -2.8,-6.1 3.6,-3 -3.2,-2.4 -0.4,3.5 -2.7,2.3 2.1,1.9 -1.8,2.5 1.5,2.6 -2.5,-3 -1.5,0.1 -0.5,-0.7 1.9,-0.6 -1.8,-2.6 -2.6,2.4 1.1,-2.9 -3.9,-0.7 2.2,-0.8 -3.9,-5.4 0.3,6.8 3.6,1.5 -1.2,1.9 3.2,2.2 -2.3,-0.3 -3.7,-5.3 -6.4,-13.8 6.8,-4 -3.5,-0.1 -1.6,-3.1 2.3,-1.1 -1.1,-3.2 4.4,1.5 2.5,-1.7 0.5,2.7 8.1,2.2 -3.4,-4.5 -3.8,-1.1 -1.8,-4.5 -2.2,0.9 -1.5,-2.5 2,-2.1 -1.2,-1.7 -2.8,4.1 -2.5,-3.2 -1.6,6.3 0.4,-8.2 4.7,-7.1 2.3,6 2.5,2.6 1.2,-1.4 -2.7,-2.5 -0.6,-11.4 -2.3,-1.7 -0.1,3.7 -1.2,-1.7 -1.4,3.1 -2.4,-1.2 0.2,4.3 -2.3,2.3 0.4,-8.3 3.4,-7.9 2.9,5 5.6,-1.9 -1.3,-3.7 2.4,-3.8 -3.5,0.6 0.1,5.8 -1.8,-0.4 -2.6,-11.8 3.3,-7.7 3.1,-2.3 -0.1,-3.3 1.7,0.3 1.8,-3.5 7.5,-0.6 -3.3,-1.2 4.5,-5.5 -2.8,0.8 3.8,-11.2 -3.4,4.4 -5.4,0.1 -1.9,4 4,3.1 -9.9,7.9 -1.6,-1.4 1.7,-4.7 -1,-2.8 -2.7,7.3 1.8,2.5 -1.5,3.1 -2.5,-4.6 1,-2.3 -3,-0.7 1.7,6.4 -4.8,0.2 1.6,2.8 -3.2,1.9 2.3,1.3 -2.7,3.3 -8.6,-5.2 5.1,8.4 4.2,1.9 -0.5,6.3 2.7,3.3 -5.2,2.8 1.2,5.6 -2.9,-1 1.2,2.6 -2.9,3.1 2.9,0.8 -4.2,6.1 2,3 1.2,17.6 7.5,9.5 -2.4,5.4 -3.3,0.4 6,1.1 -1.4,3.2 4.7,9.7 -1.2,1.5 1.1,6.5 -5.9,-5.4 -1.1,-4.4 -1.8,0.6 -0.2,4 -7.3,-9 -8.2,-2.4 -2.8,1.4 -2.9,-9.5 -2.5,0.7 1.6,6.7 -4.9,-2.8 -5.5,-12.5 -11.4,6.9 -2.6,-1.9 -1.4,-7.9 2.2,-5.6 7.6,-6 -1.3,-3.7 5.1,-3.3 0.4,-6.1 7.8,-8.2 -7.9,-8.1 -4.7,4.8 -7.4,-3.8 -0.1,-3.4 -2.8,-1.8 -10.1,-2.2 -3.9,-5.7 4,-6.6 -6.4,-6.2 -11.5,-2.5 1.1,-5.2 -3.7,-2.8 2.2,-4.7 -4.8,-0.2 1.2,-2.5 -2.2,1.2 -1.6,-3.3 3.2,-0.8 -0.1,-3.2 -6.2,-1 -0.3,2.7 -13.7,-8.9 -5.3,6.1 -9.9,-0.3 2.1,3.1 -3.7,-0.2 2.3,3.2 -2.5,-0.3 -0.5,2.7 -5.8,-0.2 -11.6,-5 -1,-1.8 2.6,-0.9 -2.7,-0.5 0.7,-2.1 -3.6,4.8 0.6,2.1 -4.59,3.1 -3.79,6.6 -5.4,-3.4 -3.35,0.6 -3.52,7 -5.64,2.5 -2.02,4.6 -3.34,0.5 -7.6,7.3 z"
     clip-path="url(#p12f52910fc-6-5-7)"
     style="fill:#313131;fill-opacity:1;stroke:#505050;stroke-width:0.80227;stroke-linecap:butt;stroke-linejoin:round;stroke-opacity:0.2862"
     id="path60-4-2-8"
     transform="matrix(0.526,0,0,0.526,-9,239.1)" /><path
     d="m 288,354.1 2,-1 v -1 h 2 l 2,5 h 1 l 1,-3 v -4 l 1,-1 5,2 v -2 l -3,-4 5,-6 5,-3 v -3 l 5,-4 v -2 l -2,-1 1,-1 -1,-1 1,-2 -1,-1 2,-1 v -2 l -1,-2 3,-6 4,-3 2,-11 13,-17 V -1.122e-5 h 59 L 393,280.1 l -1,47 1,1 -2,1 2,3 -2,1 1,3 -1,1 2,2 v -1 h 1 l 2,3 7,1 v 4 h -2 l 2,5 -2,4 3,5 2,1 1,-1 v -1 l 4,1 3,4 -1,1 4,5 v 5 l 1,-1 -4,3 -4,5 -2,-1 1,2 -3,-2 1,-2 -3,1 1,2 -1,2 -1,-2 -1,2 -2,-2 h -1 v 4 h -4 l -1,2 h -1 v -2 h -1 v 1 l -1,-1 -1,-1 -2,7 -1,-3 v 3 l -1,-3 h -2 l 2,3 h -2 l -1,3 -2,-3 v -3 l -1,-1 v 1 h -1 v 0 l -1,-2 v 2 l -1,-1 -1,1 v 1 h -2 l -1,1 h 1 3 l 2,3 -1,3 h -3 l 1,1 -2,2 -3,-4 1,-3 2,-1 -2,-1 -1,1 v -4 h -1 v 5 -3 l -1,1 -2,1 1,2 -1,2 1,2 h -1 l 1,1 -6,-4 -3,1 v -4 l 1,-4 -1,-1 v 2 0 l -2,2 -1,-1 -3,1 2,4 -4,5 1,2 -1,-1 -1,5 2,-1 -3,3 v 2 l -1,-1 -1,3 -2,1 v -2 h -1 -1 v -1 l -2,2 2,-2 h -1 v -1 l -2,2 v -1 l -3,6 -1,-2 v 2 l -1,1 v -2 l -1,1 -1,-1 v 3 l -1,-2 v -4 l -1,6 -4,4 -1,-4 -3,1 -1,2 v -1 h -2 l 3,-5 h -1 l -1,1 1,-1 h -1 l -1,2 -1,-1 -3,3 -1,3 -1,1 2,4 -6,2 v 2 l 1,1 -3,3 1,1 -5,2 -1,3 v 3 l -3,5 -4,-3 v -4 l -6,-6 2,-8 -1,-1 z"
     clip-path="none"
     style="fill:#313131;fill-opacity:1;stroke:none;stroke-width:0.421972;stroke-linecap:butt;stroke-linejoin:round;stroke-opacity:0.2862"
     id="path78-7-6-7" /><path
     d="m 283,664.4 7.5,-7.9 7.4,-1.4 6.9,2.5 -11.3,14.9 3,4.7 -1.8,7.6 11.2,16.7 0.2,15.3 5,6.3 0.9,6 8.6,9.9 4,-1.1 2.6,28.2 -38.5,-0.7 z"
     clip-path="url(#p12f52910fc-6-5-7)"
     style="fill:#313131;fill-opacity:1;stroke:#505050;stroke-width:0.80227;stroke-linecap:butt;stroke-linejoin:round;stroke-opacity:0.2862"
     id="path285-1-5-2"
     transform="matrix(0.526,0,0,0.526,-9,239.1)" /><path
     d="m 517.7,537.3 1.9,-2.5 -0.7,-5.4 2.6,-0.6 -0.1,-47.3 25,-0.8 v 10 l 2.6,-0.4 -0.1,8 6.9,7 -0.8,3.6 -1.5,1.8 -1.3,-3.1 -1,2.6 0.6,-4.2 -5.9,-6.5 2,5.3 -1.3,4 -4.2,-1.6 2.4,1.9 0.3,5.9 -2.6,0.5 1.7,8.9 -3.7,8.9 -4.2,-1.1 z"
     clip-path="url(#p12f52910fc-6-5-7)"
     style="fill:#313131;fill-opacity:1;stroke:#505050;stroke-width:0.80227;stroke-linecap:butt;stroke-linejoin:round;stroke-opacity:0.2862"
     id="path289-3-2-6"
     transform="matrix(0.526,0,0,0.526,-9,239.1)" /><path
     d="m 547.6,525 2.7,-1 -0.9,-3.3 3.6,-8.5 3.6,-1.2 0.9,-2.8 3.8,1.2 0.7,13 -4.4,3.3 -1.3,-13.6 -1.5,0.5 v 11.6 z"
     clip-path="url(#p12f52910fc-6-5-7)"
     style="fill:#313131;fill-opacity:1;stroke:#505050;stroke-width:0.80227;stroke-linecap:butt;stroke-linejoin:round;stroke-opacity:0.2862"
     id="path290-3-6-6"
     transform="matrix(0.526,0,0,0.526,-9,239.1)" /><path
     d="m 406.2,554.1 14.6,-9 -4.1,-6.6 3.8,-60.3 40.3,1 -0.2,3.2 3,-0.5 0.7,-2.6 57.1,1 0.1,48.5 -2.6,0.6 0.7,5.4 -1.6,1.7 -5.3,-1.4 -9.9,3.1 -4.4,-2 -1.2,3.2 -6.7,0.5 -2,-2.7 0.5,3.5 -1.5,0.4 -17.8,-0.5 -2.7,2 -2.8,-1.8 -8.3,1.9 -1,-4.3 -6.1,7.4 -4,0.9 -1.3,3.4 -4.5,-1.3 -5,3.9 -6.3,0.9 -9.6,7.3 -0.4,-1.3 -2.1,2.4 -2,-1 -3.2,2.4 z"
     clip-path="url(#p12f52910fc-6-5-7)"
     style="fill:#313131;fill-opacity:1;stroke:#505050;stroke-width:0.80227;stroke-linecap:butt;stroke-linejoin:round;stroke-opacity:0.2862"
     id="path302-6-5-2"
     transform="matrix(0.526,0,0,0.526,-9,239.1)" /><path
     d="m 77.88,446.6 10.36,-11.3 v 20.4 H 336.7 l 4.5,4.6 1.1,5.6 5.1,-0.5 5.5,4.3 -1.8,3 2.9,1.6 0.5,10.2 -1.7,0.9 5.1,9.5 4,0.4 1.1,2.7 8.7,0.7 2.8,5 -5.9,3.3 -5,10.5 -6.1,6.7 1.3,0.4 -9.2,7.3 4.5,9.4 -2.5,1.4 -0.7,4.3 -5,2.9 -0.4,4.6 1.5,1.2 -0.9,7.6 7,2.5 0.6,9.3 5.1,1.5 1.6,4.6 12.1,14.5 -5.5,1.4 -17.2,12.6 -0.9,5.7 -11.2,2.9 -4.1,3.4 -5.9,-2.6 -6.5,0.5 -4.7,2.8 -3.2,5.3 -235.44,0.1 z"
     clip-path="url(#p79a06f174f)"
     style="fill:#313131;fill-opacity:1;stroke:#505050;stroke-width:1.43791;stroke-linecap:butt;stroke-linejoin:round;stroke-opacity:0.29"
     id="path35"
     transform="matrix(0.5562,0,0,0.5562,-34,239.1)" /></svg>
