<?xml version="1.0" encoding="UTF-8" standalone="no"?>
<svg
   width="1183pt"
   height="1169pt"
   viewBox="0 0 1183 1169"
   version="1.1"
   id="svg480"
   xml:space="preserve"
   xmlns="http://www.w3.org/2000/svg"
   xmlns:svg="http://www.w3.org/2000/svg"
   xmlns:rdf="http://www.w3.org/1999/02/22-rdf-syntax-ns#"
   xmlns:cc="http://creativecommons.org/ns#"
   xmlns:dc="http://purl.org/dc/elements/1.1/"><metadata
     id="metadata1"><rdf:RDF><cc:Work><dc:type
           rdf:resource="http://purl.org/dc/dcmitype/StillImage" /><dc:date>2025-09-25T09:01:30.953355</dc:date><dc:format>image/svg+xml</dc:format><dc:creator><cc:Agent><dc:title>Matplotlib v3.10.6, https://matplotlib.org/</dc:title></cc:Agent></dc:creator></cc:Work></rdf:RDF></metadata><defs
     id="defs1"><style
       type="text/css"
       id="style1">*{stroke-linejoin: round; stroke-linecap: butt}</style><clipPath
       id="p12f52910fc-61-8-3-4"><rect
         x="7.2"
         y="7.2"
         width="842.4"
         height="840.2"
         id="rect480-2-1-6-3" /></clipPath></defs><defs
     id="defs480" /><rect
     style="opacity:0;fill:#b2b2b2;fill-opacity:1;stroke:none;stroke-width:1.72191;stroke-linecap:butt;stroke-linejoin:round;stroke-miterlimit:0;paint-order:stroke markers fill"
     id="rect479-8-3-2"
     width="1183"
     height="1169"
     x="-1183"
     y="0"
     transform="scale(-1,1)" /><g
     id="power-plants"><path
       d="m 503.4,533.4 c 1.4,0 2.8,-0.6 3.8,-1.6 1,-1 1.6,-2.4 1.6,-3.9 0,-1.4 -0.6,-2.8 -1.6,-3.8 -1,-1.1 -2.4,-1.6 -3.8,-1.6 -1.5,0 -2.9,0.5 -3.9,1.6 -1,1 -1.6,2.4 -1.6,3.8 0,1.5 0.6,2.9 1.6,3.9 1,1 2.4,1.6 3.9,1.6 z"
       clip-path="url(#p12f52910fc-61-8-3-4)"
       style="fill:#ffff00;fill-opacity:0.7967;stroke-width:1.00284;stroke-linecap:butt;stroke-linejoin:round"
       id="path313-9-0-7-0"
       transform="matrix(0.526,0,0,0.526,38,241)" /><path
       d="m 316.1,763.8 c 2.3,0 4.4,-0.9 6,-2.5 1.6,-1.6 2.5,-3.7 2.5,-6 0,-2.2 -0.9,-4.4 -2.5,-6 -1.6,-1.6 -3.7,-2.5 -6,-2.5 -2.2,0 -4.4,0.9 -6,2.5 -1.6,1.6 -2.5,3.8 -2.5,6 0,2.3 0.9,4.4 2.5,6 1.6,1.6 3.8,2.5 6,2.5 z"
       clip-path="url(#p12f52910fc-61-8-3-4)"
       style="fill:#ffff00;fill-opacity:0.7967;stroke-width:1.00284;stroke-linecap:butt;stroke-linejoin:round"
       id="path318-0-1-4-5"
       transform="matrix(0.526,0,0,0.526,38,241)" /><path
       d="m 238.2,731.6 c 6.4,0 12.5,-2.5 17,-7 4.5,-4.5 7.1,-10.6 7.1,-17 0,-6.4 -2.6,-12.5 -7.1,-17 -4.5,-4.5 -10.6,-7 -17,-7 -6.3,0 -12.4,2.5 -16.9,7 -4.5,4.5 -7.1,10.6 -7.1,17 0,6.4 2.6,12.5 7.1,17 4.5,4.5 10.6,7 16.9,7 z"
       clip-path="url(#p12f52910fc-61-8-3-4)"
       style="fill:#ffff00;fill-opacity:0.7967;stroke-width:1.00284;stroke-linecap:butt;stroke-linejoin:round"
       id="path319-4-7-03-1"
       transform="matrix(0.526,0,0,0.526,38,241)" /><path
       d="m 619.6,347.8 c 1.5,0 3,-0.6 4,-1.7 1.1,-1 1.7,-2.5 1.7,-4 0,-1.5 -0.6,-2.9 -1.7,-4 -1,-1.1 -2.5,-1.7 -4,-1.7 -1.5,0 -2.9,0.6 -4,1.7 -1,1.1 -1.6,2.5 -1.6,4 0,1.5 0.6,3 1.6,4 1.1,1.1 2.5,1.7 4,1.7 z"
       clip-path="url(#p12f52910fc-61-8-3-4)"
       style="fill:#ffff00;fill-opacity:0.7967;stroke-width:1.00284;stroke-linecap:butt;stroke-linejoin:round"
       id="path320-8-8-1-6"
       transform="matrix(0.526,0,0,0.526,38,241)" /><path
       d="m 281.1,768.4 c 1.4,0 2.7,-0.5 3.7,-1.5 1,-1 1.5,-2.4 1.5,-3.8 0,-1.4 -0.5,-2.7 -1.5,-3.7 -1,-1 -2.3,-1.5 -3.7,-1.5 -1.4,0 -2.8,0.5 -3.8,1.5 -0.9,1 -1.5,2.3 -1.5,3.7 0,1.4 0.6,2.8 1.5,3.8 1,1 2.4,1.5 3.8,1.5 z"
       clip-path="url(#p12f52910fc-61-8-3-4)"
       style="fill:#ffff00;fill-opacity:0.7967;stroke-width:1.00284;stroke-linecap:butt;stroke-linejoin:round"
       id="path323-8-16-79-2"
       transform="matrix(0.526,0,0,0.526,38,241)" /><path
       d="m 229.3,771.2 c 3.4,0 6.6,-1.4 8.9,-3.7 2.4,-2.4 3.7,-5.6 3.7,-8.9 0,-3.3 -1.3,-6.5 -3.7,-8.8 -2.3,-2.4 -5.5,-3.7 -8.9,-3.7 -3.3,0 -6.5,1.3 -8.8,3.7 -2.4,2.3 -3.7,5.5 -3.7,8.8 0,3.3 1.3,6.5 3.7,8.9 2.3,2.3 5.5,3.7 8.8,3.7 z"
       clip-path="url(#p12f52910fc-61-8-3-4)"
       style="fill:#ffff00;fill-opacity:0.7967;stroke-width:1.00284;stroke-linecap:butt;stroke-linejoin:round"
       id="path324-6-4-8-2"
       transform="matrix(0.526,0,0,0.526,38,241)" /><path
       d="m 182.8,712.3 c 1.9,0 3.6,-0.7 4.9,-2 1.3,-1.3 2,-3.1 2,-4.9 0,-1.8 -0.7,-3.6 -2,-4.9 -1.3,-1.3 -3,-2 -4.9,-2 -1.8,0 -3.6,0.7 -4.9,2 -1.2,1.3 -2,3.1 -2,4.9 0,1.8 0.8,3.6 2,4.9 1.3,1.3 3.1,2 4.9,2 z"
       clip-path="url(#p12f52910fc-61-8-3-4)"
       style="fill:#ffff00;fill-opacity:0.7967;stroke-width:1.00284;stroke-linecap:butt;stroke-linejoin:round"
       id="path325-2-3-1-2"
       transform="matrix(0.526,0,0,0.526,38,241)" /><path
       d="m 564.5,467.5 c 3.8,0 7.4,-1.6 10.1,-4.2 2.7,-2.7 4.2,-6.4 4.2,-10.2 0,-3.8 -1.5,-7.5 -4.2,-10.1 -2.7,-2.7 -6.3,-4.3 -10.1,-4.3 -3.8,0 -7.5,1.6 -10.2,4.3 -2.7,2.6 -4.2,6.3 -4.2,10.1 0,3.8 1.5,7.5 4.2,10.2 2.7,2.6 6.4,4.2 10.2,4.2 z"
       clip-path="url(#p12f52910fc-61-8-3-4)"
       style="fill:#ffff00;fill-opacity:0.7967;stroke-width:1.00284;stroke-linecap:butt;stroke-linejoin:round"
       id="path328-9-73-6-6"
       transform="matrix(0.526,0,0,0.526,38,241)" /><path
       d="m 598.5,509 c 2.2,0 4.4,-0.9 5.9,-2.5 1.6,-1.5 2.5,-3.7 2.5,-5.9 0,-2.2 -0.9,-4.3 -2.5,-5.9 -1.5,-1.6 -3.7,-2.4 -5.9,-2.4 -2.2,0 -4.3,0.8 -5.9,2.4 -1.5,1.6 -2.4,3.7 -2.4,5.9 0,2.2 0.9,4.4 2.4,5.9 1.6,1.6 3.7,2.5 5.9,2.5 z"
       clip-path="url(#p12f52910fc-61-8-3-4)"
       style="fill:#ffff00;fill-opacity:0.7967;stroke-width:1.00284;stroke-linecap:butt;stroke-linejoin:round"
       id="path329-2-3-0-1"
       transform="matrix(0.526,0,0,0.526,38,241)" /><path
       d="m 541.2,400.7 c 2.6,0 5.1,-1 6.9,-2.9 1.9,-1.8 2.9,-4.3 2.9,-6.9 0,-2.6 -1,-5.1 -2.9,-7 -1.8,-1.8 -4.3,-2.9 -6.9,-2.9 -2.6,0 -5.1,1.1 -7,2.9 -1.8,1.9 -2.9,4.4 -2.9,7 0,2.6 1.1,5.1 2.9,6.9 1.9,1.9 4.4,2.9 7,2.9 z"
       clip-path="url(#p12f52910fc-61-8-3-4)"
       style="fill:#ffff00;fill-opacity:0.7967;stroke-width:1.00284;stroke-linecap:butt;stroke-linejoin:round"
       id="path333-7-5-5-2"
       transform="matrix(0.526,0,0,0.526,38,241)" /><path
       d="m 582.1,399.3 c 1.3,0 2.6,-0.5 3.6,-1.4 0.9,-1 1.4,-2.2 1.4,-3.6 0,-1.3 -0.5,-2.6 -1.4,-3.5 -1,-0.9 -2.3,-1.5 -3.6,-1.5 -1.3,0 -2.6,0.6 -3.5,1.5 -1,0.9 -1.5,2.2 -1.5,3.5 0,1.4 0.5,2.6 1.5,3.6 0.9,0.9 2.2,1.4 3.5,1.4 z"
       clip-path="url(#p12f52910fc-61-8-3-4)"
       style="fill:#ffff00;fill-opacity:0.7967;stroke-width:1.00284;stroke-linecap:butt;stroke-linejoin:round"
       id="path334-8-70-1-3"
       transform="matrix(0.526,0,0,0.526,38,241)" /><path
       d="m 320.3,602.7 c 1.6,0 3.1,-0.6 4.1,-1.7 1.1,-1.1 1.7,-2.6 1.7,-4.1 0,-1.5 -0.6,-3 -1.7,-4.1 -1,-1.1 -2.5,-1.7 -4.1,-1.7 -1.5,0 -3,0.6 -4.1,1.7 -1.1,1.1 -1.7,2.6 -1.7,4.1 0,1.5 0.6,3 1.7,4.1 1.1,1.1 2.6,1.7 4.1,1.7 z"
       clip-path="url(#p12f52910fc-61-8-3-4)"
       style="fill:#ffff00;fill-opacity:0.7967;stroke-width:1.00284;stroke-linecap:butt;stroke-linejoin:round"
       id="path336-1-89-7-0"
       transform="matrix(0.526,0,0,0.526,38,241)" /><path
       d="m 337.4,641.6 c 1.4,0 2.9,-0.6 3.9,-1.6 1,-1.1 1.6,-2.5 1.6,-4 0,-1.4 -0.6,-2.9 -1.6,-3.9 -1,-1.1 -2.5,-1.6 -3.9,-1.6 -1.5,0 -3,0.5 -4,1.6 -1,1 -1.6,2.5 -1.6,3.9 0,1.5 0.6,2.9 1.6,4 1,1 2.5,1.6 4,1.6 z"
       clip-path="url(#p12f52910fc-61-8-3-4)"
       style="fill:#ffff00;fill-opacity:0.7967;stroke-width:1.00284;stroke-linecap:butt;stroke-linejoin:round"
       id="path338-4-3-3-4"
       transform="matrix(0.526,0,0,0.526,38,241)" /><path
       d="m 328.1,688.9 c 1.5,0 3,-0.6 4.1,-1.7 1.1,-1.1 1.7,-2.6 1.7,-4.1 0,-1.6 -0.6,-3.1 -1.7,-4.2 -1.1,-1.1 -2.6,-1.7 -4.1,-1.7 -1.6,0 -3.1,0.6 -4.2,1.7 -1.1,1.1 -1.7,2.6 -1.7,4.2 0,1.5 0.6,3 1.7,4.1 1.1,1.1 2.6,1.7 4.2,1.7 z"
       clip-path="url(#p12f52910fc-61-8-3-4)"
       style="fill:#ffff00;fill-opacity:0.7967;stroke-width:1.00284;stroke-linecap:butt;stroke-linejoin:round"
       id="path342-7-4-6-8"
       transform="matrix(0.526,0,0,0.526,38,241)" /><path
       d="m 392,521.6 c 1.4,0 2.8,-0.6 3.7,-1.6 1,-1 1.6,-2.3 1.6,-3.7 0,-1.4 -0.6,-2.7 -1.6,-3.7 -0.9,-1 -2.3,-1.6 -3.7,-1.6 -1.4,0 -2.7,0.6 -3.7,1.6 -1,1 -1.5,2.3 -1.5,3.7 0,1.4 0.5,2.7 1.5,3.7 1,1 2.3,1.6 3.7,1.6 z"
       clip-path="url(#p12f52910fc-61-8-3-4)"
       style="fill:#ffff00;fill-opacity:0.7967;stroke-width:1.00284;stroke-linecap:butt;stroke-linejoin:round"
       id="path343-4-5-8-7"
       transform="matrix(0.526,0,0,0.526,38,241)" /><path
       d="m 429.2,590.9 c 6,0 11.8,-2.4 16,-6.6 4.3,-4.3 6.7,-10 6.7,-16 0,-6 -2.4,-11.8 -6.7,-16 -4.2,-4.3 -10,-6.7 -16,-6.7 -6,0 -11.8,2.4 -16,6.7 -4.2,4.2 -6.6,10 -6.6,16 0,6 2.4,11.7 6.6,16 4.2,4.2 10,6.6 16,6.6 z"
       clip-path="url(#p12f52910fc-61-8-3-4)"
       style="fill:#ffff00;fill-opacity:0.7967;stroke-width:1.00284;stroke-linecap:butt;stroke-linejoin:round"
       id="path352-8-9-2-4"
       transform="matrix(0.526,0,0,0.526,38,241)" /><path
       d="m 213.7,438.4 c 2.8,0 5.4,-1.1 7.4,-3.1 2,-2 3.1,-4.7 3.1,-7.4 0,-2.8 -1.1,-5.5 -3.1,-7.5 -2,-1.9 -4.6,-3.1 -7.4,-3.1 -2.8,0 -5.5,1.2 -7.5,3.1 -1.9,2 -3,4.7 -3,7.5 0,2.7 1.1,5.4 3,7.4 2,2 4.7,3.1 7.5,3.1 z"
       clip-path="url(#p12f52910fc-61-8-3-4)"
       style="fill:#ffff00;fill-opacity:0.7967;stroke-width:1.00284;stroke-linecap:butt;stroke-linejoin:round"
       id="path355-9-6-6-9"
       transform="matrix(0.526,0,0,0.526,38,241)" /><path
       d="m 404,456.7 c 5.9,0 11.5,-2.3 15.6,-6.5 4.2,-4.1 6.5,-9.7 6.5,-15.6 0,-5.8 -2.3,-11.4 -6.5,-15.6 -4.1,-4.1 -9.7,-6.4 -15.6,-6.4 -5.8,0 -11.4,2.3 -15.6,6.4 -4.1,4.2 -6.4,9.8 -6.4,15.6 0,5.9 2.3,11.5 6.4,15.6 4.2,4.2 9.8,6.5 15.6,6.5 z"
       clip-path="url(#p12f52910fc-61-8-3-4)"
       style="fill:#ffff00;fill-opacity:0.7967;stroke-width:1.00284;stroke-linecap:butt;stroke-linejoin:round"
       id="path356-7-5-0-8"
       transform="matrix(0.526,0,0,0.526,38,241)" /><path
       d="m 380,557 c 1.4,0 2.6,-0.5 3.6,-1.4 0.9,-1 1.4,-2.3 1.4,-3.6 0,-1.3 -0.5,-2.6 -1.4,-3.5 -1,-1 -2.2,-1.5 -3.6,-1.5 -1.3,0 -2.6,0.5 -3.5,1.5 -1,0.9 -1.5,2.2 -1.5,3.5 0,1.3 0.5,2.6 1.5,3.6 0.9,0.9 2.2,1.4 3.5,1.4 z"
       clip-path="url(#p12f52910fc-61-8-3-4)"
       style="fill:#ffff00;fill-opacity:0.7967;stroke-width:1.00284;stroke-linecap:butt;stroke-linejoin:round"
       id="path359-53-8-09-5"
       transform="matrix(0.526,0,0,0.526,38,241)" /><path
       d="m 364.9,533 c 1.3,0 2.6,-0.6 3.5,-1.5 1,-1 1.5,-2.2 1.5,-3.6 0,-1.3 -0.5,-2.6 -1.5,-3.5 -0.9,-0.9 -2.2,-1.5 -3.5,-1.5 -1.3,0 -2.6,0.6 -3.6,1.5 -0.9,0.9 -1.4,2.2 -1.4,3.5 0,1.4 0.5,2.6 1.4,3.6 1,0.9 2.3,1.5 3.6,1.5 z"
       clip-path="url(#p12f52910fc-61-8-3-4)"
       style="fill:#ffff00;fill-opacity:0.7967;stroke-width:1.00284;stroke-linecap:butt;stroke-linejoin:round"
       id="path360-4-67-4-7"
       transform="matrix(0.526,0,0,0.526,38,241)" /><path
       d="m 76.22,480.1 c 1.43,0 2.8,-0.6 3.81,-1.6 1.01,-1 1.58,-2.4 1.58,-3.8 0,-1.4 -0.57,-2.8 -1.58,-3.8 -1.01,-1 -2.38,-1.6 -3.81,-1.6 -1.42,0 -2.79,0.6 -3.8,1.6 -1.01,1 -1.58,2.4 -1.58,3.8 0,1.4 0.57,2.8 1.58,3.8 1.01,1 2.38,1.6 3.8,1.6 z"
       clip-path="url(#p12f52910fc-61-8-3-4)"
       style="fill:#ffff00;fill-opacity:0.7967;stroke-width:1.00284;stroke-linecap:butt;stroke-linejoin:round"
       id="path362-0-6-4-7"
       transform="matrix(0.526,0,0,0.526,38,241)" /><path
       d="m 545.1,509.8 c 3.4,0 6.7,-1.3 9.2,-3.8 2.4,-2.4 3.8,-5.7 3.8,-9.2 0,-3.4 -1.4,-6.7 -3.8,-9.2 -2.5,-2.4 -5.8,-3.8 -9.2,-3.8 -3.5,0 -6.8,1.4 -9.2,3.8 -2.5,2.5 -3.8,5.8 -3.8,9.2 0,3.5 1.3,6.8 3.8,9.2 2.4,2.5 5.7,3.8 9.2,3.8 z"
       clip-path="url(#p12f52910fc-61-8-3-4)"
       style="fill:#ffff00;fill-opacity:0.7967;stroke-width:1.00284;stroke-linecap:butt;stroke-linejoin:round"
       id="path363-2-0-6-4"
       transform="matrix(0.526,0,0,0.526,38,241)" /><path
       d="m 473.4,307.1 c 1.4,0 2.6,-0.5 3.6,-1.5 0.9,-0.9 1.5,-2.2 1.5,-3.5 0,-1.3 -0.6,-2.6 -1.5,-3.6 -1,-0.9 -2.2,-1.4 -3.6,-1.4 -1.3,0 -2.6,0.5 -3.5,1.4 -1,1 -1.5,2.3 -1.5,3.6 0,1.3 0.5,2.6 1.5,3.5 0.9,1 2.2,1.5 3.5,1.5 z"
       clip-path="url(#p12f52910fc-61-8-3-4)"
       style="fill:#ffff00;fill-opacity:0.7967;stroke-width:1.00284;stroke-linecap:butt;stroke-linejoin:round"
       id="path364-0-2-6-4"
       transform="matrix(0.526,0,0,0.526,38,241)" /><path
       d="m 436.3,288.7 c 1.3,0 2.6,-0.6 3.5,-1.5 1,-0.9 1.5,-2.2 1.5,-3.5 0,-1.4 -0.5,-2.6 -1.5,-3.6 -0.9,-0.9 -2.2,-1.5 -3.5,-1.5 -1.3,0 -2.6,0.6 -3.6,1.5 -0.9,1 -1.4,2.2 -1.4,3.6 0,1.3 0.5,2.6 1.4,3.5 1,0.9 2.3,1.5 3.6,1.5 z"
       clip-path="url(#p12f52910fc-61-8-3-4)"
       style="fill:#ffff00;fill-opacity:0.7967;stroke-width:1.00284;stroke-linecap:butt;stroke-linejoin:round"
       id="path365-1-6-3-0"
       transform="matrix(0.526,0,0,0.526,38,241)" /><path
       d="m 299.8,677.3 c 3.9,0 7.6,-1.5 10.4,-4.3 2.7,-2.7 4.2,-6.4 4.2,-10.3 0,-3.9 -1.5,-7.6 -4.2,-10.4 -2.8,-2.7 -6.5,-4.3 -10.4,-4.3 -3.9,0 -7.6,1.6 -10.3,4.3 -2.8,2.8 -4.3,6.5 -4.3,10.4 0,3.9 1.5,7.6 4.3,10.3 2.7,2.8 6.4,4.3 10.3,4.3 z"
       clip-path="url(#p12f52910fc-61-8-3-4)"
       style="fill:#ffff00;fill-opacity:0.7967;stroke-width:1.00284;stroke-linecap:butt;stroke-linejoin:round"
       id="path372-3-4-99-3"
       transform="matrix(0.526,0,0,0.526,38,241)" /><path
       d="m 260.8,671.5 c 1.8,0 3.6,-0.7 4.9,-2 1.3,-1.3 2,-3 2,-4.9 0,-1.8 -0.7,-3.5 -2,-4.8 -1.3,-1.3 -3.1,-2 -4.9,-2 -1.8,0 -3.6,0.7 -4.9,2 -1.3,1.3 -2,3 -2,4.8 0,1.9 0.7,3.6 2,4.9 1.3,1.3 3.1,2 4.9,2 z"
       clip-path="url(#p12f52910fc-61-8-3-4)"
       style="fill:#ffff00;fill-opacity:0.7967;stroke-width:1.00284;stroke-linecap:butt;stroke-linejoin:round"
       id="path376-0-5-5-6"
       transform="matrix(0.526,0,0,0.526,38,241)" /><path
       d="m 581.7,400.2 c 1.6,0 3.1,-0.7 4.3,-1.8 1.1,-1.1 1.7,-2.6 1.7,-4.2 0,-1.6 -0.6,-3.1 -1.7,-4.3 -1.2,-1.1 -2.7,-1.7 -4.3,-1.7 -1.6,0 -3.1,0.6 -4.2,1.7 -1.1,1.2 -1.8,2.7 -1.8,4.3 0,1.6 0.7,3.1 1.8,4.2 1.1,1.1 2.6,1.8 4.2,1.8 z"
       clip-path="url(#p12f52910fc-61-8-3-4)"
       style="fill:#ffff00;fill-opacity:0.7967;stroke-width:1.00284;stroke-linecap:butt;stroke-linejoin:round"
       id="path385-48-6-3-0"
       transform="matrix(0.526,0,0,0.526,38,241)" /><path
       d="m 292.9,328.5 c 1.4,0 2.6,-0.6 3.6,-1.5 0.9,-1 1.5,-2.2 1.5,-3.6 0,-1.3 -0.6,-2.6 -1.5,-3.5 -1,-1 -2.2,-1.5 -3.6,-1.5 -1.3,0 -2.6,0.5 -3.5,1.5 -1,0.9 -1.5,2.2 -1.5,3.5 0,1.4 0.5,2.6 1.5,3.6 0.9,0.9 2.2,1.5 3.5,1.5 z"
       clip-path="url(#p12f52910fc-61-8-3-4)"
       style="fill:#ffff00;fill-opacity:0.7967;stroke-width:1.00284;stroke-linecap:butt;stroke-linejoin:round"
       id="path397-6-2-1-4"
       transform="matrix(0.526,0,0,0.526,38,241)" /><path
       d="m 256.9,402 c 1.4,0 2.7,-0.5 3.7,-1.5 1,-1 1.5,-2.3 1.5,-3.7 0,-1.3 -0.5,-2.7 -1.5,-3.6 -1,-1 -2.3,-1.5 -3.7,-1.5 -1.3,0 -2.7,0.5 -3.6,1.5 -1,0.9 -1.5,2.3 -1.5,3.6 0,1.4 0.5,2.7 1.5,3.7 0.9,1 2.3,1.5 3.6,1.5 z"
       clip-path="url(#p12f52910fc-61-8-3-4)"
       style="fill:#ffff00;fill-opacity:0.7967;stroke-width:1.00284;stroke-linecap:butt;stroke-linejoin:round"
       id="path398-0-5-03-6"
       transform="matrix(0.526,0,0,0.526,38,241)" /><path
       d="m 436.6,451 c 1.4,0 2.8,-0.6 3.8,-1.6 1,-1 1.6,-2.3 1.6,-3.7 0,-1.5 -0.6,-2.8 -1.6,-3.8 -1,-1 -2.4,-1.6 -3.8,-1.6 -1.4,0 -2.7,0.6 -3.7,1.6 -1,1 -1.6,2.3 -1.6,3.8 0,1.4 0.6,2.7 1.6,3.7 1,1 2.3,1.6 3.7,1.6 z"
       clip-path="url(#p12f52910fc-61-8-3-4)"
       style="fill:#ffff00;fill-opacity:0.7967;stroke-width:1.00284;stroke-linecap:butt;stroke-linejoin:round"
       id="path403-1-7-42-9"
       transform="matrix(0.526,0,0,0.526,38,241)" /><path
       d="m 377,617.5 c 6.9,0 13.4,-2.8 18.3,-7.6 4.8,-4.9 7.6,-11.4 7.6,-18.3 0,-6.9 -2.8,-13.4 -7.6,-18.3 -4.9,-4.8 -11.4,-7.6 -18.3,-7.6 -6.8,0 -13.4,2.8 -18.3,7.6 -4.8,4.9 -7.5,11.4 -7.5,18.3 0,6.9 2.7,13.4 7.5,18.3 4.9,4.8 11.5,7.6 18.3,7.6 z"
       clip-path="url(#p12f52910fc-61-8-3-4)"
       style="fill:#ffff00;fill-opacity:0.7967;stroke-width:1.00284;stroke-linecap:butt;stroke-linejoin:round"
       id="path404-3-7-4-5"
       transform="matrix(0.526,0,0,0.526,38,241)" /><path
       d="m 401.1,390.4 c 2.2,0 4.3,-0.9 5.8,-2.4 1.5,-1.6 2.4,-3.7 2.4,-5.8 0,-2.2 -0.9,-4.3 -2.4,-5.8 -1.5,-1.6 -3.6,-2.4 -5.8,-2.4 -2.2,0 -4.2,0.8 -5.8,2.4 -1.5,1.5 -2.4,3.6 -2.4,5.8 0,2.1 0.9,4.2 2.4,5.8 1.6,1.5 3.6,2.4 5.8,2.4 z"
       clip-path="url(#p12f52910fc-61-8-3-4)"
       style="fill:#ffff00;fill-opacity:0.7967;stroke-width:1.00284;stroke-linecap:butt;stroke-linejoin:round"
       id="path410-5-9-8-5"
       transform="matrix(0.526,0,0,0.526,38,241)" /><path
       d="m 320.6,658.8 c 1.8,0 3.4,-0.7 4.7,-2 1.2,-1.2 1.9,-2.9 1.9,-4.6 0,-1.7 -0.7,-3.4 -1.9,-4.6 -1.3,-1.3 -2.9,-2 -4.7,-2 -1.7,0 -3.4,0.7 -4.6,2 -1.3,1.2 -2,2.9 -2,4.6 0,1.7 0.7,3.4 2,4.6 1.2,1.3 2.9,2 4.6,2 z"
       clip-path="url(#p12f52910fc-61-8-3-4)"
       style="fill:#ffff00;fill-opacity:0.7967;stroke-width:1.00284;stroke-linecap:butt;stroke-linejoin:round"
       id="path412-0-1-6-3"
       transform="matrix(0.526,0,0,0.526,38,241)" /><path
       d="m 294.2,400.8 c 1.3,0 2.6,-0.6 3.6,-1.5 0.9,-0.9 1.4,-2.2 1.4,-3.6 0,-1.3 -0.5,-2.6 -1.4,-3.5 -1,-1 -2.3,-1.5 -3.6,-1.5 -1.3,0 -2.6,0.5 -3.6,1.5 -0.9,0.9 -1.4,2.2 -1.4,3.5 0,1.4 0.5,2.7 1.4,3.6 1,0.9 2.3,1.5 3.6,1.5 z"
       clip-path="url(#p12f52910fc-61-8-3-4)"
       style="fill:#ffff00;fill-opacity:0.7967;stroke-width:1.00284;stroke-linecap:butt;stroke-linejoin:round"
       id="path413-2-3-3-9"
       transform="matrix(0.526,0,0,0.526,38,241)" /><path
       d="m 529.2,493.4 c 3.2,0 6.3,-1.3 8.5,-3.5 2.3,-2.3 3.6,-5.3 3.6,-8.5 0,-3.2 -1.3,-6.3 -3.6,-8.5 -2.2,-2.3 -5.3,-3.5 -8.5,-3.5 -3.1,0 -6.2,1.2 -8.5,3.5 -2.2,2.2 -3.5,5.3 -3.5,8.5 0,3.2 1.3,6.2 3.5,8.5 2.3,2.2 5.4,3.5 8.5,3.5 z"
       clip-path="url(#p12f52910fc-61-8-3-4)"
       style="fill:#ffff00;fill-opacity:0.7967;stroke-width:1.00284;stroke-linecap:butt;stroke-linejoin:round"
       id="path415-0-8-3-6"
       transform="matrix(0.526,0,0,0.526,38,241)" /><path
       d="m 106.3,396 c 1.8,0 3.5,-0.7 4.8,-2 1.3,-1.2 2,-3 2,-4.8 0,-1.8 -0.7,-3.5 -2,-4.8 -1.3,-1.3 -3,-2 -4.8,-2 -1.8,0 -3.6,0.7 -4.8,2 -1.3,1.3 -2.03,3 -2.03,4.8 0,1.8 0.73,3.6 2.03,4.8 1.2,1.3 3,2 4.8,2 z"
       clip-path="url(#p12f52910fc-61-8-3-4)"
       style="fill:#ffff00;fill-opacity:0.7967;stroke-width:1.00284;stroke-linecap:butt;stroke-linejoin:round"
       id="path419-1-2-1-6"
       transform="matrix(0.526,0,0,0.526,38,241)" /><path
       d="m 243.4,386.3 c 6.3,0 12.3,-2.5 16.7,-7 4.5,-4.4 7,-10.4 7,-16.7 0,-6.3 -2.5,-12.3 -7,-16.8 -4.4,-4.4 -10.4,-6.9 -16.7,-6.9 -6.3,0 -12.3,2.5 -16.8,6.9 -4.4,4.5 -6.9,10.5 -6.9,16.8 0,6.3 2.5,12.3 6.9,16.7 4.5,4.5 10.5,7 16.8,7 z"
       clip-path="url(#p12f52910fc-61-8-3-4)"
       style="fill:#ffff00;fill-opacity:0.7967;stroke-width:1.00284;stroke-linecap:butt;stroke-linejoin:round"
       id="path425-6-5-9-7"
       transform="matrix(0.526,0,0,0.526,38,241)" /><path
       d="m 422.4,273.3 c 2.2,0 4.3,-0.9 5.8,-2.4 1.5,-1.6 2.4,-3.6 2.4,-5.8 0,-2.1 -0.9,-4.2 -2.4,-5.7 -1.5,-1.6 -3.6,-2.4 -5.8,-2.4 -2.1,0 -4.2,0.8 -5.7,2.4 -1.5,1.5 -2.4,3.6 -2.4,5.7 0,2.2 0.9,4.2 2.4,5.8 1.5,1.5 3.6,2.4 5.7,2.4 z"
       clip-path="url(#p12f52910fc-61-8-3-4)"
       style="fill:#ffff00;fill-opacity:0.7967;stroke-width:1.00284;stroke-linecap:butt;stroke-linejoin:round"
       id="path426-0-74-2-4"
       transform="matrix(0.526,0,0,0.526,38,241)" /><path
       d="m 336.5,251.3 c 1.4,0 2.7,-0.6 3.7,-1.5 0.9,-1 1.5,-2.3 1.5,-3.7 0,-1.3 -0.6,-2.6 -1.5,-3.6 -1,-0.9 -2.3,-1.5 -3.7,-1.5 -1.3,0 -2.6,0.6 -3.6,1.5 -1,1 -1.5,2.3 -1.5,3.6 0,1.4 0.5,2.7 1.5,3.7 1,0.9 2.3,1.5 3.6,1.5 z"
       clip-path="url(#p12f52910fc-61-8-3-4)"
       style="fill:#ffff00;fill-opacity:0.7967;stroke-width:1.00284;stroke-linecap:butt;stroke-linejoin:round"
       id="path427-4-2-8-3"
       transform="matrix(0.526,0,0,0.526,38,241)" /><path
       d="m 141.3,408.6 c 1.3,0 2.6,-0.5 3.6,-1.5 0.9,-0.9 1.4,-2.2 1.4,-3.6 0,-1.3 -0.5,-2.6 -1.4,-3.5 -1,-1 -2.3,-1.5 -3.6,-1.5 -1.3,0 -2.6,0.5 -3.6,1.5 -0.9,0.9 -1.4,2.2 -1.4,3.5 0,1.4 0.5,2.7 1.4,3.6 1,1 2.3,1.5 3.6,1.5 z"
       clip-path="url(#p12f52910fc-61-8-3-4)"
       style="fill:#ffff00;fill-opacity:0.7967;stroke-width:1.00284;stroke-linecap:butt;stroke-linejoin:round"
       id="path428-6-0-1-1"
       transform="matrix(0.526,0,0,0.526,38,241)" /><path
       d="m 471.4,508.9 c 1.7,0 3.4,-0.7 4.6,-2 1.3,-1.2 2,-2.9 2,-4.6 0,-1.7 -0.7,-3.4 -2,-4.6 -1.2,-1.3 -2.9,-2 -4.6,-2 -1.8,0 -3.4,0.7 -4.7,2 -1.2,1.2 -1.9,2.9 -1.9,4.6 0,1.7 0.7,3.4 1.9,4.6 1.3,1.3 2.9,2 4.7,2 z"
       clip-path="url(#p12f52910fc-61-8-3-4)"
       style="fill:#ffff00;fill-opacity:0.7967;stroke-width:1.00284;stroke-linecap:butt;stroke-linejoin:round"
       id="path429-7-0-2-2"
       transform="matrix(0.526,0,0,0.526,38,241)" /><path
       d="m 470.7,487 c 2.3,0 4.5,-0.9 6.1,-2.5 1.6,-1.7 2.6,-3.9 2.6,-6.1 0,-2.3 -1,-4.5 -2.6,-6.1 -1.6,-1.7 -3.8,-2.6 -6.1,-2.6 -2.3,0 -4.5,0.9 -6.1,2.6 -1.6,1.6 -2.5,3.8 -2.5,6.1 0,2.2 0.9,4.4 2.5,6.1 1.6,1.6 3.8,2.5 6.1,2.5 z"
       clip-path="url(#p12f52910fc-61-8-3-4)"
       style="fill:#ffff00;fill-opacity:0.7967;stroke-width:1.00284;stroke-linecap:butt;stroke-linejoin:round"
       id="path435-9-3-7-0"
       transform="matrix(0.526,0,0,0.526,38,241)" /><path
       d="m 559,523.8 c 3.5,0 6.8,-1.4 9.2,-3.8 2.5,-2.5 3.8,-5.8 3.8,-9.2 0,-3.5 -1.3,-6.8 -3.8,-9.2 -2.4,-2.4 -5.7,-3.8 -9.2,-3.8 -3.4,0 -6.7,1.4 -9.2,3.8 -2.4,2.4 -3.8,5.7 -3.8,9.2 0,3.4 1.4,6.7 3.8,9.2 2.5,2.4 5.8,3.8 9.2,3.8 z"
       clip-path="url(#p12f52910fc-61-8-3-4)"
       style="fill:#ffff00;fill-opacity:0.7967;stroke-width:1.00284;stroke-linecap:butt;stroke-linejoin:round"
       id="path437-8-42-2-7"
       transform="matrix(0.526,0,0,0.526,38,241)" /><path
       d="m 706.1,272 c 4.2,0 8.2,-1.7 11.2,-4.6 2.9,-3 4.6,-7 4.6,-11.2 0,-4.1 -1.7,-8.1 -4.6,-11.1 -3,-2.9 -7,-4.6 -11.2,-4.6 -4.1,0 -8.1,1.7 -11.1,4.6 -2.9,3 -4.6,7 -4.6,11.1 0,4.2 1.7,8.2 4.6,11.2 3,2.9 7,4.6 11.1,4.6 z"
       clip-path="url(#p12f52910fc-61-8-3-4)"
       style="fill:#ffff00;fill-opacity:0.7967;stroke-width:1.00284;stroke-linecap:butt;stroke-linejoin:round"
       id="path438-5-4-3-3"
       transform="matrix(0.526,0,0,0.526,38,241)" /><path
       d="m 508.5,481.7 c 2.3,0 4.4,-0.9 6,-2.5 1.6,-1.6 2.5,-3.8 2.5,-6 0,-2.3 -0.9,-4.4 -2.5,-6 -1.6,-1.6 -3.7,-2.5 -6,-2.5 -2.2,0 -4.4,0.9 -5.9,2.5 -1.6,1.6 -2.5,3.7 -2.5,6 0,2.2 0.9,4.4 2.5,6 1.5,1.6 3.7,2.5 5.9,2.5 z"
       clip-path="url(#p12f52910fc-61-8-3-4)"
       style="fill:#ffff00;fill-opacity:0.7967;stroke-width:1.00284;stroke-linecap:butt;stroke-linejoin:round"
       id="path439-3-5-7-7"
       transform="matrix(0.526,0,0,0.526,38,241)" /><path
       d="m 597.8,288.7 c 2.4,0 4.7,-0.9 6.4,-2.6 1.7,-1.7 2.6,-4 2.6,-6.4 0,-2.3 -0.9,-4.6 -2.6,-6.3 -1.7,-1.7 -4,-2.7 -6.4,-2.7 -2.4,0 -4.7,1 -6.4,2.7 -1.7,1.7 -2.6,4 -2.6,6.3 0,2.4 0.9,4.7 2.6,6.4 1.7,1.7 4,2.6 6.4,2.6 z"
       clip-path="url(#p12f52910fc-61-8-3-4)"
       style="fill:#ffff00;fill-opacity:0.7967;stroke-width:1.00284;stroke-linecap:butt;stroke-linejoin:round"
       id="path440-3-3-25-7"
       transform="matrix(0.526,0,0,0.526,38,241)" /><path
       d="m 443.7,563.4 c 5.1,0 10,-2 13.6,-5.6 3.6,-3.6 5.6,-8.5 5.6,-13.6 0,-5.1 -2,-10 -5.6,-13.6 -3.6,-3.6 -8.5,-5.6 -13.6,-5.6 -5.1,0 -10,2 -13.6,5.6 -3.6,3.6 -5.6,8.5 -5.6,13.6 0,5.1 2,10 5.6,13.6 3.6,3.6 8.5,5.6 13.6,5.6 z"
       clip-path="url(#p12f52910fc-61-8-3-4)"
       style="fill:#ffff00;fill-opacity:0.7967;stroke-width:1.00284;stroke-linecap:butt;stroke-linejoin:round"
       id="path442-3-11-7-3"
       transform="matrix(0.526,0,0,0.526,38,241)" /><path
       d="m 515.7,515.2 c 6,0 11.8,-2.4 16.1,-6.6 4.3,-4.3 6.7,-10.1 6.7,-16.2 0,-6.1 -2.4,-11.9 -6.7,-16.1 -4.3,-4.3 -10.1,-6.7 -16.1,-6.7 -6.1,0 -11.9,2.4 -16.2,6.7 -4.3,4.2 -6.7,10 -6.7,16.1 0,6.1 2.4,11.9 6.7,16.2 4.3,4.2 10.1,6.6 16.2,6.6 z"
       clip-path="url(#p12f52910fc-61-8-3-4)"
       style="fill:#ffff00;fill-opacity:0.7967;stroke-width:1.00284;stroke-linecap:butt;stroke-linejoin:round"
       id="path443-7-3-68-2"
       transform="matrix(0.526,0,0,0.526,38,241)" /><path
       d="m 542.1,489.3 c 4.3,0 8.3,-1.7 11.3,-4.7 3,-3 4.7,-7 4.7,-11.3 0,-4.2 -1.7,-8.3 -4.7,-11.3 -3,-3 -7,-4.7 -11.3,-4.7 -4.2,0 -8.3,1.7 -11.3,4.7 -3,3 -4.7,7.1 -4.7,11.3 0,4.3 1.7,8.3 4.7,11.3 3,3 7.1,4.7 11.3,4.7 z"
       clip-path="url(#p12f52910fc-61-8-3-4)"
       style="fill:#ffff00;fill-opacity:0.7967;stroke-width:1.00284;stroke-linecap:butt;stroke-linejoin:round"
       id="path445-3-5-3-7"
       transform="matrix(0.526,0,0,0.526,38,241)" /><path
       d="m 369,623.8 c 4.7,0 9.2,-1.8 12.5,-5.1 3.2,-3.3 5.1,-7.8 5.1,-12.4 0,-4.7 -1.9,-9.1 -5.1,-12.4 -3.3,-3.3 -7.8,-5.2 -12.5,-5.2 -4.6,0 -9.1,1.9 -12.4,5.2 -3.2,3.3 -5.1,7.7 -5.1,12.4 0,4.6 1.9,9.1 5.1,12.4 3.3,3.3 7.8,5.1 12.4,5.1 z"
       clip-path="url(#p12f52910fc-61-8-3-4)"
       style="fill:#ffff00;fill-opacity:0.7967;stroke-width:1.00284;stroke-linecap:butt;stroke-linejoin:round"
       id="path447-8-1-4-2"
       transform="matrix(0.526,0,0,0.526,38,241)" /><path
       d="m 606.6,366.1 c 4.4,0 8.6,-1.8 11.6,-4.9 3.1,-3.1 4.9,-7.3 4.9,-11.6 0,-4.4 -1.8,-8.6 -4.9,-11.7 -3,-3.1 -7.2,-4.8 -11.6,-4.8 -4.4,0 -8.6,1.7 -11.7,4.8 -3.1,3.1 -4.8,7.3 -4.8,11.7 0,4.3 1.7,8.5 4.8,11.6 3.1,3.1 7.3,4.9 11.7,4.9 z"
       clip-path="url(#p12f52910fc-61-8-3-4)"
       style="fill:#ffff00;fill-opacity:0.7967;stroke-width:1.00284;stroke-linecap:butt;stroke-linejoin:round"
       id="path448-7-3-0-0"
       transform="matrix(0.526,0,0,0.526,38,241)" /><path
       d="m 571.2,480.7 c 4.8,0 9.3,-1.9 12.7,-5.3 3.3,-3.3 5.2,-7.9 5.2,-12.6 0,-4.7 -1.9,-9.3 -5.2,-12.6 -3.4,-3.4 -7.9,-5.3 -12.7,-5.3 -4.7,0 -9.2,1.9 -12.6,5.3 -3.3,3.3 -5.2,7.9 -5.2,12.6 0,4.7 1.9,9.3 5.2,12.6 3.4,3.4 7.9,5.3 12.6,5.3 z"
       clip-path="url(#p12f52910fc-61-8-3-4)"
       style="fill:#ffff00;fill-opacity:0.7967;stroke-width:1.00284;stroke-linecap:butt;stroke-linejoin:round"
       id="path449-4-3-3-7"
       transform="matrix(0.526,0,0,0.526,38,241)" /><path
       d="m 396.1,607 c 7.3,0 14.2,-2.9 19.4,-8.1 5.1,-5.1 8,-12.1 8,-19.3 0,-7.3 -2.9,-14.3 -8,-19.4 -5.2,-5.1 -12.1,-8 -19.4,-8 -7.3,0 -14.2,2.9 -19.4,8 -5.1,5.1 -8,12.1 -8,19.4 0,7.2 2.9,14.2 8,19.3 5.2,5.2 12.1,8.1 19.4,8.1 z"
       clip-path="url(#p12f52910fc-61-8-3-4)"
       style="fill:#ffff00;fill-opacity:0.7967;stroke-width:1.00284;stroke-linecap:butt;stroke-linejoin:round"
       id="path450-1-9-5-1"
       transform="matrix(0.526,0,0,0.526,38,241)" /><path
       d="m 398.9,479.5 c 5.1,0 10,-2 13.5,-5.6 3.6,-3.6 5.6,-8.5 5.6,-13.6 0,-5 -2,-9.9 -5.6,-13.5 -3.5,-3.6 -8.4,-5.6 -13.5,-5.6 -5.1,0 -9.9,2 -13.5,5.6 -3.6,3.6 -5.6,8.5 -5.6,13.5 0,5.1 2,10 5.6,13.6 3.6,3.6 8.4,5.6 13.5,5.6 z"
       clip-path="url(#p12f52910fc-61-8-3-4)"
       style="fill:#ffff00;fill-opacity:0.7967;stroke-width:1.00284;stroke-linecap:butt;stroke-linejoin:round"
       id="path451-9-7-8-4"
       transform="matrix(0.526,0,0,0.526,38,241)" /><path
       d="m 379.9,644.1 c 1.9,0 3.6,-0.7 4.9,-2.1 1.4,-1.3 2.1,-3 2.1,-4.9 0,-1.8 -0.7,-3.6 -2.1,-4.9 -1.3,-1.3 -3,-2.1 -4.9,-2.1 -1.8,0 -3.6,0.8 -4.9,2.1 -1.3,1.3 -2.1,3.1 -2.1,4.9 0,1.9 0.8,3.6 2.1,4.9 1.3,1.4 3.1,2.1 4.9,2.1 z"
       clip-path="url(#p12f52910fc-61-8-3-4)"
       style="fill:#ffff00;fill-opacity:0.7967;stroke-width:1.00284;stroke-linecap:butt;stroke-linejoin:round"
       id="path457-4-7-2-8"
       transform="matrix(0.526,0,0,0.526,38,241)" /><path
       d="m 487,559.1 c 1.4,0 2.8,-0.6 3.8,-1.6 1,-1 1.6,-2.4 1.6,-3.8 0,-1.5 -0.6,-2.8 -1.6,-3.9 -1,-1 -2.4,-1.5 -3.8,-1.5 -1.5,0 -2.9,0.5 -3.9,1.5 -1,1.1 -1.6,2.4 -1.6,3.9 0,1.4 0.6,2.8 1.6,3.8 1,1 2.4,1.6 3.9,1.6 z"
       clip-path="url(#p12f52910fc-61-8-3-4)"
       style="fill:#ffff00;fill-opacity:0.7967;stroke-width:1.00284;stroke-linecap:butt;stroke-linejoin:round"
       id="path458-3-2-49-7"
       transform="matrix(0.526,0,0,0.526,38,241)" /><path
       d="m 442.3,545.2 c 5.7,0 11.2,-2.3 15.3,-6.3 4,-4 6.3,-9.5 6.3,-15.2 0,-5.7 -2.3,-11.2 -6.3,-15.3 -4.1,-4 -9.6,-6.3 -15.3,-6.3 -5.7,0 -11.2,2.3 -15.2,6.3 -4.1,4.1 -6.3,9.6 -6.3,15.3 0,5.7 2.2,11.2 6.3,15.2 4,4 9.5,6.3 15.2,6.3 z"
       clip-path="url(#p12f52910fc-61-8-3-4)"
       style="fill:#ffff00;fill-opacity:0.7967;stroke-width:1.00284;stroke-linecap:butt;stroke-linejoin:round"
       id="path460-13-0-1-0"
       transform="matrix(0.526,0,0,0.526,38,241)" /><path
       d="m 453.2,590.4 c 3.6,0 7,-1.5 9.5,-3.9 2.5,-2.5 3.9,-5.9 3.9,-9.5 0,-3.5 -1.4,-6.9 -3.9,-9.4 -2.5,-2.5 -5.9,-3.9 -9.5,-3.9 -3.5,0 -6.9,1.4 -9.4,3.9 -2.5,2.5 -3.9,5.9 -3.9,9.4 0,3.6 1.4,7 3.9,9.5 2.5,2.4 5.9,3.9 9.4,3.9 z"
       clip-path="url(#p12f52910fc-61-8-3-4)"
       style="fill:#ffff00;fill-opacity:0.7967;stroke-width:1.00284;stroke-linecap:butt;stroke-linejoin:round"
       id="path463-9-7-06-7"
       transform="matrix(0.526,0,0,0.526,38,241)" /><path
       d="m 447.2,524.1 c 1.4,0 2.8,-0.6 3.9,-1.6 1,-1 1.6,-2.4 1.6,-3.9 0,-1.4 -0.6,-2.8 -1.6,-3.9 -1.1,-1 -2.5,-1.6 -3.9,-1.6 -1.5,0 -2.9,0.6 -3.9,1.6 -1,1.1 -1.6,2.5 -1.6,3.9 0,1.5 0.6,2.9 1.6,3.9 1,1 2.4,1.6 3.9,1.6 z"
       clip-path="url(#p12f52910fc-61-8-3-4)"
       style="fill:#ffff00;fill-opacity:0.7967;stroke-width:1.00284;stroke-linecap:butt;stroke-linejoin:round"
       id="path465-9-6-9-0"
       transform="matrix(0.526,0,0,0.526,38,241)" /><path
       d="m 217,775.2 c 4.9,0 9.6,-2 13.1,-5.4 3.5,-3.5 5.4,-8.2 5.4,-13.1 0,-4.9 -1.9,-9.6 -5.4,-13.1 -3.5,-3.5 -8.2,-5.4 -13.1,-5.4 -4.9,0 -9.6,1.9 -13,5.4 -3.5,3.5 -5.4,8.2 -5.4,13.1 0,4.9 1.9,9.6 5.4,13.1 3.4,3.4 8.1,5.4 13,5.4 z"
       clip-path="url(#p12f52910fc-61-8-3-4)"
       style="fill:#ffff00;fill-opacity:0.7967;stroke-width:1.00284;stroke-linecap:butt;stroke-linejoin:round"
       id="path467-3-9-8-6"
       transform="matrix(0.526,0,0,0.526,38,241)" /><path
       d="m 363.7,550 c 5.6,0 10.9,-2.2 14.8,-6.1 3.9,-3.9 6.1,-9.2 6.1,-14.7 0,-5.5 -2.2,-10.8 -6.1,-14.7 -3.9,-3.9 -9.2,-6.1 -14.8,-6.1 -5.5,0 -10.8,2.2 -14.7,6.1 -3.9,3.9 -6.1,9.2 -6.1,14.7 0,5.5 2.2,10.8 6.1,14.7 3.9,3.9 9.2,6.1 14.7,6.1 z"
       clip-path="url(#p12f52910fc-61-8-3-4)"
       style="fill:#ffff00;fill-opacity:0.7967;stroke-width:1.00284;stroke-linecap:butt;stroke-linejoin:round"
       id="path468-2-1-3-9"
       transform="matrix(0.526,0,0,0.526,38,241)" /><path
       d="m 414.9,527.5 c 5.2,0 10.1,-2.1 13.7,-5.7 3.7,-3.6 5.7,-8.6 5.7,-13.7 0,-5.2 -2,-10.1 -5.7,-13.7 -3.6,-3.7 -8.5,-5.7 -13.7,-5.7 -5.1,0 -10,2 -13.7,5.7 -3.6,3.6 -5.6,8.5 -5.6,13.7 0,5.1 2,10.1 5.6,13.7 3.7,3.6 8.6,5.7 13.7,5.7 z"
       clip-path="url(#p12f52910fc-61-8-3-4)"
       style="fill:#ffff00;fill-opacity:0.7967;stroke-width:1.00284;stroke-linecap:butt;stroke-linejoin:round"
       id="path471-1-1-3-6"
       transform="matrix(0.526,0,0,0.526,38,241)" /><path
       d="m 300.3,717 c 2.6,0 5.1,-1 6.9,-2.9 1.9,-1.8 2.9,-4.3 2.9,-6.9 0,-2.6 -1,-5.1 -2.9,-6.9 -1.8,-1.9 -4.3,-2.9 -6.9,-2.9 -2.6,0 -5.1,1 -7,2.9 -1.8,1.8 -2.8,4.3 -2.8,6.9 0,2.6 1,5.1 2.8,6.9 1.9,1.9 4.4,2.9 7,2.9 z"
       clip-path="url(#p12f52910fc-61-8-3-4)"
       style="fill:#ffff00;fill-opacity:0.7967;stroke-width:1.00284;stroke-linecap:butt;stroke-linejoin:round"
       id="path472-2-1-10-4"
       transform="matrix(0.526,0,0,0.526,38,241)" /><path
       d="m 576.5,451.4 c 3,0 5.8,-1.2 8,-3.3 2.1,-2.1 3.2,-5 3.2,-8 0,-3 -1.1,-5.8 -3.2,-7.9 -2.2,-2.1 -5,-3.3 -8,-3.3 -3,0 -5.8,1.2 -8,3.3 -2.1,2.1 -3.2,4.9 -3.2,7.9 0,3 1.1,5.9 3.2,8 2.2,2.1 5,3.3 8,3.3 z"
       clip-path="url(#p12f52910fc-61-8-3-4)"
       style="fill:#ffff00;fill-opacity:0.7967;stroke-width:1.00284;stroke-linecap:butt;stroke-linejoin:round"
       id="path479-1-7-1-7"
       transform="matrix(0.526,0,0,0.526,38,241)" /></g></svg>
