<?xml version="1.0" encoding="UTF-8" standalone="no"?>
<svg
   width="1183pt"
   height="665pt"
   viewBox="0 0 1183 665"
   version="1.1"
   id="svg480"
   xml:space="preserve"
   xmlns="http://www.w3.org/2000/svg"
   xmlns:svg="http://www.w3.org/2000/svg"
   xmlns:rdf="http://www.w3.org/1999/02/22-rdf-syntax-ns#"
   xmlns:cc="http://creativecommons.org/ns#"
   xmlns:dc="http://purl.org/dc/elements/1.1/"><metadata
     id="metadata1"><rdf:RDF><cc:Work><dc:type
           rdf:resource="http://purl.org/dc/dcmitype/StillImage" /><dc:date>2025-09-25T09:01:30.953355</dc:date><dc:format>image/svg+xml</dc:format><dc:creator><cc:Agent><dc:title>Matplotlib v3.10.6, https://matplotlib.org/</dc:title></cc:Agent></dc:creator></cc:Work></rdf:RDF></metadata><defs
     id="defs1"><style
       type="text/css"
       id="style1">*{stroke-linejoin: round; stroke-linecap: butt}
    path {
      animation: alpha-cycle 4s ease-in-out infinite;
    }
    @keyframes alpha-cycle {
      0%, 100% {
        fill-opacity: 0.7;
      }
      50% {
        fill-opacity: 0.05;
      }
    }</style><clipPath
       id="p12f52910fc-61-8-7"><rect
         x="7.2"
         y="7.2"
         width="842.4"
         height="840.2"
         id="rect480-2-1-9" /></clipPath></defs><defs
     id="defs480" /><g
     id="g1"
     transform="translate(2917,-1712)"><rect
       style="opacity:0;fill:#b2b2b2;fill-opacity:1;stroke:none;stroke-width:1.72273;stroke-linecap:butt;stroke-linejoin:round;stroke-miterlimit:0;paint-order:stroke markers fill"
       id="rect479-8-2"
       width="1183"
       height="665"
       x="1734"
       y="1712"
       transform="scale(-1,1)" /><g
       id="PathCollection_1-8-9-9"
       transform="matrix(0.5261,0,0,0.5261,-2927,1952)"
       style="fill:#ffff00;fill-opacity:0.6992;stroke-width:1.00284;stroke-linecap:butt;stroke-linejoin:round"><path
         d="m 443.2,550.5 c 1.3,0 2.6,-0.5 3.6,-1.5 0.9,-1 1.5,-2.3 1.5,-3.6 0,-1.4 -0.6,-2.7 -1.5,-3.6 -1,-1 -2.3,-1.5 -3.6,-1.5 -1.4,0 -2.7,0.5 -3.6,1.5 -1,0.9 -1.5,2.2 -1.5,3.6 0,1.3 0.5,2.6 1.5,3.6 0.9,1 2.2,1.5 3.6,1.5 z"
         clip-path="url(#p12f52910fc-61-8-7)"
         style="fill:#ffff00;fill-opacity:0.6992;stroke-width:1.00284;stroke-linecap:butt;stroke-linejoin:round"
         id="path312-7-7-8" /><path
         d="m 503.4,533.4 c 1.4,0 2.8,-0.6 3.8,-1.6 1,-1 1.6,-2.4 1.6,-3.9 0,-1.4 -0.6,-2.8 -1.6,-3.8 -1,-1.1 -2.4,-1.6 -3.8,-1.6 -1.5,0 -2.9,0.5 -3.9,1.6 -1,1 -1.6,2.4 -1.6,3.8 0,1.5 0.6,2.9 1.6,3.9 1,1 2.4,1.6 3.9,1.6 z"
         clip-path="url(#p12f52910fc-61-8-7)"
         style="fill:#ffff00;fill-opacity:0.6992;stroke-width:1.00284;stroke-linecap:butt;stroke-linejoin:round"
         id="path313-9-0-5" /><path
         d="m 474.8,523.6 c 1.6,0 3.1,-0.6 4.2,-1.7 1.1,-1.1 1.7,-2.6 1.7,-4.1 0,-1.6 -0.6,-3.1 -1.7,-4.2 -1.1,-1.1 -2.6,-1.7 -4.2,-1.7 -1.5,0 -3,0.6 -4.1,1.7 -1.1,1.1 -1.7,2.6 -1.7,4.2 0,1.5 0.6,3 1.7,4.1 1.1,1.1 2.6,1.7 4.1,1.7 z"
         clip-path="url(#p12f52910fc-61-8-7)"
         style="fill:#ffff00;fill-opacity:0.6992;stroke-width:1.00284;stroke-linecap:butt;stroke-linejoin:round"
         id="path314-6-3-4" /><path
         d="m 438.7,565.9 c 4.6,0 9,-1.8 12.3,-5.1 3.2,-3.2 5.1,-7.7 5.1,-12.3 0,-4.6 -1.9,-9 -5.1,-12.3 -3.3,-3.3 -7.7,-5.1 -12.3,-5.1 -4.7,0 -9.1,1.8 -12.4,5.1 -3.2,3.3 -5.1,7.7 -5.1,12.3 0,4.6 1.9,9.1 5.1,12.3 3.3,3.3 7.7,5.1 12.4,5.1 z"
         clip-path="url(#p12f52910fc-61-8-7)"
         style="fill:#ffff00;fill-opacity:0.6992;stroke-width:1.00284;stroke-linecap:butt;stroke-linejoin:round"
         id="path315-0-7-7" /><path
         d="m 298,668.8 c 1.4,0 2.6,-0.6 3.6,-1.5 0.9,-0.9 1.4,-2.2 1.4,-3.5 0,-1.4 -0.5,-2.7 -1.4,-3.6 -1,-0.9 -2.2,-1.5 -3.6,-1.5 -1.3,0 -2.6,0.6 -3.5,1.5 -1,0.9 -1.5,2.2 -1.5,3.6 0,1.3 0.5,2.6 1.5,3.5 0.9,0.9 2.2,1.5 3.5,1.5 z"
         clip-path="url(#p12f52910fc-61-8-7)"
         style="fill:#ffff00;fill-opacity:0.6992;stroke-width:1.00284;stroke-linecap:butt;stroke-linejoin:round"
         id="path316-4-23-8" /><path
         d="m 300,671.8 c 2.3,0 4.6,-0.9 6.2,-2.5 1.7,-1.7 2.6,-3.9 2.6,-6.2 0,-2.4 -0.9,-4.6 -2.6,-6.2 -1.6,-1.7 -3.9,-2.6 -6.2,-2.6 -2.3,0 -4.5,0.9 -6.2,2.6 -1.6,1.6 -2.6,3.8 -2.6,6.2 0,2.3 1,4.5 2.6,6.2 1.7,1.6 3.9,2.5 6.2,2.5 z"
         clip-path="url(#p12f52910fc-61-8-7)"
         style="fill:#ffff00;fill-opacity:0.6992;stroke-width:1.00284;stroke-linecap:butt;stroke-linejoin:round"
         id="path317-1-5-6" /><path
         d="m 316.1,763.8 c 2.3,0 4.4,-0.9 6,-2.5 1.6,-1.6 2.5,-3.7 2.5,-6 0,-2.2 -0.9,-4.4 -2.5,-6 -1.6,-1.6 -3.7,-2.5 -6,-2.5 -2.2,0 -4.4,0.9 -6,2.5 -1.6,1.6 -2.5,3.8 -2.5,6 0,2.3 0.9,4.4 2.5,6 1.6,1.6 3.8,2.5 6,2.5 z"
         clip-path="url(#p12f52910fc-61-8-7)"
         style="fill:#ffff00;fill-opacity:0.6992;stroke-width:1.00284;stroke-linecap:butt;stroke-linejoin:round"
         id="path318-0-1-0" /><path
         d="m 238.2,731.6 c 6.4,0 12.5,-2.5 17,-7 4.5,-4.5 7.1,-10.6 7.1,-17 0,-6.4 -2.6,-12.5 -7.1,-17 -4.5,-4.5 -10.6,-7 -17,-7 -6.3,0 -12.4,2.5 -16.9,7 -4.5,4.5 -7.1,10.6 -7.1,17 0,6.4 2.6,12.5 7.1,17 4.5,4.5 10.6,7 16.9,7 z"
         clip-path="url(#p12f52910fc-61-8-7)"
         style="fill:#ffff00;fill-opacity:0.6992;stroke-width:1.00284;stroke-linecap:butt;stroke-linejoin:round"
         id="path319-4-7-0" /><path
         d="m 619.6,347.8 c 1.5,0 3,-0.6 4,-1.7 1.1,-1 1.7,-2.5 1.7,-4 0,-1.5 -0.6,-2.9 -1.7,-4 -1,-1.1 -2.5,-1.7 -4,-1.7 -1.5,0 -2.9,0.6 -4,1.7 -1,1.1 -1.6,2.5 -1.6,4 0,1.5 0.6,3 1.6,4 1.1,1.1 2.5,1.7 4,1.7 z"
         clip-path="url(#p12f52910fc-61-8-7)"
         style="fill:#ffff00;fill-opacity:0.6992;stroke-width:1.00284;stroke-linecap:butt;stroke-linejoin:round"
         id="path320-8-8-6" /><path
         d="m 238.9,715.8 c 2.1,0 4.1,-0.8 5.6,-2.3 1.4,-1.5 2.3,-3.5 2.3,-5.6 0,-2.1 -0.9,-4.1 -2.3,-5.6 -1.5,-1.4 -3.5,-2.3 -5.6,-2.3 -2.1,0 -4.1,0.9 -5.6,2.3 -1.5,1.5 -2.3,3.5 -2.3,5.6 0,2.1 0.8,4.1 2.3,5.6 1.5,1.5 3.5,2.3 5.6,2.3 z"
         clip-path="url(#p12f52910fc-61-8-7)"
         style="fill:#ffff00;fill-opacity:0.6992;stroke-width:1.00284;stroke-linecap:butt;stroke-linejoin:round"
         id="path321-7-9-4" /><path
         d="m 257.1,693.6 c 1.8,0 3.5,-0.7 4.8,-2 1.3,-1.3 2,-3 2,-4.9 0,-1.8 -0.7,-3.5 -2,-4.8 -1.3,-1.3 -3,-2 -4.8,-2 -1.8,0 -3.5,0.7 -4.8,2 -1.3,1.3 -2,3 -2,4.8 0,1.9 0.7,3.6 2,4.9 1.3,1.3 3,2 4.8,2 z"
         clip-path="url(#p12f52910fc-61-8-7)"
         style="fill:#ffff00;fill-opacity:0.6992;stroke-width:1.00284;stroke-linecap:butt;stroke-linejoin:round"
         id="path322-0-4-3" /><path
         d="m 281.1,768.4 c 1.4,0 2.7,-0.5 3.7,-1.5 1,-1 1.5,-2.4 1.5,-3.8 0,-1.4 -0.5,-2.7 -1.5,-3.7 -1,-1 -2.3,-1.5 -3.7,-1.5 -1.4,0 -2.8,0.5 -3.8,1.5 -0.9,1 -1.5,2.3 -1.5,3.7 0,1.4 0.6,2.8 1.5,3.8 1,1 2.4,1.5 3.8,1.5 z"
         clip-path="url(#p12f52910fc-61-8-7)"
         style="fill:#ffff00;fill-opacity:0.6992;stroke-width:1.00284;stroke-linecap:butt;stroke-linejoin:round"
         id="path323-8-16-7" /><path
         d="m 229.3,771.2 c 3.4,0 6.6,-1.4 8.9,-3.7 2.4,-2.4 3.7,-5.6 3.7,-8.9 0,-3.3 -1.3,-6.5 -3.7,-8.8 -2.3,-2.4 -5.5,-3.7 -8.9,-3.7 -3.3,0 -6.5,1.3 -8.8,3.7 -2.4,2.3 -3.7,5.5 -3.7,8.8 0,3.3 1.3,6.5 3.7,8.9 2.3,2.3 5.5,3.7 8.8,3.7 z"
         clip-path="url(#p12f52910fc-61-8-7)"
         style="fill:#ffff00;fill-opacity:0.6992;stroke-width:1.00284;stroke-linecap:butt;stroke-linejoin:round"
         id="path324-6-4-5" /><path
         d="m 182.8,712.3 c 1.9,0 3.6,-0.7 4.9,-2 1.3,-1.3 2,-3.1 2,-4.9 0,-1.8 -0.7,-3.6 -2,-4.9 -1.3,-1.3 -3,-2 -4.9,-2 -1.8,0 -3.6,0.7 -4.9,2 -1.2,1.3 -2,3.1 -2,4.9 0,1.8 0.8,3.6 2,4.9 1.3,1.3 3.1,2 4.9,2 z"
         clip-path="url(#p12f52910fc-61-8-7)"
         style="fill:#ffff00;fill-opacity:0.6992;stroke-width:1.00284;stroke-linecap:butt;stroke-linejoin:round"
         id="path325-2-3-8" /><path
         d="m 212,778.5 c 1.3,0 2.6,-0.5 3.5,-1.5 1,-0.9 1.5,-2.2 1.5,-3.6 0,-1.3 -0.5,-2.6 -1.5,-3.5 -0.9,-1 -2.2,-1.5 -3.5,-1.5 -1.4,0 -2.7,0.5 -3.6,1.5 -0.9,0.9 -1.5,2.2 -1.5,3.5 0,1.4 0.6,2.7 1.5,3.6 0.9,1 2.2,1.5 3.6,1.5 z"
         clip-path="url(#p12f52910fc-61-8-7)"
         style="fill:#ffff00;fill-opacity:0.6992;stroke-width:1.00284;stroke-linecap:butt;stroke-linejoin:round"
         id="path326-47-54-1" /><path
         d="m 542.5,476.1 c 1.4,0 2.7,-0.6 3.6,-1.5 1,-1 1.5,-2.3 1.5,-3.6 0,-1.4 -0.5,-2.7 -1.5,-3.6 -0.9,-1 -2.2,-1.5 -3.6,-1.5 -1.3,0 -2.6,0.5 -3.6,1.5 -0.9,0.9 -1.5,2.2 -1.5,3.6 0,1.3 0.6,2.6 1.5,3.6 1,0.9 2.3,1.5 3.6,1.5 z"
         clip-path="url(#p12f52910fc-61-8-7)"
         style="fill:#ffff00;fill-opacity:0.6992;stroke-width:1.00284;stroke-linecap:butt;stroke-linejoin:round"
         id="path327-93-8-0" /><path
         d="m 564.5,467.5 c 3.8,0 7.4,-1.6 10.1,-4.2 2.7,-2.7 4.2,-6.4 4.2,-10.2 0,-3.8 -1.5,-7.5 -4.2,-10.1 -2.7,-2.7 -6.3,-4.3 -10.1,-4.3 -3.8,0 -7.5,1.6 -10.2,4.3 -2.7,2.6 -4.2,6.3 -4.2,10.1 0,3.8 1.5,7.5 4.2,10.2 2.7,2.6 6.4,4.2 10.2,4.2 z"
         clip-path="url(#p12f52910fc-61-8-7)"
         style="fill:#ffff00;fill-opacity:0.6992;stroke-width:1.00284;stroke-linecap:butt;stroke-linejoin:round"
         id="path328-9-73-9" /><path
         d="m 598.5,509 c 2.2,0 4.4,-0.9 5.9,-2.5 1.6,-1.5 2.5,-3.7 2.5,-5.9 0,-2.2 -0.9,-4.3 -2.5,-5.9 -1.5,-1.6 -3.7,-2.4 -5.9,-2.4 -2.2,0 -4.3,0.8 -5.9,2.4 -1.5,1.6 -2.4,3.7 -2.4,5.9 0,2.2 0.9,4.4 2.4,5.9 1.6,1.6 3.7,2.5 5.9,2.5 z"
         clip-path="url(#p12f52910fc-61-8-7)"
         style="fill:#ffff00;fill-opacity:0.6992;stroke-width:1.00284;stroke-linecap:butt;stroke-linejoin:round"
         id="path329-2-3-3" /><path
         d="m 571.2,468.7 c 1.4,0 2.7,-0.6 3.7,-1.6 1,-1 1.6,-2.3 1.6,-3.7 0,-1.4 -0.6,-2.8 -1.6,-3.8 -1,-1 -2.3,-1.5 -3.7,-1.5 -1.4,0 -2.8,0.5 -3.8,1.5 -1,1 -1.5,2.4 -1.5,3.8 0,1.4 0.5,2.7 1.5,3.7 1,1 2.4,1.6 3.8,1.6 z"
         clip-path="url(#p12f52910fc-61-8-7)"
         style="fill:#ffff00;fill-opacity:0.6992;stroke-width:1.00284;stroke-linecap:butt;stroke-linejoin:round"
         id="path330-8-5-0" /><path
         d="m 573.5,443.8 c 1.3,0 2.6,-0.5 3.6,-1.5 0.9,-0.9 1.5,-2.2 1.5,-3.6 0,-1.3 -0.6,-2.6 -1.5,-3.5 -1,-1 -2.3,-1.5 -3.6,-1.5 -1.3,0 -2.6,0.5 -3.6,1.5 -0.9,0.9 -1.4,2.2 -1.4,3.5 0,1.4 0.5,2.7 1.4,3.6 1,1 2.3,1.5 3.6,1.5 z"
         clip-path="url(#p12f52910fc-61-8-7)"
         style="fill:#ffff00;fill-opacity:0.6992;stroke-width:1.00284;stroke-linecap:butt;stroke-linejoin:round"
         id="path331-30-01-2" /><path
         d="m 562.9,499.5 c 1.7,0 3.4,-0.7 4.6,-1.9 1.2,-1.3 1.9,-2.9 1.9,-4.7 0,-1.7 -0.7,-3.3 -1.9,-4.6 -1.2,-1.2 -2.9,-1.9 -4.6,-1.9 -1.8,0 -3.4,0.7 -4.6,1.9 -1.3,1.3 -1.9,2.9 -1.9,4.6 0,1.8 0.6,3.4 1.9,4.7 1.2,1.2 2.8,1.9 4.6,1.9 z"
         clip-path="url(#p12f52910fc-61-8-7)"
         style="fill:#ffff00;fill-opacity:0.6992;stroke-width:1.00284;stroke-linecap:butt;stroke-linejoin:round"
         id="path332-1-4-6" /><path
         d="m 541.2,400.7 c 2.6,0 5.1,-1 6.9,-2.9 1.9,-1.8 2.9,-4.3 2.9,-6.9 0,-2.6 -1,-5.1 -2.9,-7 -1.8,-1.8 -4.3,-2.9 -6.9,-2.9 -2.6,0 -5.1,1.1 -7,2.9 -1.8,1.9 -2.9,4.4 -2.9,7 0,2.6 1.1,5.1 2.9,6.9 1.9,1.9 4.4,2.9 7,2.9 z"
         clip-path="url(#p12f52910fc-61-8-7)"
         style="fill:#ffff00;fill-opacity:0.6992;stroke-width:1.00284;stroke-linecap:butt;stroke-linejoin:round"
         id="path333-7-5-4" /><path
         d="m 582.1,399.3 c 1.3,0 2.6,-0.5 3.6,-1.4 0.9,-1 1.4,-2.2 1.4,-3.6 0,-1.3 -0.5,-2.6 -1.4,-3.5 -1,-0.9 -2.3,-1.5 -3.6,-1.5 -1.3,0 -2.6,0.6 -3.5,1.5 -1,0.9 -1.5,2.2 -1.5,3.5 0,1.4 0.5,2.6 1.5,3.6 0.9,0.9 2.2,1.4 3.5,1.4 z"
         clip-path="url(#p12f52910fc-61-8-7)"
         style="fill:#ffff00;fill-opacity:0.6992;stroke-width:1.00284;stroke-linecap:butt;stroke-linejoin:round"
         id="path334-8-70-3" /><path
         d="m 368.8,609 c 1.4,0 2.6,-0.5 3.6,-1.4 0.9,-1 1.4,-2.2 1.4,-3.6 0,-1.3 -0.5,-2.6 -1.4,-3.5 -1,-0.9 -2.2,-1.5 -3.6,-1.5 -1.3,0 -2.6,0.6 -3.5,1.5 -0.9,0.9 -1.5,2.2 -1.5,3.5 0,1.4 0.6,2.6 1.5,3.6 0.9,0.9 2.2,1.4 3.5,1.4 z"
         clip-path="url(#p12f52910fc-61-8-7)"
         style="fill:#ffff00;fill-opacity:0.6992;stroke-width:1.00284;stroke-linecap:butt;stroke-linejoin:round"
         id="path335-9-7-8" /><path
         d="m 320.3,602.7 c 1.6,0 3.1,-0.6 4.1,-1.7 1.1,-1.1 1.7,-2.6 1.7,-4.1 0,-1.5 -0.6,-3 -1.7,-4.1 -1,-1.1 -2.5,-1.7 -4.1,-1.7 -1.5,0 -3,0.6 -4.1,1.7 -1.1,1.1 -1.7,2.6 -1.7,4.1 0,1.5 0.6,3 1.7,4.1 1.1,1.1 2.6,1.7 4.1,1.7 z"
         clip-path="url(#p12f52910fc-61-8-7)"
         style="fill:#ffff00;fill-opacity:0.6992;stroke-width:1.00284;stroke-linecap:butt;stroke-linejoin:round"
         id="path336-1-89-6" /><path
         d="m 388.4,590.6 c 4.1,0 8,-1.7 10.9,-4.5 2.9,-2.9 4.5,-6.9 4.5,-10.9 0,-4.1 -1.6,-8 -4.5,-10.9 -2.9,-2.9 -6.8,-4.5 -10.9,-4.5 -4,0 -8,1.6 -10.8,4.5 -2.9,2.9 -4.5,6.8 -4.5,10.9 0,4 1.6,8 4.5,10.9 2.8,2.8 6.8,4.5 10.8,4.5 z"
         clip-path="url(#p12f52910fc-61-8-7)"
         style="fill:#ffff00;fill-opacity:0.6992;stroke-width:1.00284;stroke-linecap:butt;stroke-linejoin:round"
         id="path337-5-9-7" /><path
         d="m 337.4,641.6 c 1.4,0 2.9,-0.6 3.9,-1.6 1,-1.1 1.6,-2.5 1.6,-4 0,-1.4 -0.6,-2.9 -1.6,-3.9 -1,-1.1 -2.5,-1.6 -3.9,-1.6 -1.5,0 -3,0.5 -4,1.6 -1,1 -1.6,2.5 -1.6,3.9 0,1.5 0.6,2.9 1.6,4 1,1 2.5,1.6 4,1.6 z"
         clip-path="url(#p12f52910fc-61-8-7)"
         style="fill:#ffff00;fill-opacity:0.6992;stroke-width:1.00284;stroke-linecap:butt;stroke-linejoin:round"
         id="path338-4-3-0" /><path
         d="m 384.1,590 c 1.8,0 3.6,-0.7 4.8,-2 1.3,-1.3 2,-3 2,-4.8 0,-1.8 -0.7,-3.6 -2,-4.8 -1.2,-1.3 -3,-2 -4.8,-2 -1.8,0 -3.5,0.7 -4.8,2 -1.3,1.2 -2,3 -2,4.8 0,1.8 0.7,3.5 2,4.8 1.3,1.3 3,2 4.8,2 z"
         clip-path="url(#p12f52910fc-61-8-7)"
         style="fill:#ffff00;fill-opacity:0.6992;stroke-width:1.00284;stroke-linecap:butt;stroke-linejoin:round"
         id="path339-9-9-8" /><path
         d="m 377.5,613.8 c 5.7,0 11.1,-2.3 15.1,-6.3 4,-4 6.3,-9.4 6.3,-15.1 0,-5.6 -2.3,-11.1 -6.3,-15.1 -4,-4 -9.4,-6.2 -15.1,-6.2 -5.6,0 -11.1,2.2 -15.1,6.2 -4,4 -6.2,9.5 -6.2,15.1 0,5.7 2.2,11.1 6.2,15.1 4,4 9.5,6.3 15.1,6.3 z"
         clip-path="url(#p12f52910fc-61-8-7)"
         style="fill:#ffff00;fill-opacity:0.6992;stroke-width:1.00284;stroke-linecap:butt;stroke-linejoin:round"
         id="path340-2-4-1" /><path
         d="m 375.1,613.3 c 4.2,0 8.2,-1.6 11.1,-4.5 2.9,-3 4.6,-6.9 4.6,-11.1 0,-4.1 -1.7,-8.1 -4.6,-11 -2.9,-3 -6.9,-4.6 -11.1,-4.6 -4.1,0 -8.1,1.6 -11,4.6 -2.9,2.9 -4.6,6.9 -4.6,11 0,4.2 1.7,8.1 4.6,11.1 2.9,2.9 6.9,4.5 11,4.5 z"
         clip-path="url(#p12f52910fc-61-8-7)"
         style="fill:#ffff00;fill-opacity:0.6992;stroke-width:1.00284;stroke-linecap:butt;stroke-linejoin:round"
         id="path341-5-6-9" /><path
         d="m 328.1,688.9 c 1.5,0 3,-0.6 4.1,-1.7 1.1,-1.1 1.7,-2.6 1.7,-4.1 0,-1.6 -0.6,-3.1 -1.7,-4.2 -1.1,-1.1 -2.6,-1.7 -4.1,-1.7 -1.6,0 -3.1,0.6 -4.2,1.7 -1.1,1.1 -1.7,2.6 -1.7,4.2 0,1.5 0.6,3 1.7,4.1 1.1,1.1 2.6,1.7 4.2,1.7 z"
         clip-path="url(#p12f52910fc-61-8-7)"
         style="fill:#ffff00;fill-opacity:0.6992;stroke-width:1.00284;stroke-linecap:butt;stroke-linejoin:round"
         id="path342-7-4-8" /><path
         d="m 392,521.6 c 1.4,0 2.8,-0.6 3.7,-1.6 1,-1 1.6,-2.3 1.6,-3.7 0,-1.4 -0.6,-2.7 -1.6,-3.7 -0.9,-1 -2.3,-1.6 -3.7,-1.6 -1.4,0 -2.7,0.6 -3.7,1.6 -1,1 -1.5,2.3 -1.5,3.7 0,1.4 0.5,2.7 1.5,3.7 1,1 2.3,1.6 3.7,1.6 z"
         clip-path="url(#p12f52910fc-61-8-7)"
         style="fill:#ffff00;fill-opacity:0.6992;stroke-width:1.00284;stroke-linecap:butt;stroke-linejoin:round"
         id="path343-4-5-1" /><path
         d="m 377.9,608.9 c 3.8,0 7.3,-1.5 10,-4.1 2.6,-2.7 4.1,-6.2 4.1,-10 0,-3.7 -1.5,-7.3 -4.1,-9.9 -2.7,-2.6 -6.2,-4.1 -10,-4.1 -3.7,0 -7.3,1.5 -9.9,4.1 -2.6,2.6 -4.1,6.2 -4.1,9.9 0,3.8 1.5,7.3 4.1,10 2.6,2.6 6.2,4.1 9.9,4.1 z"
         clip-path="url(#p12f52910fc-61-8-7)"
         style="fill:#ffff00;fill-opacity:0.6992;stroke-width:1.00284;stroke-linecap:butt;stroke-linejoin:round"
         id="path344-9-5-6" /><path
         d="m 391.4,605.1 c 5.7,0 11.1,-2.2 15,-6.2 4,-4 6.2,-9.4 6.2,-15 0,-5.6 -2.2,-11 -6.2,-15 -3.9,-3.9 -9.3,-6.2 -15,-6.2 -5.6,0 -11,2.3 -15,6.2 -3.9,4 -6.2,9.4 -6.2,15 0,5.6 2.3,11 6.2,15 4,4 9.4,6.2 15,6.2 z"
         clip-path="url(#p12f52910fc-61-8-7)"
         style="fill:#ffff00;fill-opacity:0.6992;stroke-width:1.00284;stroke-linecap:butt;stroke-linejoin:round"
         id="path345-94-5-4" /><path
         d="m 389.6,594.3 c 1.4,0 2.7,-0.5 3.7,-1.5 1,-1 1.5,-2.3 1.5,-3.7 0,-1.4 -0.5,-2.7 -1.5,-3.7 -1,-1 -2.3,-1.5 -3.7,-1.5 -1.4,0 -2.7,0.5 -3.7,1.5 -1,1 -1.5,2.3 -1.5,3.7 0,1.4 0.5,2.7 1.5,3.7 1,1 2.3,1.5 3.7,1.5 z"
         clip-path="url(#p12f52910fc-61-8-7)"
         style="fill:#ffff00;fill-opacity:0.6992;stroke-width:1.00284;stroke-linecap:butt;stroke-linejoin:round"
         id="path346-5-6-8" /><path
         d="m 388.7,596 c 1.5,0 2.9,-0.6 4,-1.6 1.1,-1.1 1.7,-2.6 1.7,-4.1 0,-1.5 -0.6,-3 -1.7,-4.1 -1.1,-1.1 -2.5,-1.7 -4,-1.7 -1.6,0 -3,0.6 -4.1,1.7 -1.1,1.1 -1.7,2.6 -1.7,4.1 0,1.5 0.6,3 1.7,4.1 1.1,1 2.5,1.6 4.1,1.6 z"
         clip-path="url(#p12f52910fc-61-8-7)"
         style="fill:#ffff00;fill-opacity:0.6992;stroke-width:1.00284;stroke-linecap:butt;stroke-linejoin:round"
         id="path347-9-0-5" /><path
         d="m 393.1,598.3 c 4.5,0 8.8,-1.8 12,-4.9 3.1,-3.2 4.9,-7.5 4.9,-12 0,-4.4 -1.8,-8.7 -4.9,-11.9 -3.2,-3.2 -7.5,-4.9 -12,-4.9 -4.5,0 -8.7,1.7 -11.9,4.9 -3.2,3.2 -5,7.5 -5,11.9 0,4.5 1.8,8.8 5,12 3.2,3.1 7.4,4.9 11.9,4.9 z"
         clip-path="url(#p12f52910fc-61-8-7)"
         style="fill:#ffff00;fill-opacity:0.6992;stroke-width:1.00284;stroke-linecap:butt;stroke-linejoin:round"
         id="path348-3-6-0" /><path
         d="m 392.8,585.7 c 1.3,0 2.6,-0.5 3.5,-1.4 1,-1 1.5,-2.2 1.5,-3.6 0,-1.3 -0.5,-2.6 -1.5,-3.5 -0.9,-0.9 -2.2,-1.5 -3.5,-1.5 -1.3,0 -2.6,0.6 -3.5,1.5 -1,0.9 -1.5,2.2 -1.5,3.5 0,1.4 0.5,2.6 1.5,3.6 0.9,0.9 2.2,1.4 3.5,1.4 z"
         clip-path="url(#p12f52910fc-61-8-7)"
         style="fill:#ffff00;fill-opacity:0.6992;stroke-width:1.00284;stroke-linecap:butt;stroke-linejoin:round"
         id="path349-5-2-1" /><path
         d="m 410.9,606.5 c 3.7,0 7.1,-1.5 9.7,-4 2.5,-2.6 4,-6.1 4,-9.7 0,-3.6 -1.5,-7 -4,-9.6 -2.6,-2.6 -6,-4 -9.7,-4 -3.6,0 -7,1.4 -9.6,4 -2.5,2.6 -4,6 -4,9.6 0,3.6 1.5,7.1 4,9.7 2.6,2.5 6,4 9.6,4 z"
         clip-path="url(#p12f52910fc-61-8-7)"
         style="fill:#ffff00;fill-opacity:0.6992;stroke-width:1.00284;stroke-linecap:butt;stroke-linejoin:round"
         id="path350-7-6-5" /><path
         d="m 411,581.1 c 1.3,0 2.6,-0.6 3.6,-1.5 0.9,-1 1.4,-2.3 1.4,-3.6 0,-1.3 -0.5,-2.6 -1.4,-3.6 -1,-0.9 -2.3,-1.5 -3.6,-1.5 -1.4,0 -2.7,0.6 -3.6,1.5 -1,1 -1.5,2.3 -1.5,3.6 0,1.3 0.5,2.6 1.5,3.6 0.9,0.9 2.2,1.5 3.6,1.5 z"
         clip-path="url(#p12f52910fc-61-8-7)"
         style="fill:#ffff00;fill-opacity:0.6992;stroke-width:1.00284;stroke-linecap:butt;stroke-linejoin:round"
         id="path351-0-9-9" /><path
         d="m 429.2,590.9 c 6,0 11.8,-2.4 16,-6.6 4.3,-4.3 6.7,-10 6.7,-16 0,-6 -2.4,-11.8 -6.7,-16 -4.2,-4.3 -10,-6.7 -16,-6.7 -6,0 -11.8,2.4 -16,6.7 -4.2,4.2 -6.6,10 -6.6,16 0,6 2.4,11.7 6.6,16 4.2,4.2 10,6.6 16,6.6 z"
         clip-path="url(#p12f52910fc-61-8-7)"
         style="fill:#ffff00;fill-opacity:0.6992;stroke-width:1.00284;stroke-linecap:butt;stroke-linejoin:round"
         id="path352-8-9-7" /><path
         d="m 445,574.7 c 2.2,0 4.4,-0.9 6,-2.5 1.6,-1.6 2.5,-3.8 2.5,-6 0,-2.3 -0.9,-4.4 -2.5,-6 -1.6,-1.6 -3.8,-2.5 -6,-2.5 -2.3,0 -4.4,0.9 -6,2.5 -1.6,1.6 -2.5,3.7 -2.5,6 0,2.2 0.9,4.4 2.5,6 1.6,1.6 3.7,2.5 6,2.5 z"
         clip-path="url(#p12f52910fc-61-8-7)"
         style="fill:#ffff00;fill-opacity:0.6992;stroke-width:1.00284;stroke-linecap:butt;stroke-linejoin:round"
         id="path353-1-2-0" /><path
         d="m 428.8,591.5 c 1.4,0 2.6,-0.5 3.6,-1.4 0.9,-1 1.4,-2.2 1.4,-3.6 0,-1.3 -0.5,-2.6 -1.4,-3.5 -1,-0.9 -2.2,-1.5 -3.6,-1.5 -1.3,0 -2.6,0.6 -3.5,1.5 -0.9,0.9 -1.5,2.2 -1.5,3.5 0,1.4 0.6,2.6 1.5,3.6 0.9,0.9 2.2,1.4 3.5,1.4 z"
         clip-path="url(#p12f52910fc-61-8-7)"
         style="fill:#ffff00;fill-opacity:0.6992;stroke-width:1.00284;stroke-linecap:butt;stroke-linejoin:round"
         id="path354-9-9-6" /><path
         d="m 213.7,438.4 c 2.8,0 5.4,-1.1 7.4,-3.1 2,-2 3.1,-4.7 3.1,-7.4 0,-2.8 -1.1,-5.5 -3.1,-7.5 -2,-1.9 -4.6,-3.1 -7.4,-3.1 -2.8,0 -5.5,1.2 -7.5,3.1 -1.9,2 -3,4.7 -3,7.5 0,2.7 1.1,5.4 3,7.4 2,2 4.7,3.1 7.5,3.1 z"
         clip-path="url(#p12f52910fc-61-8-7)"
         style="fill:#ffff00;fill-opacity:0.6992;stroke-width:1.00284;stroke-linecap:butt;stroke-linejoin:round"
         id="path355-9-6-2" /><path
         d="m 404,456.7 c 5.9,0 11.5,-2.3 15.6,-6.5 4.2,-4.1 6.5,-9.7 6.5,-15.6 0,-5.8 -2.3,-11.4 -6.5,-15.6 -4.1,-4.1 -9.7,-6.4 -15.6,-6.4 -5.8,0 -11.4,2.3 -15.6,6.4 -4.1,4.2 -6.4,9.8 -6.4,15.6 0,5.9 2.3,11.5 6.4,15.6 4.2,4.2 9.8,6.5 15.6,6.5 z"
         clip-path="url(#p12f52910fc-61-8-7)"
         style="fill:#ffff00;fill-opacity:0.6992;stroke-width:1.00284;stroke-linecap:butt;stroke-linejoin:round"
         id="path356-7-5-8" /><path
         d="m 238.6,371.5 c 1.5,0 3.1,-0.7 4.2,-1.8 1.1,-1.1 1.8,-2.6 1.8,-4.2 0,-1.6 -0.7,-3.1 -1.8,-4.3 -1.1,-1.1 -2.7,-1.7 -4.2,-1.7 -1.6,0 -3.2,0.6 -4.3,1.7 -1.1,1.2 -1.7,2.7 -1.7,4.3 0,1.6 0.6,3.1 1.7,4.2 1.1,1.1 2.7,1.8 4.3,1.8 z"
         clip-path="url(#p12f52910fc-61-8-7)"
         style="fill:#ffff00;fill-opacity:0.6992;stroke-width:1.00284;stroke-linecap:butt;stroke-linejoin:round"
         id="path357-8-5-9" /><path
         d="m 391.8,559.6 c 3.6,0 7.1,-1.4 9.7,-4 2.6,-2.6 4.1,-6.1 4.1,-9.8 0,-3.6 -1.5,-7.2 -4.1,-9.7 -2.6,-2.6 -6.1,-4.1 -9.7,-4.1 -3.7,0 -7.2,1.5 -9.8,4.1 -2.6,2.5 -4,6.1 -4,9.7 0,3.7 1.4,7.2 4,9.8 2.6,2.6 6.1,4 9.8,4 z"
         clip-path="url(#p12f52910fc-61-8-7)"
         style="fill:#ffff00;fill-opacity:0.6992;stroke-width:1.00284;stroke-linecap:butt;stroke-linejoin:round"
         id="path358-2-3-5" /><path
         d="m 380,557 c 1.4,0 2.6,-0.5 3.6,-1.4 0.9,-1 1.4,-2.3 1.4,-3.6 0,-1.3 -0.5,-2.6 -1.4,-3.5 -1,-1 -2.2,-1.5 -3.6,-1.5 -1.3,0 -2.6,0.5 -3.5,1.5 -1,0.9 -1.5,2.2 -1.5,3.5 0,1.3 0.5,2.6 1.5,3.6 0.9,0.9 2.2,1.4 3.5,1.4 z"
         clip-path="url(#p12f52910fc-61-8-7)"
         style="fill:#ffff00;fill-opacity:0.6992;stroke-width:1.00284;stroke-linecap:butt;stroke-linejoin:round"
         id="path359-53-8-0" /><path
         d="m 364.9,533 c 1.3,0 2.6,-0.6 3.5,-1.5 1,-1 1.5,-2.2 1.5,-3.6 0,-1.3 -0.5,-2.6 -1.5,-3.5 -0.9,-0.9 -2.2,-1.5 -3.5,-1.5 -1.3,0 -2.6,0.6 -3.6,1.5 -0.9,0.9 -1.4,2.2 -1.4,3.5 0,1.4 0.5,2.6 1.4,3.6 1,0.9 2.3,1.5 3.6,1.5 z"
         clip-path="url(#p12f52910fc-61-8-7)"
         style="fill:#ffff00;fill-opacity:0.6992;stroke-width:1.00284;stroke-linecap:butt;stroke-linejoin:round"
         id="path360-4-67-2" /><path
         d="m 415.7,596 c 1.4,0 2.8,-0.6 3.8,-1.6 1,-1 1.6,-2.4 1.6,-3.8 0,-1.4 -0.6,-2.8 -1.6,-3.8 -1,-1 -2.4,-1.6 -3.8,-1.6 -1.4,0 -2.8,0.6 -3.8,1.6 -1,1 -1.6,2.4 -1.6,3.8 0,1.4 0.6,2.8 1.6,3.8 1,1 2.4,1.6 3.8,1.6 z"
         clip-path="url(#p12f52910fc-61-8-7)"
         style="fill:#ffff00;fill-opacity:0.6992;stroke-width:1.00284;stroke-linecap:butt;stroke-linejoin:round"
         id="path361-9-3-7" /><path
         d="m 76.22,480.1 c 1.43,0 2.8,-0.6 3.81,-1.6 1.01,-1 1.58,-2.4 1.58,-3.8 0,-1.4 -0.57,-2.8 -1.58,-3.8 -1.01,-1 -2.38,-1.6 -3.81,-1.6 -1.42,0 -2.79,0.6 -3.8,1.6 -1.01,1 -1.58,2.4 -1.58,3.8 0,1.4 0.57,2.8 1.58,3.8 1.01,1 2.38,1.6 3.8,1.6 z"
         clip-path="url(#p12f52910fc-61-8-7)"
         style="fill:#ffff00;fill-opacity:0.6992;stroke-width:1.00284;stroke-linecap:butt;stroke-linejoin:round"
         id="path362-0-6-2" /><path
         d="m 545.1,509.8 c 3.4,0 6.7,-1.3 9.2,-3.8 2.4,-2.4 3.8,-5.7 3.8,-9.2 0,-3.4 -1.4,-6.7 -3.8,-9.2 -2.5,-2.4 -5.8,-3.8 -9.2,-3.8 -3.5,0 -6.8,1.4 -9.2,3.8 -2.5,2.5 -3.8,5.8 -3.8,9.2 0,3.5 1.3,6.8 3.8,9.2 2.4,2.5 5.7,3.8 9.2,3.8 z"
         clip-path="url(#p12f52910fc-61-8-7)"
         style="fill:#ffff00;fill-opacity:0.6992;stroke-width:1.00284;stroke-linecap:butt;stroke-linejoin:round"
         id="path363-2-0-8" /><path
         d="m 473.4,307.1 c 1.4,0 2.6,-0.5 3.6,-1.5 0.9,-0.9 1.5,-2.2 1.5,-3.5 0,-1.3 -0.6,-2.6 -1.5,-3.6 -1,-0.9 -2.2,-1.4 -3.6,-1.4 -1.3,0 -2.6,0.5 -3.5,1.4 -1,1 -1.5,2.3 -1.5,3.6 0,1.3 0.5,2.6 1.5,3.5 0.9,1 2.2,1.5 3.5,1.5 z"
         clip-path="url(#p12f52910fc-61-8-7)"
         style="fill:#ffff00;fill-opacity:0.6992;stroke-width:1.00284;stroke-linecap:butt;stroke-linejoin:round"
         id="path364-0-2-1" /><path
         d="m 436.3,288.7 c 1.3,0 2.6,-0.6 3.5,-1.5 1,-0.9 1.5,-2.2 1.5,-3.5 0,-1.4 -0.5,-2.6 -1.5,-3.6 -0.9,-0.9 -2.2,-1.5 -3.5,-1.5 -1.3,0 -2.6,0.6 -3.6,1.5 -0.9,1 -1.4,2.2 -1.4,3.6 0,1.3 0.5,2.6 1.4,3.5 1,0.9 2.3,1.5 3.6,1.5 z"
         clip-path="url(#p12f52910fc-61-8-7)"
         style="fill:#ffff00;fill-opacity:0.6992;stroke-width:1.00284;stroke-linecap:butt;stroke-linejoin:round"
         id="path365-1-6-7" /><path
         d="m 332.2,697.9 c 1.5,0 3,-0.7 4.1,-1.7 1,-1.1 1.6,-2.6 1.6,-4.1 0,-1.5 -0.6,-3 -1.6,-4 -1.1,-1.1 -2.6,-1.7 -4.1,-1.7 -1.5,0 -3,0.6 -4.1,1.7 -1,1 -1.6,2.5 -1.6,4 0,1.5 0.6,3 1.6,4.1 1.1,1 2.6,1.7 4.1,1.7 z"
         clip-path="url(#p12f52910fc-61-8-7)"
         style="fill:#ffff00;fill-opacity:0.6992;stroke-width:1.00284;stroke-linecap:butt;stroke-linejoin:round"
         id="path366-9-93-7" /><path
         d="m 478.9,472 c 1.5,0 3,-0.6 4,-1.6 1.1,-1.1 1.7,-2.5 1.7,-4.1 0,-1.5 -0.6,-2.9 -1.7,-4 -1,-1 -2.5,-1.6 -4,-1.6 -1.5,0 -2.9,0.6 -4,1.6 -1.1,1.1 -1.7,2.5 -1.7,4 0,1.6 0.6,3 1.7,4.1 1.1,1 2.5,1.6 4,1.6 z"
         clip-path="url(#p12f52910fc-61-8-7)"
         style="fill:#ffff00;fill-opacity:0.6992;stroke-width:1.00284;stroke-linecap:butt;stroke-linejoin:round"
         id="path367-62-08-9" /><path
         d="m 455.4,545 c 1.5,0 2.9,-0.6 3.9,-1.6 1.1,-1.1 1.6,-2.5 1.6,-4 0,-1.4 -0.5,-2.8 -1.6,-3.9 -1,-1 -2.4,-1.6 -3.9,-1.6 -1.5,0 -2.9,0.6 -3.9,1.6 -1.1,1.1 -1.7,2.5 -1.7,3.9 0,1.5 0.6,2.9 1.7,4 1,1 2.4,1.6 3.9,1.6 z"
         clip-path="url(#p12f52910fc-61-8-7)"
         style="fill:#ffff00;fill-opacity:0.6992;stroke-width:1.00284;stroke-linecap:butt;stroke-linejoin:round"
         id="path368-1-7-7" /><path
         d="m 459.5,531.4 c 1.4,0 2.7,-0.5 3.7,-1.5 0.9,-0.9 1.5,-2.2 1.5,-3.6 0,-1.4 -0.6,-2.7 -1.5,-3.6 -1,-1 -2.3,-1.5 -3.7,-1.5 -1.3,0 -2.6,0.5 -3.6,1.5 -0.9,0.9 -1.5,2.2 -1.5,3.6 0,1.4 0.6,2.7 1.5,3.6 1,1 2.3,1.5 3.6,1.5 z"
         clip-path="url(#p12f52910fc-61-8-7)"
         style="fill:#ffff00;fill-opacity:0.6992;stroke-width:1.00284;stroke-linecap:butt;stroke-linejoin:round"
         id="path369-2-6-9" /><path
         d="m 377.4,662 c 1.3,0 2.6,-0.5 3.6,-1.4 0.9,-1 1.5,-2.3 1.5,-3.7 0,-1.3 -0.6,-2.6 -1.5,-3.6 -1,-0.9 -2.3,-1.5 -3.6,-1.5 -1.4,0 -2.7,0.6 -3.7,1.5 -0.9,1 -1.5,2.3 -1.5,3.6 0,1.4 0.6,2.7 1.5,3.7 1,0.9 2.3,1.4 3.7,1.4 z"
         clip-path="url(#p12f52910fc-61-8-7)"
         style="fill:#ffff00;fill-opacity:0.6992;stroke-width:1.00284;stroke-linecap:butt;stroke-linejoin:round"
         id="path370-0-5-8" /><path
         d="m 457,570.8 c 1.4,0 2.7,-0.5 3.7,-1.5 0.9,-1 1.5,-2.3 1.5,-3.7 0,-1.4 -0.6,-2.7 -1.5,-3.7 -1,-0.9 -2.3,-1.5 -3.7,-1.5 -1.4,0 -2.7,0.6 -3.7,1.5 -0.9,1 -1.5,2.3 -1.5,3.7 0,1.4 0.6,2.7 1.5,3.7 1,1 2.3,1.5 3.7,1.5 z"
         clip-path="url(#p12f52910fc-61-8-7)"
         style="fill:#ffff00;fill-opacity:0.6992;stroke-width:1.00284;stroke-linecap:butt;stroke-linejoin:round"
         id="path371-7-2-8" /><path
         d="m 299.8,677.3 c 3.9,0 7.6,-1.5 10.4,-4.3 2.7,-2.7 4.2,-6.4 4.2,-10.3 0,-3.9 -1.5,-7.6 -4.2,-10.4 -2.8,-2.7 -6.5,-4.3 -10.4,-4.3 -3.9,0 -7.6,1.6 -10.3,4.3 -2.8,2.8 -4.3,6.5 -4.3,10.4 0,3.9 1.5,7.6 4.3,10.3 2.7,2.8 6.4,4.3 10.3,4.3 z"
         clip-path="url(#p12f52910fc-61-8-7)"
         style="fill:#ffff00;fill-opacity:0.6992;stroke-width:1.00284;stroke-linecap:butt;stroke-linejoin:round"
         id="path372-3-4-9" /><path
         d="m 326.7,691.5 c 1.4,0 2.8,-0.6 3.8,-1.6 1,-1 1.6,-2.4 1.6,-3.8 0,-1.4 -0.6,-2.8 -1.6,-3.8 -1,-1 -2.4,-1.6 -3.8,-1.6 -1.5,0 -2.8,0.6 -3.9,1.6 -1,1 -1.5,2.4 -1.5,3.8 0,1.4 0.5,2.8 1.5,3.8 1.1,1 2.4,1.6 3.9,1.6 z"
         clip-path="url(#p12f52910fc-61-8-7)"
         style="fill:#ffff00;fill-opacity:0.6992;stroke-width:1.00284;stroke-linecap:butt;stroke-linejoin:round"
         id="path373-1-00-8" /><path
         d="m 445.8,585.4 c 2.3,0 4.5,-0.9 6.1,-2.5 1.6,-1.6 2.5,-3.7 2.5,-6 0,-2.3 -0.9,-4.4 -2.5,-6 -1.6,-1.6 -3.8,-2.5 -6.1,-2.5 -2.2,0 -4.4,0.9 -6,2.5 -1.6,1.6 -2.5,3.7 -2.5,6 0,2.3 0.9,4.4 2.5,6 1.6,1.6 3.8,2.5 6,2.5 z"
         clip-path="url(#p12f52910fc-61-8-7)"
         style="fill:#ffff00;fill-opacity:0.6992;stroke-width:1.00284;stroke-linecap:butt;stroke-linejoin:round"
         id="path374-1-6-0" /><path
         d="m 297.4,715.6 c 1.3,0 2.6,-0.5 3.5,-1.5 1,-0.9 1.5,-2.2 1.5,-3.5 0,-1.4 -0.5,-2.6 -1.5,-3.6 -0.9,-0.9 -2.2,-1.5 -3.5,-1.5 -1.4,0 -2.6,0.6 -3.6,1.5 -0.9,1 -1.5,2.2 -1.5,3.6 0,1.3 0.6,2.6 1.5,3.5 1,1 2.2,1.5 3.6,1.5 z"
         clip-path="url(#p12f52910fc-61-8-7)"
         style="fill:#ffff00;fill-opacity:0.6992;stroke-width:1.00284;stroke-linecap:butt;stroke-linejoin:round"
         id="path375-9-8-5" /><path
         d="m 260.8,671.5 c 1.8,0 3.6,-0.7 4.9,-2 1.3,-1.3 2,-3 2,-4.9 0,-1.8 -0.7,-3.5 -2,-4.8 -1.3,-1.3 -3.1,-2 -4.9,-2 -1.8,0 -3.6,0.7 -4.9,2 -1.3,1.3 -2,3 -2,4.8 0,1.9 0.7,3.6 2,4.9 1.3,1.3 3.1,2 4.9,2 z"
         clip-path="url(#p12f52910fc-61-8-7)"
         style="fill:#ffff00;fill-opacity:0.6992;stroke-width:1.00284;stroke-linecap:butt;stroke-linejoin:round"
         id="path376-0-5-2" /><path
         d="m 411,582.5 c 1.7,0 3.3,-0.7 4.5,-1.9 1.3,-1.3 1.9,-2.9 1.9,-4.6 0,-1.8 -0.6,-3.4 -1.9,-4.6 -1.2,-1.2 -2.8,-1.9 -4.5,-1.9 -1.8,0 -3.4,0.7 -4.6,1.9 -1.3,1.2 -1.9,2.8 -1.9,4.6 0,1.7 0.6,3.3 1.9,4.6 1.2,1.2 2.8,1.9 4.6,1.9 z"
         clip-path="url(#p12f52910fc-61-8-7)"
         style="fill:#ffff00;fill-opacity:0.6992;stroke-width:1.00284;stroke-linecap:butt;stroke-linejoin:round"
         id="path377-5-4-0" /><path
         d="m 392.8,588.2 c 1.7,0 3.3,-0.6 4.5,-1.8 1.2,-1.2 1.9,-2.8 1.9,-4.5 0,-1.7 -0.7,-3.3 -1.9,-4.5 -1.2,-1.2 -2.8,-1.9 -4.5,-1.9 -1.6,0 -3.3,0.7 -4.4,1.9 -1.2,1.2 -1.9,2.8 -1.9,4.5 0,1.7 0.7,3.3 1.9,4.5 1.1,1.2 2.8,1.8 4.4,1.8 z"
         clip-path="url(#p12f52910fc-61-8-7)"
         style="fill:#ffff00;fill-opacity:0.6992;stroke-width:1.00284;stroke-linecap:butt;stroke-linejoin:round"
         id="path378-6-9-2" /><path
         d="m 389.9,595.3 c 1.6,0 3.2,-0.6 4.4,-1.8 1.1,-1.2 1.8,-2.7 1.8,-4.4 0,-1.6 -0.7,-3.2 -1.8,-4.4 -1.2,-1.1 -2.8,-1.8 -4.4,-1.8 -1.6,0 -3.2,0.7 -4.4,1.8 -1.1,1.2 -1.8,2.8 -1.8,4.4 0,1.7 0.7,3.2 1.8,4.4 1.2,1.2 2.8,1.8 4.4,1.8 z"
         clip-path="url(#p12f52910fc-61-8-7)"
         style="fill:#ffff00;fill-opacity:0.6992;stroke-width:1.00284;stroke-linecap:butt;stroke-linejoin:round"
         id="path379-7-4-4" /><path
         d="m 432.1,584.7 c 1.5,0 2.9,-0.6 3.9,-1.6 1,-1.1 1.6,-2.4 1.6,-3.9 0,-1.4 -0.6,-2.8 -1.6,-3.9 -1,-1 -2.4,-1.6 -3.9,-1.6 -1.4,0 -2.8,0.6 -3.8,1.6 -1.1,1.1 -1.6,2.5 -1.6,3.9 0,1.5 0.5,2.8 1.6,3.9 1,1 2.4,1.6 3.8,1.6 z"
         clip-path="url(#p12f52910fc-61-8-7)"
         style="fill:#ffff00;fill-opacity:0.6992;stroke-width:1.00284;stroke-linecap:butt;stroke-linejoin:round"
         id="path380-7-6-3" /><path
         d="m 395.3,584.5 c 1.7,0 3.3,-0.7 4.4,-1.8 1.2,-1.2 1.8,-2.8 1.8,-4.5 0,-1.6 -0.6,-3.2 -1.8,-4.4 -1.1,-1.1 -2.7,-1.8 -4.4,-1.8 -1.6,0 -3.2,0.7 -4.4,1.8 -1.2,1.2 -1.8,2.8 -1.8,4.4 0,1.7 0.6,3.3 1.8,4.5 1.2,1.1 2.8,1.8 4.4,1.8 z"
         clip-path="url(#p12f52910fc-61-8-7)"
         style="fill:#ffff00;fill-opacity:0.6992;stroke-width:1.00284;stroke-linecap:butt;stroke-linejoin:round"
         id="path381-40-8-7" /><path
         d="m 394.9,584.5 c 1.7,0 3.3,-0.6 4.5,-1.8 1.2,-1.2 1.8,-2.8 1.8,-4.5 0,-1.6 -0.6,-3.2 -1.8,-4.4 -1.2,-1.2 -2.8,-1.8 -4.5,-1.8 -1.6,0 -3.2,0.6 -4.4,1.8 -1.2,1.2 -1.8,2.8 -1.8,4.4 0,1.7 0.6,3.3 1.8,4.5 1.2,1.2 2.8,1.8 4.4,1.8 z"
         clip-path="url(#p12f52910fc-61-8-7)"
         style="fill:#ffff00;fill-opacity:0.6992;stroke-width:1.00284;stroke-linecap:butt;stroke-linejoin:round"
         id="path382-6-3-3" /><path
         d="m 391.9,590.6 c 1.5,0 3,-0.6 4.1,-1.7 1.1,-1.1 1.7,-2.6 1.7,-4.1 0,-1.5 -0.6,-3 -1.7,-4.1 -1.1,-1.1 -2.6,-1.7 -4.1,-1.7 -1.5,0 -3,0.6 -4.1,1.7 -1.1,1.1 -1.7,2.6 -1.7,4.1 0,1.5 0.6,3 1.7,4.1 1.1,1.1 2.6,1.7 4.1,1.7 z"
         clip-path="url(#p12f52910fc-61-8-7)"
         style="fill:#ffff00;fill-opacity:0.6992;stroke-width:1.00284;stroke-linecap:butt;stroke-linejoin:round"
         id="path383-4-2-0" /><path
         d="m 292.8,705.7 c 1.6,0 3.1,-0.6 4.2,-1.7 1.1,-1.1 1.7,-2.6 1.7,-4.2 0,-1.5 -0.6,-3 -1.7,-4.1 -1.1,-1.1 -2.6,-1.7 -4.2,-1.7 -1.5,0 -3,0.6 -4.1,1.7 -1.1,1.1 -1.7,2.6 -1.7,4.1 0,1.6 0.6,3.1 1.7,4.2 1.1,1.1 2.6,1.7 4.1,1.7 z"
         clip-path="url(#p12f52910fc-61-8-7)"
         style="fill:#ffff00;fill-opacity:0.6992;stroke-width:1.00284;stroke-linecap:butt;stroke-linejoin:round"
         id="path384-7-3-0" /><path
         d="m 581.7,400.2 c 1.6,0 3.1,-0.7 4.3,-1.8 1.1,-1.1 1.7,-2.6 1.7,-4.2 0,-1.6 -0.6,-3.1 -1.7,-4.3 -1.2,-1.1 -2.7,-1.7 -4.3,-1.7 -1.6,0 -3.1,0.6 -4.2,1.7 -1.1,1.2 -1.8,2.7 -1.8,4.3 0,1.6 0.7,3.1 1.8,4.2 1.1,1.1 2.6,1.8 4.2,1.8 z"
         clip-path="url(#p12f52910fc-61-8-7)"
         style="fill:#ffff00;fill-opacity:0.6992;stroke-width:1.00284;stroke-linecap:butt;stroke-linejoin:round"
         id="path385-48-6-1" /><path
         d="m 391.9,523.9 c 2,0 4,-0.8 5.4,-2.2 1.4,-1.5 2.2,-3.4 2.2,-5.4 0,-2.1 -0.8,-4 -2.2,-5.4 -1.4,-1.5 -3.4,-2.3 -5.4,-2.3 -2,0 -3.9,0.8 -5.4,2.3 -1.4,1.4 -2.2,3.3 -2.2,5.4 0,2 0.8,3.9 2.2,5.4 1.5,1.4 3.4,2.2 5.4,2.2 z"
         clip-path="url(#p12f52910fc-61-8-7)"
         style="fill:#ffff00;fill-opacity:0.6992;stroke-width:1.00284;stroke-linecap:butt;stroke-linejoin:round"
         id="path386-5-2-5" /><path
         d="m 445.7,582.3 c 1.5,0 2.9,-0.5 3.9,-1.6 1.1,-1 1.7,-2.4 1.7,-3.9 0,-1.5 -0.6,-2.9 -1.7,-3.9 -1,-1.1 -2.4,-1.6 -3.9,-1.6 -1.5,0 -2.9,0.5 -3.9,1.6 -1,1 -1.6,2.4 -1.6,3.9 0,1.5 0.6,2.9 1.6,3.9 1,1.1 2.4,1.6 3.9,1.6 z"
         clip-path="url(#p12f52910fc-61-8-7)"
         style="fill:#ffff00;fill-opacity:0.6992;stroke-width:1.00284;stroke-linecap:butt;stroke-linejoin:round"
         id="path387-8-2-8" /><path
         d="m 385.8,598.6 c 1.6,0 3.1,-0.6 4.2,-1.7 1.1,-1.1 1.7,-2.6 1.7,-4.2 0,-1.6 -0.6,-3 -1.7,-4.2 -1.1,-1.1 -2.6,-1.7 -4.2,-1.7 -1.6,0 -3.1,0.6 -4.2,1.7 -1.1,1.2 -1.7,2.6 -1.7,4.2 0,1.6 0.6,3.1 1.7,4.2 1.1,1.1 2.6,1.7 4.2,1.7 z"
         clip-path="url(#p12f52910fc-61-8-7)"
         style="fill:#ffff00;fill-opacity:0.6992;stroke-width:1.00284;stroke-linecap:butt;stroke-linejoin:round"
         id="path388-2-4-0" /><path
         d="m 395.1,591.4 c 3.3,0 6.4,-1.3 8.7,-3.6 2.3,-2.3 3.6,-5.4 3.6,-8.6 0,-3.3 -1.3,-6.4 -3.6,-8.7 -2.3,-2.3 -5.4,-3.6 -8.7,-3.6 -3.2,0 -6.3,1.3 -8.6,3.6 -2.3,2.3 -3.6,5.4 -3.6,8.7 0,3.2 1.3,6.3 3.6,8.6 2.3,2.3 5.4,3.6 8.6,3.6 z"
         clip-path="url(#p12f52910fc-61-8-7)"
         style="fill:#ffff00;fill-opacity:0.6992;stroke-width:1.00284;stroke-linecap:butt;stroke-linejoin:round"
         id="path389-6-70-0" /><path
         d="m 297.4,716.4 c 1.7,0 3.2,-0.7 4.4,-1.8 1.2,-1.2 1.8,-2.8 1.8,-4.4 0,-1.6 -0.6,-3.2 -1.8,-4.4 -1.2,-1.1 -2.7,-1.8 -4.4,-1.8 -1.6,0 -3.2,0.7 -4.4,1.8 -1.1,1.2 -1.8,2.8 -1.8,4.4 0,1.6 0.7,3.2 1.8,4.4 1.2,1.1 2.8,1.8 4.4,1.8 z"
         clip-path="url(#p12f52910fc-61-8-7)"
         style="fill:#ffff00;fill-opacity:0.6992;stroke-width:1.00284;stroke-linecap:butt;stroke-linejoin:round"
         id="path390-0-4-0" /><path
         d="m 567.3,460 c 1.4,0 2.7,-0.5 3.6,-1.4 0.9,-1 1.5,-2.3 1.5,-3.6 0,-1.3 -0.6,-2.6 -1.5,-3.5 -0.9,-1 -2.2,-1.5 -3.6,-1.5 -1.3,0 -2.6,0.5 -3.5,1.5 -0.9,0.9 -1.5,2.2 -1.5,3.5 0,1.3 0.6,2.6 1.5,3.6 0.9,0.9 2.2,1.4 3.5,1.4 z"
         clip-path="url(#p12f52910fc-61-8-7)"
         style="fill:#ffff00;fill-opacity:0.6992;stroke-width:1.00284;stroke-linecap:butt;stroke-linejoin:round"
         id="path391-6-9-4" /><path
         d="m 405.2,445.1 c 1.6,0 3.1,-0.7 4.2,-1.8 1.1,-1.1 1.7,-2.6 1.7,-4.1 0,-1.6 -0.6,-3.1 -1.7,-4.2 -1.1,-1.1 -2.6,-1.7 -4.2,-1.7 -1.5,0 -3,0.6 -4.1,1.7 -1.1,1.1 -1.8,2.6 -1.8,4.2 0,1.5 0.7,3 1.8,4.1 1.1,1.1 2.6,1.8 4.1,1.8 z"
         clip-path="url(#p12f52910fc-61-8-7)"
         style="fill:#ffff00;fill-opacity:0.6992;stroke-width:1.00284;stroke-linecap:butt;stroke-linejoin:round"
         id="path392-64-6-7" /><path
         d="m 540.3,482.7 c 2.1,0 4.2,-0.8 5.7,-2.3 1.4,-1.5 2.3,-3.5 2.3,-5.6 0,-2.1 -0.9,-4.2 -2.3,-5.7 -1.5,-1.4 -3.6,-2.3 -5.7,-2.3 -2.1,0 -4.1,0.9 -5.6,2.3 -1.5,1.5 -2.3,3.6 -2.3,5.7 0,2.1 0.8,4.1 2.3,5.6 1.5,1.5 3.5,2.3 5.6,2.3 z"
         clip-path="url(#p12f52910fc-61-8-7)"
         style="fill:#ffff00;fill-opacity:0.6992;stroke-width:1.00284;stroke-linecap:butt;stroke-linejoin:round"
         id="path393-6-5-5" /><path
         d="m 369.3,616 c 2.4,0 4.7,-0.9 6.4,-2.6 1.7,-1.7 2.6,-4 2.6,-6.4 0,-2.3 -0.9,-4.6 -2.6,-6.3 -1.7,-1.7 -4,-2.6 -6.4,-2.6 -2.4,0 -4.7,0.9 -6.3,2.6 -1.7,1.7 -2.7,4 -2.7,6.3 0,2.4 1,4.7 2.7,6.4 1.6,1.7 3.9,2.6 6.3,2.6 z"
         clip-path="url(#p12f52910fc-61-8-7)"
         style="fill:#ffff00;fill-opacity:0.6992;stroke-width:1.00284;stroke-linecap:butt;stroke-linejoin:round"
         id="path394-2-4-3" /><path
         d="m 472.1,493.5 c 1.3,0 2.6,-0.5 3.6,-1.5 1,-1 1.5,-2.3 1.5,-3.6 0,-1.4 -0.5,-2.7 -1.5,-3.7 -1,-1 -2.3,-1.5 -3.6,-1.5 -1.4,0 -2.7,0.5 -3.7,1.5 -1,1 -1.5,2.3 -1.5,3.7 0,1.3 0.5,2.6 1.5,3.6 1,1 2.3,1.5 3.7,1.5 z"
         clip-path="url(#p12f52910fc-61-8-7)"
         style="fill:#ffff00;fill-opacity:0.6992;stroke-width:1.00284;stroke-linecap:butt;stroke-linejoin:round"
         id="path395-8-6-1" /><path
         d="m 304.2,336.4 c 1.3,0 2.6,-0.6 3.6,-1.5 0.9,-1 1.5,-2.3 1.5,-3.6 0,-1.4 -0.6,-2.7 -1.5,-3.6 -1,-1 -2.3,-1.5 -3.6,-1.5 -1.4,0 -2.7,0.5 -3.6,1.5 -1,0.9 -1.5,2.2 -1.5,3.6 0,1.3 0.5,2.6 1.5,3.6 0.9,0.9 2.2,1.5 3.6,1.5 z"
         clip-path="url(#p12f52910fc-61-8-7)"
         style="fill:#ffff00;fill-opacity:0.6992;stroke-width:1.00284;stroke-linecap:butt;stroke-linejoin:round"
         id="path396-9-4-4" /><path
         d="m 292.9,328.5 c 1.4,0 2.6,-0.6 3.6,-1.5 0.9,-1 1.5,-2.2 1.5,-3.6 0,-1.3 -0.6,-2.6 -1.5,-3.5 -1,-1 -2.2,-1.5 -3.6,-1.5 -1.3,0 -2.6,0.5 -3.5,1.5 -1,0.9 -1.5,2.2 -1.5,3.5 0,1.4 0.5,2.6 1.5,3.6 0.9,0.9 2.2,1.5 3.5,1.5 z"
         clip-path="url(#p12f52910fc-61-8-7)"
         style="fill:#ffff00;fill-opacity:0.6992;stroke-width:1.00284;stroke-linecap:butt;stroke-linejoin:round"
         id="path397-6-2-2" /><path
         d="m 256.9,402 c 1.4,0 2.7,-0.5 3.7,-1.5 1,-1 1.5,-2.3 1.5,-3.7 0,-1.3 -0.5,-2.7 -1.5,-3.6 -1,-1 -2.3,-1.5 -3.7,-1.5 -1.3,0 -2.7,0.5 -3.6,1.5 -1,0.9 -1.5,2.3 -1.5,3.6 0,1.4 0.5,2.7 1.5,3.7 0.9,1 2.3,1.5 3.6,1.5 z"
         clip-path="url(#p12f52910fc-61-8-7)"
         style="fill:#ffff00;fill-opacity:0.6992;stroke-width:1.00284;stroke-linecap:butt;stroke-linejoin:round"
         id="path398-0-5-0" /><path
         d="m 398.3,442.2 c 1.6,0 3.1,-0.6 4.2,-1.8 1.2,-1.1 1.8,-2.6 1.8,-4.2 0,-1.6 -0.6,-3.1 -1.8,-4.2 -1.1,-1.1 -2.6,-1.8 -4.2,-1.8 -1.6,0 -3.1,0.7 -4.2,1.8 -1.1,1.1 -1.8,2.6 -1.8,4.2 0,1.6 0.7,3.1 1.8,4.2 1.1,1.2 2.6,1.8 4.2,1.8 z"
         clip-path="url(#p12f52910fc-61-8-7)"
         style="fill:#ffff00;fill-opacity:0.6992;stroke-width:1.00284;stroke-linecap:butt;stroke-linejoin:round"
         id="path399-7-1-1" /><path
         d="m 478.2,478.2 c 2.3,0 4.5,-0.9 6.1,-2.5 1.6,-1.7 2.5,-3.8 2.5,-6.1 0,-2.3 -0.9,-4.5 -2.5,-6.1 -1.6,-1.6 -3.8,-2.5 -6.1,-2.5 -2.3,0 -4.5,0.9 -6.1,2.5 -1.6,1.6 -2.5,3.8 -2.5,6.1 0,2.3 0.9,4.4 2.5,6.1 1.6,1.6 3.8,2.5 6.1,2.5 z"
         clip-path="url(#p12f52910fc-61-8-7)"
         style="fill:#ffff00;fill-opacity:0.6992;stroke-width:1.00284;stroke-linecap:butt;stroke-linejoin:round"
         id="path400-0-6-3" /><path
         d="m 323,654.8 c 1.6,0 3.2,-0.6 4.3,-1.7 1.1,-1.2 1.8,-2.7 1.8,-4.3 0,-1.6 -0.7,-3.2 -1.8,-4.3 -1.1,-1.2 -2.7,-1.8 -4.3,-1.8 -1.6,0 -3.1,0.6 -4.3,1.8 -1.1,1.1 -1.8,2.7 -1.8,4.3 0,1.6 0.7,3.1 1.8,4.3 1.2,1.1 2.7,1.7 4.3,1.7 z"
         clip-path="url(#p12f52910fc-61-8-7)"
         style="fill:#ffff00;fill-opacity:0.6992;stroke-width:1.00284;stroke-linecap:butt;stroke-linejoin:round"
         id="path401-1-1-0" /><path
         d="m 571.4,459 c 1.4,0 2.7,-0.6 3.6,-1.5 1,-1 1.5,-2.3 1.5,-3.6 0,-1.3 -0.5,-2.6 -1.5,-3.6 -0.9,-0.9 -2.2,-1.5 -3.6,-1.5 -1.3,0 -2.6,0.6 -3.5,1.5 -1,1 -1.5,2.3 -1.5,3.6 0,1.3 0.5,2.6 1.5,3.6 0.9,0.9 2.2,1.5 3.5,1.5 z"
         clip-path="url(#p12f52910fc-61-8-7)"
         style="fill:#ffff00;fill-opacity:0.6992;stroke-width:1.00284;stroke-linecap:butt;stroke-linejoin:round"
         id="path402-0-3-0" /><path
         d="m 436.6,451 c 1.4,0 2.8,-0.6 3.8,-1.6 1,-1 1.6,-2.3 1.6,-3.7 0,-1.5 -0.6,-2.8 -1.6,-3.8 -1,-1 -2.4,-1.6 -3.8,-1.6 -1.4,0 -2.7,0.6 -3.7,1.6 -1,1 -1.6,2.3 -1.6,3.8 0,1.4 0.6,2.7 1.6,3.7 1,1 2.3,1.6 3.7,1.6 z"
         clip-path="url(#p12f52910fc-61-8-7)"
         style="fill:#ffff00;fill-opacity:0.6992;stroke-width:1.00284;stroke-linecap:butt;stroke-linejoin:round"
         id="path403-1-7-4" /><path
         d="m 377,617.5 c 6.9,0 13.4,-2.8 18.3,-7.6 4.8,-4.9 7.6,-11.4 7.6,-18.3 0,-6.9 -2.8,-13.4 -7.6,-18.3 -4.9,-4.8 -11.4,-7.6 -18.3,-7.6 -6.8,0 -13.4,2.8 -18.3,7.6 -4.8,4.9 -7.5,11.4 -7.5,18.3 0,6.9 2.7,13.4 7.5,18.3 4.9,4.8 11.5,7.6 18.3,7.6 z"
         clip-path="url(#p12f52910fc-61-8-7)"
         style="fill:#ffff00;fill-opacity:0.6992;stroke-width:1.00284;stroke-linecap:butt;stroke-linejoin:round"
         id="path404-3-7-8" /><path
         d="m 700.4,281.5 c 1.4,0 2.7,-0.6 3.7,-1.6 1,-0.9 1.5,-2.3 1.5,-3.6 0,-1.4 -0.5,-2.7 -1.5,-3.7 -1,-1 -2.3,-1.5 -3.7,-1.5 -1.3,0 -2.7,0.5 -3.6,1.5 -1,1 -1.6,2.3 -1.6,3.7 0,1.3 0.6,2.7 1.6,3.6 0.9,1 2.3,1.6 3.6,1.6 z"
         clip-path="url(#p12f52910fc-61-8-7)"
         style="fill:#ffff00;fill-opacity:0.6992;stroke-width:1.00284;stroke-linecap:butt;stroke-linejoin:round"
         id="path405-7-1-2" /><path
         d="m 419.8,592 c 2.6,0 5,-1 6.8,-2.8 1.8,-1.8 2.8,-4.2 2.8,-6.8 0,-2.5 -1,-5 -2.8,-6.8 -1.8,-1.8 -4.2,-2.8 -6.8,-2.8 -2.5,0 -5,1 -6.8,2.8 -1.8,1.8 -2.8,4.3 -2.8,6.8 0,2.6 1,5 2.8,6.8 1.8,1.8 4.3,2.8 6.8,2.8 z"
         clip-path="url(#p12f52910fc-61-8-7)"
         style="fill:#ffff00;fill-opacity:0.6992;stroke-width:1.00284;stroke-linecap:butt;stroke-linejoin:round"
         id="path406-7-2-2" /><path
         d="m 146.2,435.5 c 1.5,0 2.9,-0.6 4,-1.7 1.1,-1 1.7,-2.5 1.7,-4 0,-1.5 -0.6,-2.9 -1.7,-4 -1.1,-1.1 -2.5,-1.7 -4,-1.7 -1.5,0 -3,0.6 -4,1.7 -1.1,1.1 -1.7,2.5 -1.7,4 0,1.5 0.6,3 1.7,4 1,1.1 2.5,1.7 4,1.7 z"
         clip-path="url(#p12f52910fc-61-8-7)"
         style="fill:#ffff00;fill-opacity:0.6992;stroke-width:1.00284;stroke-linecap:butt;stroke-linejoin:round"
         id="path407-2-1-0" /><path
         d="m 240.9,370 c 1.4,0 2.8,-0.6 3.9,-1.7 1,-1 1.6,-2.4 1.6,-3.9 0,-1.4 -0.6,-2.8 -1.6,-3.9 -1.1,-1 -2.5,-1.6 -3.9,-1.6 -1.5,0 -2.9,0.6 -3.9,1.6 -1.1,1.1 -1.7,2.5 -1.7,3.9 0,1.5 0.6,2.9 1.7,3.9 1,1.1 2.4,1.7 3.9,1.7 z"
         clip-path="url(#p12f52910fc-61-8-7)"
         style="fill:#ffff00;fill-opacity:0.6992;stroke-width:1.00284;stroke-linecap:butt;stroke-linejoin:round"
         id="path408-6-0-2" /><path
         d="m 95.92,410.1 c 1.4,0 2.74,-0.6 3.72,-1.6 0.96,-1 1.56,-2.3 1.56,-3.7 0,-1.4 -0.6,-2.7 -1.56,-3.7 -0.98,-1 -2.32,-1.6 -3.72,-1.6 -1.39,0 -2.73,0.6 -3.72,1.6 -0.98,1 -1.54,2.3 -1.54,3.7 0,1.4 0.56,2.7 1.54,3.7 0.99,1 2.33,1.6 3.72,1.6 z"
         clip-path="url(#p12f52910fc-61-8-7)"
         style="fill:#ffff00;fill-opacity:0.6992;stroke-width:1.00284;stroke-linecap:butt;stroke-linejoin:round"
         id="path409-4-8-4" /><path
         d="m 401.1,390.4 c 2.2,0 4.3,-0.9 5.8,-2.4 1.5,-1.6 2.4,-3.7 2.4,-5.8 0,-2.2 -0.9,-4.3 -2.4,-5.8 -1.5,-1.6 -3.6,-2.4 -5.8,-2.4 -2.2,0 -4.2,0.8 -5.8,2.4 -1.5,1.5 -2.4,3.6 -2.4,5.8 0,2.1 0.9,4.2 2.4,5.8 1.6,1.5 3.6,2.4 5.8,2.4 z"
         clip-path="url(#p12f52910fc-61-8-7)"
         style="fill:#ffff00;fill-opacity:0.6992;stroke-width:1.00284;stroke-linecap:butt;stroke-linejoin:round"
         id="path410-5-9-5" /><path
         d="m 90.7,400.6 c 1.37,0 2.69,-0.5 3.66,-1.5 0.98,-1 1.52,-2.3 1.52,-3.6 0,-1.4 -0.54,-2.7 -1.52,-3.7 -0.97,-1 -2.29,-1.5 -3.66,-1.5 -1.37,0 -2.69,0.5 -3.66,1.5 -0.98,1 -1.52,2.3 -1.52,3.7 0,1.3 0.54,2.6 1.52,3.6 0.97,1 2.29,1.5 3.66,1.5 z"
         clip-path="url(#p12f52910fc-61-8-7)"
         style="fill:#ffff00;fill-opacity:0.6992;stroke-width:1.00284;stroke-linecap:butt;stroke-linejoin:round"
         id="path411-2-0-8" /><path
         d="m 320.6,658.8 c 1.8,0 3.4,-0.7 4.7,-2 1.2,-1.2 1.9,-2.9 1.9,-4.6 0,-1.7 -0.7,-3.4 -1.9,-4.6 -1.3,-1.3 -2.9,-2 -4.7,-2 -1.7,0 -3.4,0.7 -4.6,2 -1.3,1.2 -2,2.9 -2,4.6 0,1.7 0.7,3.4 2,4.6 1.2,1.3 2.9,2 4.6,2 z"
         clip-path="url(#p12f52910fc-61-8-7)"
         style="fill:#ffff00;fill-opacity:0.6992;stroke-width:1.00284;stroke-linecap:butt;stroke-linejoin:round"
         id="path412-0-1-4" /><path
         d="m 294.2,400.8 c 1.3,0 2.6,-0.6 3.6,-1.5 0.9,-0.9 1.4,-2.2 1.4,-3.6 0,-1.3 -0.5,-2.6 -1.4,-3.5 -1,-1 -2.3,-1.5 -3.6,-1.5 -1.3,0 -2.6,0.5 -3.6,1.5 -0.9,0.9 -1.4,2.2 -1.4,3.5 0,1.4 0.5,2.7 1.4,3.6 1,0.9 2.3,1.5 3.6,1.5 z"
         clip-path="url(#p12f52910fc-61-8-7)"
         style="fill:#ffff00;fill-opacity:0.6992;stroke-width:1.00284;stroke-linecap:butt;stroke-linejoin:round"
         id="path413-2-3-0" /><path
         d="m 265.4,403.9 c 1.8,0 3.5,-0.7 4.7,-1.9 1.3,-1.3 2,-3 2,-4.7 0,-1.8 -0.7,-3.5 -2,-4.7 -1.2,-1.3 -2.9,-2 -4.7,-2 -1.7,0 -3.4,0.7 -4.7,2 -1.2,1.2 -1.9,2.9 -1.9,4.7 0,1.7 0.7,3.4 1.9,4.7 1.3,1.2 3,1.9 4.7,1.9 z"
         clip-path="url(#p12f52910fc-61-8-7)"
         style="fill:#ffff00;fill-opacity:0.6992;stroke-width:1.00284;stroke-linecap:butt;stroke-linejoin:round"
         id="path414-9-4-8" /><path
         d="m 529.2,493.4 c 3.2,0 6.3,-1.3 8.5,-3.5 2.3,-2.3 3.6,-5.3 3.6,-8.5 0,-3.2 -1.3,-6.3 -3.6,-8.5 -2.2,-2.3 -5.3,-3.5 -8.5,-3.5 -3.1,0 -6.2,1.2 -8.5,3.5 -2.2,2.2 -3.5,5.3 -3.5,8.5 0,3.2 1.3,6.2 3.5,8.5 2.3,2.2 5.4,3.5 8.5,3.5 z"
         clip-path="url(#p12f52910fc-61-8-7)"
         style="fill:#ffff00;fill-opacity:0.6992;stroke-width:1.00284;stroke-linecap:butt;stroke-linejoin:round"
         id="path415-0-8-4" /><path
         d="m 569.3,513.8 c 1.4,0 2.8,-0.6 3.8,-1.6 1.1,-1 1.6,-2.4 1.6,-3.9 0,-1.4 -0.5,-2.8 -1.6,-3.8 -1,-1.1 -2.4,-1.6 -3.8,-1.6 -1.5,0 -2.9,0.5 -3.9,1.6 -1,1 -1.6,2.4 -1.6,3.8 0,1.5 0.6,2.9 1.6,3.9 1,1 2.4,1.6 3.9,1.6 z"
         clip-path="url(#p12f52910fc-61-8-7)"
         style="fill:#ffff00;fill-opacity:0.6992;stroke-width:1.00284;stroke-linecap:butt;stroke-linejoin:round"
         id="path416-9-5-2" /><path
         d="m 292.2,683.3 c 2.2,0 4.2,-0.9 5.7,-2.4 1.6,-1.5 2.4,-3.6 2.4,-5.7 0,-2.1 -0.8,-4.2 -2.4,-5.7 -1.5,-1.5 -3.5,-2.4 -5.7,-2.4 -2.1,0 -4.2,0.9 -5.7,2.4 -1.5,1.5 -2.4,3.6 -2.4,5.7 0,2.1 0.9,4.2 2.4,5.7 1.5,1.5 3.6,2.4 5.7,2.4 z"
         clip-path="url(#p12f52910fc-61-8-7)"
         style="fill:#ffff00;fill-opacity:0.6992;stroke-width:1.00284;stroke-linecap:butt;stroke-linejoin:round"
         id="path417-9-8-5" /><path
         d="m 404.8,437.3 c 1.4,0 2.7,-0.5 3.7,-1.5 1,-1 1.5,-2.3 1.5,-3.7 0,-1.3 -0.5,-2.7 -1.5,-3.6 -1,-1 -2.3,-1.6 -3.7,-1.6 -1.3,0 -2.7,0.6 -3.6,1.6 -1,0.9 -1.6,2.3 -1.6,3.6 0,1.4 0.6,2.7 1.6,3.7 0.9,1 2.3,1.5 3.6,1.5 z"
         clip-path="url(#p12f52910fc-61-8-7)"
         style="fill:#ffff00;fill-opacity:0.6992;stroke-width:1.00284;stroke-linecap:butt;stroke-linejoin:round"
         id="path418-45-2-4" /><path
         d="m 106.3,396 c 1.8,0 3.5,-0.7 4.8,-2 1.3,-1.2 2,-3 2,-4.8 0,-1.8 -0.7,-3.5 -2,-4.8 -1.3,-1.3 -3,-2 -4.8,-2 -1.8,0 -3.6,0.7 -4.8,2 -1.3,1.3 -2.03,3 -2.03,4.8 0,1.8 0.73,3.6 2.03,4.8 1.2,1.3 3,2 4.8,2 z"
         clip-path="url(#p12f52910fc-61-8-7)"
         style="fill:#ffff00;fill-opacity:0.6992;stroke-width:1.00284;stroke-linecap:butt;stroke-linejoin:round"
         id="path419-1-2-2" /><path
         d="m 123.7,480.6 c 1.4,0 2.7,-0.5 3.7,-1.5 1,-1 1.6,-2.4 1.6,-3.8 0,-1.4 -0.6,-2.8 -1.6,-3.8 -1,-1 -2.3,-1.6 -3.7,-1.6 -1.5,0 -2.8,0.6 -3.8,1.6 -1,1 -1.6,2.4 -1.6,3.8 0,1.4 0.6,2.8 1.6,3.8 1,1 2.3,1.5 3.8,1.5 z"
         clip-path="url(#p12f52910fc-61-8-7)"
         style="fill:#ffff00;fill-opacity:0.6992;stroke-width:1.00284;stroke-linecap:butt;stroke-linejoin:round"
         id="path420-0-0-7" /><path
         d="m 403.2,599.3 c 2.2,0 4.4,-0.9 5.9,-2.5 1.6,-1.6 2.5,-3.7 2.5,-6 0,-2.2 -0.9,-4.4 -2.5,-5.9 -1.5,-1.6 -3.7,-2.5 -5.9,-2.5 -2.3,0 -4.4,0.9 -6,2.5 -1.6,1.5 -2.5,3.7 -2.5,5.9 0,2.3 0.9,4.4 2.5,6 1.6,1.6 3.7,2.5 6,2.5 z"
         clip-path="url(#p12f52910fc-61-8-7)"
         style="fill:#ffff00;fill-opacity:0.6992;stroke-width:1.00284;stroke-linecap:butt;stroke-linejoin:round"
         id="path421-3-6-5" /><path
         d="m 99.77,405.6 c 1.93,0 3.83,-0.7 5.23,-2.1 1.3,-1.4 2.1,-3.3 2.1,-5.2 0,-1.9 -0.8,-3.8 -2.1,-5.2 -1.4,-1.4 -3.3,-2.1 -5.23,-2.1 -1.95,0 -3.81,0.7 -5.19,2.1 -1.37,1.4 -2.15,3.3 -2.15,5.2 0,1.9 0.78,3.8 2.15,5.2 1.38,1.4 3.24,2.1 5.19,2.1 z"
         clip-path="url(#p12f52910fc-61-8-7)"
         style="fill:#ffff00;fill-opacity:0.6992;stroke-width:1.00284;stroke-linecap:butt;stroke-linejoin:round"
         id="path422-7-36-7" /><path
         d="m 442,576.9 c 2.1,0 4.2,-0.8 5.7,-2.4 1.5,-1.5 2.4,-3.5 2.4,-5.7 0,-2.1 -0.9,-4.2 -2.4,-5.7 -1.5,-1.5 -3.6,-2.4 -5.7,-2.4 -2.2,0 -4.2,0.9 -5.8,2.4 -1.5,1.5 -2.3,3.6 -2.3,5.7 0,2.2 0.8,4.2 2.3,5.7 1.6,1.6 3.6,2.4 5.8,2.4 z"
         clip-path="url(#p12f52910fc-61-8-7)"
         style="fill:#ffff00;fill-opacity:0.6992;stroke-width:1.00284;stroke-linecap:butt;stroke-linejoin:round"
         id="path423-8-1-5" /><path
         d="m 529.2,492.2 c 2.8,0 5.6,-1.2 7.6,-3.2 2,-2 3.2,-4.8 3.2,-7.6 0,-2.9 -1.2,-5.6 -3.2,-7.7 -2,-2 -4.8,-3.1 -7.6,-3.1 -2.9,0 -5.6,1.1 -7.7,3.1 -2,2.1 -3.1,4.8 -3.1,7.7 0,2.8 1.1,5.6 3.1,7.6 2.1,2 4.8,3.2 7.7,3.2 z"
         clip-path="url(#p12f52910fc-61-8-7)"
         style="fill:#ffff00;fill-opacity:0.6992;stroke-width:1.00284;stroke-linecap:butt;stroke-linejoin:round"
         id="path424-8-0-2" /><path
         d="m 243.4,386.3 c 6.3,0 12.3,-2.5 16.7,-7 4.5,-4.4 7,-10.4 7,-16.7 0,-6.3 -2.5,-12.3 -7,-16.8 -4.4,-4.4 -10.4,-6.9 -16.7,-6.9 -6.3,0 -12.3,2.5 -16.8,6.9 -4.4,4.5 -6.9,10.5 -6.9,16.8 0,6.3 2.5,12.3 6.9,16.7 4.5,4.5 10.5,7 16.8,7 z"
         clip-path="url(#p12f52910fc-61-8-7)"
         style="fill:#ffff00;fill-opacity:0.6992;stroke-width:1.00284;stroke-linecap:butt;stroke-linejoin:round"
         id="path425-6-5-2" /><path
         d="m 422.4,273.3 c 2.2,0 4.3,-0.9 5.8,-2.4 1.5,-1.6 2.4,-3.6 2.4,-5.8 0,-2.1 -0.9,-4.2 -2.4,-5.7 -1.5,-1.6 -3.6,-2.4 -5.8,-2.4 -2.1,0 -4.2,0.8 -5.7,2.4 -1.5,1.5 -2.4,3.6 -2.4,5.7 0,2.2 0.9,4.2 2.4,5.8 1.5,1.5 3.6,2.4 5.7,2.4 z"
         clip-path="url(#p12f52910fc-61-8-7)"
         style="fill:#ffff00;fill-opacity:0.6992;stroke-width:1.00284;stroke-linecap:butt;stroke-linejoin:round"
         id="path426-0-74-8" /><path
         d="m 336.5,251.3 c 1.4,0 2.7,-0.6 3.7,-1.5 0.9,-1 1.5,-2.3 1.5,-3.7 0,-1.3 -0.6,-2.6 -1.5,-3.6 -1,-0.9 -2.3,-1.5 -3.7,-1.5 -1.3,0 -2.6,0.6 -3.6,1.5 -1,1 -1.5,2.3 -1.5,3.6 0,1.4 0.5,2.7 1.5,3.7 1,0.9 2.3,1.5 3.6,1.5 z"
         clip-path="url(#p12f52910fc-61-8-7)"
         style="fill:#ffff00;fill-opacity:0.6992;stroke-width:1.00284;stroke-linecap:butt;stroke-linejoin:round"
         id="path427-4-2-6" /><path
         d="m 141.3,408.6 c 1.3,0 2.6,-0.5 3.6,-1.5 0.9,-0.9 1.4,-2.2 1.4,-3.6 0,-1.3 -0.5,-2.6 -1.4,-3.5 -1,-1 -2.3,-1.5 -3.6,-1.5 -1.3,0 -2.6,0.5 -3.6,1.5 -0.9,0.9 -1.4,2.2 -1.4,3.5 0,1.4 0.5,2.7 1.4,3.6 1,1 2.3,1.5 3.6,1.5 z"
         clip-path="url(#p12f52910fc-61-8-7)"
         style="fill:#ffff00;fill-opacity:0.6992;stroke-width:1.00284;stroke-linecap:butt;stroke-linejoin:round"
         id="path428-6-0-6" /><path
         d="m 471.4,508.9 c 1.7,0 3.4,-0.7 4.6,-2 1.3,-1.2 2,-2.9 2,-4.6 0,-1.7 -0.7,-3.4 -2,-4.6 -1.2,-1.3 -2.9,-2 -4.6,-2 -1.8,0 -3.4,0.7 -4.7,2 -1.2,1.2 -1.9,2.9 -1.9,4.6 0,1.7 0.7,3.4 1.9,4.6 1.3,1.3 2.9,2 4.7,2 z"
         clip-path="url(#p12f52910fc-61-8-7)"
         style="fill:#ffff00;fill-opacity:0.6992;stroke-width:1.00284;stroke-linecap:butt;stroke-linejoin:round"
         id="path429-7-0-0" /><path
         d="m 379.8,644.2 c 1.9,0 3.6,-0.7 4.9,-2 1.4,-1.3 2.1,-3.1 2.1,-4.9 0,-1.9 -0.7,-3.7 -2.1,-5 -1.3,-1.3 -3,-2 -4.9,-2 -1.8,0 -3.6,0.7 -4.9,2 -1.3,1.3 -2,3.1 -2,5 0,1.8 0.7,3.6 2,4.9 1.3,1.3 3.1,2 4.9,2 z"
         clip-path="url(#p12f52910fc-61-8-7)"
         style="fill:#ffff00;fill-opacity:0.6992;stroke-width:1.00284;stroke-linecap:butt;stroke-linejoin:round"
         id="path430-6-3-0" /><path
         d="m 538.6,479 c 2,0 3.8,-0.8 5.1,-2.1 1.4,-1.4 2.1,-3.2 2.1,-5.1 0,-1.9 -0.7,-3.7 -2.1,-5.1 -1.3,-1.3 -3.1,-2.1 -5.1,-2.1 -1.9,0 -3.7,0.8 -5,2.1 -1.4,1.4 -2.1,3.2 -2.1,5.1 0,1.9 0.7,3.7 2.1,5.1 1.3,1.3 3.1,2.1 5,2.1 z"
         clip-path="url(#p12f52910fc-61-8-7)"
         style="fill:#ffff00;fill-opacity:0.6992;stroke-width:1.00284;stroke-linecap:butt;stroke-linejoin:round"
         id="path431-0-3-9" /><path
         d="m 218.5,757.9 c 2.4,0 4.7,-1 6.5,-2.7 1.7,-1.7 2.6,-4.1 2.6,-6.5 0,-2.4 -0.9,-4.7 -2.6,-6.5 -1.8,-1.7 -4.1,-2.6 -6.5,-2.6 -2.4,0 -4.8,0.9 -6.5,2.6 -1.7,1.8 -2.7,4.1 -2.7,6.5 0,2.4 1,4.8 2.7,6.5 1.7,1.7 4.1,2.7 6.5,2.7 z"
         clip-path="url(#p12f52910fc-61-8-7)"
         style="fill:#ffff00;fill-opacity:0.6992;stroke-width:1.00284;stroke-linecap:butt;stroke-linejoin:round"
         id="path432-9-9-1" /><path
         d="m 391.3,602.8 c 4.4,0 8.6,-1.7 11.7,-4.9 3.2,-3.1 4.9,-7.3 4.9,-11.7 0,-4.4 -1.7,-8.6 -4.9,-11.7 -3.1,-3.1 -7.3,-4.9 -11.7,-4.9 -4.4,0 -8.6,1.8 -11.7,4.9 -3.1,3.1 -4.9,7.3 -4.9,11.7 0,4.4 1.8,8.6 4.9,11.7 3.1,3.2 7.3,4.9 11.7,4.9 z"
         clip-path="url(#p12f52910fc-61-8-7)"
         style="fill:#ffff00;fill-opacity:0.6992;stroke-width:1.00284;stroke-linecap:butt;stroke-linejoin:round"
         id="path433-7-0-2" /><path
         d="m 561.8,504.3 c 2.3,0 4.5,-0.9 6.1,-2.5 1.7,-1.6 2.6,-3.8 2.6,-6.1 0,-2.3 -0.9,-4.5 -2.6,-6.1 -1.6,-1.7 -3.8,-2.6 -6.1,-2.6 -2.3,0 -4.5,0.9 -6.1,2.6 -1.6,1.6 -2.5,3.8 -2.5,6.1 0,2.3 0.9,4.5 2.5,6.1 1.6,1.6 3.8,2.5 6.1,2.5 z"
         clip-path="url(#p12f52910fc-61-8-7)"
         style="fill:#ffff00;fill-opacity:0.6992;stroke-width:1.00284;stroke-linecap:butt;stroke-linejoin:round"
         id="path434-5-4-6" /><path
         d="m 470.7,487 c 2.3,0 4.5,-0.9 6.1,-2.5 1.6,-1.7 2.6,-3.9 2.6,-6.1 0,-2.3 -1,-4.5 -2.6,-6.1 -1.6,-1.7 -3.8,-2.6 -6.1,-2.6 -2.3,0 -4.5,0.9 -6.1,2.6 -1.6,1.6 -2.5,3.8 -2.5,6.1 0,2.2 0.9,4.4 2.5,6.1 1.6,1.6 3.8,2.5 6.1,2.5 z"
         clip-path="url(#p12f52910fc-61-8-7)"
         style="fill:#ffff00;fill-opacity:0.6992;stroke-width:1.00284;stroke-linecap:butt;stroke-linejoin:round"
         id="path435-9-3-9" /><path
         d="m 438.7,564.6 c 4.2,0 8.3,-1.7 11.3,-4.7 3,-3 4.7,-7 4.7,-11.3 0,-4.2 -1.7,-8.3 -4.7,-11.3 -3,-3 -7.1,-4.7 -11.3,-4.7 -4.3,0 -8.4,1.7 -11.4,4.7 -3,3 -4.6,7.1 -4.6,11.3 0,4.3 1.6,8.3 4.6,11.3 3,3 7.1,4.7 11.4,4.7 z"
         clip-path="url(#p12f52910fc-61-8-7)"
         style="fill:#ffff00;fill-opacity:0.6992;stroke-width:1.00284;stroke-linecap:butt;stroke-linejoin:round"
         id="path436-7-3-4" /><path
         d="m 559,523.8 c 3.5,0 6.8,-1.4 9.2,-3.8 2.5,-2.5 3.8,-5.8 3.8,-9.2 0,-3.5 -1.3,-6.8 -3.8,-9.2 -2.4,-2.4 -5.7,-3.8 -9.2,-3.8 -3.4,0 -6.7,1.4 -9.2,3.8 -2.4,2.4 -3.8,5.7 -3.8,9.2 0,3.4 1.4,6.7 3.8,9.2 2.5,2.4 5.8,3.8 9.2,3.8 z"
         clip-path="url(#p12f52910fc-61-8-7)"
         style="fill:#ffff00;fill-opacity:0.6992;stroke-width:1.00284;stroke-linecap:butt;stroke-linejoin:round"
         id="path437-8-42-8" /><path
         d="m 706.1,272 c 4.2,0 8.2,-1.7 11.2,-4.6 2.9,-3 4.6,-7 4.6,-11.2 0,-4.1 -1.7,-8.1 -4.6,-11.1 -3,-2.9 -7,-4.6 -11.2,-4.6 -4.1,0 -8.1,1.7 -11.1,4.6 -2.9,3 -4.6,7 -4.6,11.1 0,4.2 1.7,8.2 4.6,11.2 3,2.9 7,4.6 11.1,4.6 z"
         clip-path="url(#p12f52910fc-61-8-7)"
         style="fill:#ffff00;fill-opacity:0.6992;stroke-width:1.00284;stroke-linecap:butt;stroke-linejoin:round"
         id="path438-5-4-2" /><path
         d="m 508.5,481.7 c 2.3,0 4.4,-0.9 6,-2.5 1.6,-1.6 2.5,-3.8 2.5,-6 0,-2.3 -0.9,-4.4 -2.5,-6 -1.6,-1.6 -3.7,-2.5 -6,-2.5 -2.2,0 -4.4,0.9 -5.9,2.5 -1.6,1.6 -2.5,3.7 -2.5,6 0,2.2 0.9,4.4 2.5,6 1.5,1.6 3.7,2.5 5.9,2.5 z"
         clip-path="url(#p12f52910fc-61-8-7)"
         style="fill:#ffff00;fill-opacity:0.6992;stroke-width:1.00284;stroke-linecap:butt;stroke-linejoin:round"
         id="path439-3-5-8" /><path
         d="m 597.8,288.7 c 2.4,0 4.7,-0.9 6.4,-2.6 1.7,-1.7 2.6,-4 2.6,-6.4 0,-2.3 -0.9,-4.6 -2.6,-6.3 -1.7,-1.7 -4,-2.7 -6.4,-2.7 -2.4,0 -4.7,1 -6.4,2.7 -1.7,1.7 -2.6,4 -2.6,6.3 0,2.4 0.9,4.7 2.6,6.4 1.7,1.7 4,2.6 6.4,2.6 z"
         clip-path="url(#p12f52910fc-61-8-7)"
         style="fill:#ffff00;fill-opacity:0.6992;stroke-width:1.00284;stroke-linecap:butt;stroke-linejoin:round"
         id="path440-3-3-2" /><path
         d="m 538.2,516.1 c 4.8,0 9.4,-1.9 12.8,-5.3 3.4,-3.4 5.3,-8 5.3,-12.8 0,-4.8 -1.9,-9.4 -5.3,-12.8 -3.4,-3.4 -8,-5.3 -12.8,-5.3 -4.8,0 -9.4,1.9 -12.8,5.3 -3.4,3.4 -5.3,8 -5.3,12.8 0,4.8 1.9,9.4 5.3,12.8 3.4,3.4 8,5.3 12.8,5.3 z"
         clip-path="url(#p12f52910fc-61-8-7)"
         style="fill:#ffff00;fill-opacity:0.6992;stroke-width:1.00284;stroke-linecap:butt;stroke-linejoin:round"
         id="path441-8-8-7" /><path
         d="m 443.7,563.4 c 5.1,0 10,-2 13.6,-5.6 3.6,-3.6 5.6,-8.5 5.6,-13.6 0,-5.1 -2,-10 -5.6,-13.6 -3.6,-3.6 -8.5,-5.6 -13.6,-5.6 -5.1,0 -10,2 -13.6,5.6 -3.6,3.6 -5.6,8.5 -5.6,13.6 0,5.1 2,10 5.6,13.6 3.6,3.6 8.5,5.6 13.6,5.6 z"
         clip-path="url(#p12f52910fc-61-8-7)"
         style="fill:#ffff00;fill-opacity:0.6992;stroke-width:1.00284;stroke-linecap:butt;stroke-linejoin:round"
         id="path442-3-11-8" /><path
         d="m 515.7,515.2 c 6,0 11.8,-2.4 16.1,-6.6 4.3,-4.3 6.7,-10.1 6.7,-16.2 0,-6.1 -2.4,-11.9 -6.7,-16.1 -4.3,-4.3 -10.1,-6.7 -16.1,-6.7 -6.1,0 -11.9,2.4 -16.2,6.7 -4.3,4.2 -6.7,10 -6.7,16.1 0,6.1 2.4,11.9 6.7,16.2 4.3,4.2 10.1,6.6 16.2,6.6 z"
         clip-path="url(#p12f52910fc-61-8-7)"
         style="fill:#ffff00;fill-opacity:0.6992;stroke-width:1.00284;stroke-linecap:butt;stroke-linejoin:round"
         id="path443-7-3-6" /><path
         d="m 543.8,427 c 4.5,0 8.9,-1.8 12.1,-5 3.2,-3.2 5.1,-7.6 5.1,-12.2 0,-4.5 -1.9,-8.9 -5.1,-12.1 -3.2,-3.3 -7.6,-5.1 -12.1,-5.1 -4.6,0 -9,1.8 -12.2,5.1 -3.2,3.2 -5.1,7.6 -5.1,12.1 0,4.6 1.9,9 5.1,12.2 3.2,3.2 7.6,5 12.2,5 z"
         clip-path="url(#p12f52910fc-61-8-7)"
         style="fill:#ffff00;fill-opacity:0.6992;stroke-width:1.00284;stroke-linecap:butt;stroke-linejoin:round"
         id="path444-9-1-7" /><path
         d="m 542.1,489.3 c 4.3,0 8.3,-1.7 11.3,-4.7 3,-3 4.7,-7 4.7,-11.3 0,-4.2 -1.7,-8.3 -4.7,-11.3 -3,-3 -7,-4.7 -11.3,-4.7 -4.2,0 -8.3,1.7 -11.3,4.7 -3,3 -4.7,7.1 -4.7,11.3 0,4.3 1.7,8.3 4.7,11.3 3,3 7.1,4.7 11.3,4.7 z"
         clip-path="url(#p12f52910fc-61-8-7)"
         style="fill:#ffff00;fill-opacity:0.6992;stroke-width:1.00284;stroke-linecap:butt;stroke-linejoin:round"
         id="path445-3-5-7" /><path
         d="m 538.4,491.7 c 3.8,0 7.4,-1.5 10.1,-4.2 2.7,-2.7 4.2,-6.3 4.2,-10.1 0,-3.8 -1.5,-7.5 -4.2,-10.2 -2.7,-2.6 -6.3,-4.2 -10.1,-4.2 -3.8,0 -7.5,1.6 -10.1,4.2 -2.7,2.7 -4.2,6.4 -4.2,10.2 0,3.8 1.5,7.4 4.2,10.1 2.6,2.7 6.3,4.2 10.1,4.2 z"
         clip-path="url(#p12f52910fc-61-8-7)"
         style="fill:#ffff00;fill-opacity:0.6992;stroke-width:1.00284;stroke-linecap:butt;stroke-linejoin:round"
         id="path446-7-8-0" /><path
         d="m 369,623.8 c 4.7,0 9.2,-1.8 12.5,-5.1 3.2,-3.3 5.1,-7.8 5.1,-12.4 0,-4.7 -1.9,-9.1 -5.1,-12.4 -3.3,-3.3 -7.8,-5.2 -12.5,-5.2 -4.6,0 -9.1,1.9 -12.4,5.2 -3.2,3.3 -5.1,7.7 -5.1,12.4 0,4.6 1.9,9.1 5.1,12.4 3.3,3.3 7.8,5.1 12.4,5.1 z"
         clip-path="url(#p12f52910fc-61-8-7)"
         style="fill:#ffff00;fill-opacity:0.6992;stroke-width:1.00284;stroke-linecap:butt;stroke-linejoin:round"
         id="path447-8-1-9" /><path
         d="m 606.6,366.1 c 4.4,0 8.6,-1.8 11.6,-4.9 3.1,-3.1 4.9,-7.3 4.9,-11.6 0,-4.4 -1.8,-8.6 -4.9,-11.7 -3,-3.1 -7.2,-4.8 -11.6,-4.8 -4.4,0 -8.6,1.7 -11.7,4.8 -3.1,3.1 -4.8,7.3 -4.8,11.7 0,4.3 1.7,8.5 4.8,11.6 3.1,3.1 7.3,4.9 11.7,4.9 z"
         clip-path="url(#p12f52910fc-61-8-7)"
         style="fill:#ffff00;fill-opacity:0.6992;stroke-width:1.00284;stroke-linecap:butt;stroke-linejoin:round"
         id="path448-7-3-4" /><path
         d="m 571.2,480.7 c 4.8,0 9.3,-1.9 12.7,-5.3 3.3,-3.3 5.2,-7.9 5.2,-12.6 0,-4.7 -1.9,-9.3 -5.2,-12.6 -3.4,-3.4 -7.9,-5.3 -12.7,-5.3 -4.7,0 -9.2,1.9 -12.6,5.3 -3.3,3.3 -5.2,7.9 -5.2,12.6 0,4.7 1.9,9.3 5.2,12.6 3.4,3.4 7.9,5.3 12.6,5.3 z"
         clip-path="url(#p12f52910fc-61-8-7)"
         style="fill:#ffff00;fill-opacity:0.6992;stroke-width:1.00284;stroke-linecap:butt;stroke-linejoin:round"
         id="path449-4-3-5" /><path
         d="m 396.1,607 c 7.3,0 14.2,-2.9 19.4,-8.1 5.1,-5.1 8,-12.1 8,-19.3 0,-7.3 -2.9,-14.3 -8,-19.4 -5.2,-5.1 -12.1,-8 -19.4,-8 -7.3,0 -14.2,2.9 -19.4,8 -5.1,5.1 -8,12.1 -8,19.4 0,7.2 2.9,14.2 8,19.3 5.2,5.2 12.1,8.1 19.4,8.1 z"
         clip-path="url(#p12f52910fc-61-8-7)"
         style="fill:#ffff00;fill-opacity:0.6992;stroke-width:1.00284;stroke-linecap:butt;stroke-linejoin:round"
         id="path450-1-9-4" /><path
         d="m 398.9,479.5 c 5.1,0 10,-2 13.5,-5.6 3.6,-3.6 5.6,-8.5 5.6,-13.6 0,-5 -2,-9.9 -5.6,-13.5 -3.5,-3.6 -8.4,-5.6 -13.5,-5.6 -5.1,0 -9.9,2 -13.5,5.6 -3.6,3.6 -5.6,8.5 -5.6,13.5 0,5.1 2,10 5.6,13.6 3.6,3.6 8.4,5.6 13.5,5.6 z"
         clip-path="url(#p12f52910fc-61-8-7)"
         style="fill:#ffff00;fill-opacity:0.6992;stroke-width:1.00284;stroke-linecap:butt;stroke-linejoin:round"
         id="path451-9-7-2" /><path
         d="m 459.5,532.3 c 1.6,0 3.1,-0.7 4.3,-1.8 1.1,-1.1 1.7,-2.6 1.7,-4.2 0,-1.6 -0.6,-3.1 -1.7,-4.3 -1.2,-1.1 -2.7,-1.7 -4.3,-1.7 -1.6,0 -3.1,0.6 -4.2,1.7 -1.1,1.2 -1.8,2.7 -1.8,4.3 0,1.6 0.7,3.1 1.8,4.2 1.1,1.1 2.6,1.8 4.2,1.8 z"
         clip-path="url(#p12f52910fc-61-8-7)"
         style="fill:#ffff00;fill-opacity:0.6992;stroke-width:1.00284;stroke-linecap:butt;stroke-linejoin:round"
         id="path452-0-5-2" /><path
         d="m 580.8,405.4 c 3.1,0 6.1,-1.2 8.3,-3.4 2.1,-2.2 3.4,-5.1 3.4,-8.2 0,-3.1 -1.3,-6.1 -3.4,-8.2 -2.2,-2.2 -5.2,-3.5 -8.3,-3.5 -3.1,0 -6,1.3 -8.2,3.5 -2.2,2.1 -3.4,5.1 -3.4,8.2 0,3.1 1.2,6 3.4,8.2 2.2,2.2 5.1,3.4 8.2,3.4 z"
         clip-path="url(#p12f52910fc-61-8-7)"
         style="fill:#ffff00;fill-opacity:0.6992;stroke-width:1.00284;stroke-linecap:butt;stroke-linejoin:round"
         id="path453-9-4-3" /><path
         d="m 404.1,599.2 c 1.6,0 3.1,-0.6 4.2,-1.7 1.1,-1.1 1.7,-2.6 1.7,-4.2 0,-1.5 -0.6,-3.1 -1.7,-4.2 -1.1,-1.1 -2.6,-1.7 -4.2,-1.7 -1.6,0 -3.1,0.6 -4.2,1.7 -1.1,1.1 -1.7,2.7 -1.7,4.2 0,1.6 0.6,3.1 1.7,4.2 1.1,1.1 2.6,1.7 4.2,1.7 z"
         clip-path="url(#p12f52910fc-61-8-7)"
         style="fill:#ffff00;fill-opacity:0.6992;stroke-width:1.00284;stroke-linecap:butt;stroke-linejoin:round"
         id="path454-8-4-9" /><path
         d="m 432.2,584.8 c 1.4,0 2.8,-0.6 3.8,-1.6 1.1,-1.1 1.6,-2.5 1.6,-3.9 0,-1.5 -0.5,-2.9 -1.6,-3.9 -1,-1 -2.4,-1.6 -3.8,-1.6 -1.5,0 -2.9,0.6 -3.9,1.6 -1,1 -1.6,2.4 -1.6,3.9 0,1.4 0.6,2.8 1.6,3.9 1,1 2.4,1.6 3.9,1.6 z"
         clip-path="url(#p12f52910fc-61-8-7)"
         style="fill:#ffff00;fill-opacity:0.6992;stroke-width:1.00284;stroke-linecap:butt;stroke-linejoin:round"
         id="path455-8-9-6" /><path
         d="m 457.7,570.6 c 1.3,0 2.6,-0.5 3.5,-1.4 1,-1 1.5,-2.3 1.5,-3.6 0,-1.3 -0.5,-2.6 -1.5,-3.5 -0.9,-1 -2.2,-1.5 -3.5,-1.5 -1.3,0 -2.6,0.5 -3.6,1.5 -0.9,0.9 -1.4,2.2 -1.4,3.5 0,1.3 0.5,2.6 1.4,3.6 1,0.9 2.3,1.4 3.6,1.4 z"
         clip-path="url(#p12f52910fc-61-8-7)"
         style="fill:#ffff00;fill-opacity:0.6992;stroke-width:1.00284;stroke-linecap:butt;stroke-linejoin:round"
         id="path456-58-6-5" /><path
         d="m 379.9,644.1 c 1.9,0 3.6,-0.7 4.9,-2.1 1.4,-1.3 2.1,-3 2.1,-4.9 0,-1.8 -0.7,-3.6 -2.1,-4.9 -1.3,-1.3 -3,-2.1 -4.9,-2.1 -1.8,0 -3.6,0.8 -4.9,2.1 -1.3,1.3 -2.1,3.1 -2.1,4.9 0,1.9 0.8,3.6 2.1,4.9 1.3,1.4 3.1,2.1 4.9,2.1 z"
         clip-path="url(#p12f52910fc-61-8-7)"
         style="fill:#ffff00;fill-opacity:0.6992;stroke-width:1.00284;stroke-linecap:butt;stroke-linejoin:round"
         id="path457-4-7-7" /><path
         d="m 487,559.1 c 1.4,0 2.8,-0.6 3.8,-1.6 1,-1 1.6,-2.4 1.6,-3.8 0,-1.5 -0.6,-2.8 -1.6,-3.9 -1,-1 -2.4,-1.5 -3.8,-1.5 -1.5,0 -2.9,0.5 -3.9,1.5 -1,1.1 -1.6,2.4 -1.6,3.9 0,1.4 0.6,2.8 1.6,3.8 1,1 2.4,1.6 3.9,1.6 z"
         clip-path="url(#p12f52910fc-61-8-7)"
         style="fill:#ffff00;fill-opacity:0.6992;stroke-width:1.00284;stroke-linecap:butt;stroke-linejoin:round"
         id="path458-3-2-4" /><path
         d="m 415.7,596.2 c 1.5,0 2.9,-0.6 3.9,-1.6 1.1,-1.1 1.7,-2.5 1.7,-3.9 0,-1.5 -0.6,-2.9 -1.7,-4 -1,-1 -2.4,-1.6 -3.9,-1.6 -1.5,0 -2.9,0.6 -3.9,1.6 -1.1,1.1 -1.6,2.5 -1.6,4 0,1.4 0.5,2.8 1.6,3.9 1,1 2.4,1.6 3.9,1.6 z"
         clip-path="url(#p12f52910fc-61-8-7)"
         style="fill:#ffff00;fill-opacity:0.6992;stroke-width:1.00284;stroke-linecap:butt;stroke-linejoin:round"
         id="path459-7-1-3" /><path
         d="m 442.3,545.2 c 5.7,0 11.2,-2.3 15.3,-6.3 4,-4 6.3,-9.5 6.3,-15.2 0,-5.7 -2.3,-11.2 -6.3,-15.3 -4.1,-4 -9.6,-6.3 -15.3,-6.3 -5.7,0 -11.2,2.3 -15.2,6.3 -4.1,4.1 -6.3,9.6 -6.3,15.3 0,5.7 2.2,11.2 6.3,15.2 4,4 9.5,6.3 15.2,6.3 z"
         clip-path="url(#p12f52910fc-61-8-7)"
         style="fill:#ffff00;fill-opacity:0.6992;stroke-width:1.00284;stroke-linecap:butt;stroke-linejoin:round"
         id="path460-13-0-9" /><path
         d="m 426.5,589 c 1.5,0 3,-0.6 4,-1.7 1.1,-1.1 1.7,-2.5 1.7,-4.1 0,-1.5 -0.6,-3 -1.7,-4 -1,-1.1 -2.5,-1.7 -4,-1.7 -1.6,0 -3,0.6 -4.1,1.7 -1.1,1 -1.7,2.5 -1.7,4 0,1.6 0.6,3 1.7,4.1 1.1,1.1 2.5,1.7 4.1,1.7 z"
         clip-path="url(#p12f52910fc-61-8-7)"
         style="fill:#ffff00;fill-opacity:0.6992;stroke-width:1.00284;stroke-linecap:butt;stroke-linejoin:round"
         id="path461-8-1-4" /><path
         d="m 395.5,597.4 c 4.8,0 9.5,-1.9 12.9,-5.4 3.5,-3.4 5.4,-8.1 5.4,-12.9 0,-4.9 -1.9,-9.6 -5.4,-13 -3.4,-3.4 -8.1,-5.4 -12.9,-5.4 -4.9,0 -9.6,2 -13,5.4 -3.4,3.4 -5.4,8.1 -5.4,13 0,4.8 2,9.5 5.4,12.9 3.4,3.5 8.1,5.4 13,5.4 z"
         clip-path="url(#p12f52910fc-61-8-7)"
         style="fill:#ffff00;fill-opacity:0.6992;stroke-width:1.00284;stroke-linecap:butt;stroke-linejoin:round"
         id="path462-0-3-4" /><path
         d="m 453.2,590.4 c 3.6,0 7,-1.5 9.5,-3.9 2.5,-2.5 3.9,-5.9 3.9,-9.5 0,-3.5 -1.4,-6.9 -3.9,-9.4 -2.5,-2.5 -5.9,-3.9 -9.5,-3.9 -3.5,0 -6.9,1.4 -9.4,3.9 -2.5,2.5 -3.9,5.9 -3.9,9.4 0,3.6 1.4,7 3.9,9.5 2.5,2.4 5.9,3.9 9.4,3.9 z"
         clip-path="url(#p12f52910fc-61-8-7)"
         style="fill:#ffff00;fill-opacity:0.6992;stroke-width:1.00284;stroke-linecap:butt;stroke-linejoin:round"
         id="path463-9-7-0" /><path
         d="m 404.8,449.1 c 4.5,0 8.8,-1.8 12,-5 3.2,-3.2 5,-7.5 5,-12 0,-4.4 -1.8,-8.7 -5,-11.9 -3.2,-3.2 -7.5,-5 -12,-5 -4.4,0 -8.7,1.8 -11.9,5 -3.2,3.2 -5,7.5 -5,11.9 0,4.5 1.8,8.8 5,12 3.2,3.2 7.5,5 11.9,5 z"
         clip-path="url(#p12f52910fc-61-8-7)"
         style="fill:#ffff00;fill-opacity:0.6992;stroke-width:1.00284;stroke-linecap:butt;stroke-linejoin:round"
         id="path464-7-7-6" /><path
         d="m 447.2,524.1 c 1.4,0 2.8,-0.6 3.9,-1.6 1,-1 1.6,-2.4 1.6,-3.9 0,-1.4 -0.6,-2.8 -1.6,-3.9 -1.1,-1 -2.5,-1.6 -3.9,-1.6 -1.5,0 -2.9,0.6 -3.9,1.6 -1,1.1 -1.6,2.5 -1.6,3.9 0,1.5 0.6,2.9 1.6,3.9 1,1 2.4,1.6 3.9,1.6 z"
         clip-path="url(#p12f52910fc-61-8-7)"
         style="fill:#ffff00;fill-opacity:0.6992;stroke-width:1.00284;stroke-linecap:butt;stroke-linejoin:round"
         id="path465-9-6-0" /><path
         d="m 473.8,534.3 c 4.3,0 8.5,-1.7 11.6,-4.8 3,-3.1 4.8,-7.2 4.8,-11.6 0,-4.3 -1.8,-8.5 -4.8,-11.6 -3.1,-3.1 -7.3,-4.8 -11.6,-4.8 -4.4,0 -8.5,1.7 -11.6,4.8 -3.1,3.1 -4.8,7.3 -4.8,11.6 0,4.4 1.7,8.5 4.8,11.6 3.1,3.1 7.2,4.8 11.6,4.8 z"
         clip-path="url(#p12f52910fc-61-8-7)"
         style="fill:#ffff00;fill-opacity:0.6992;stroke-width:1.00284;stroke-linecap:butt;stroke-linejoin:round"
         id="path466-9-3-2" /><path
         d="m 217,775.2 c 4.9,0 9.6,-2 13.1,-5.4 3.5,-3.5 5.4,-8.2 5.4,-13.1 0,-4.9 -1.9,-9.6 -5.4,-13.1 -3.5,-3.5 -8.2,-5.4 -13.1,-5.4 -4.9,0 -9.6,1.9 -13,5.4 -3.5,3.5 -5.4,8.2 -5.4,13.1 0,4.9 1.9,9.6 5.4,13.1 3.4,3.4 8.1,5.4 13,5.4 z"
         clip-path="url(#p12f52910fc-61-8-7)"
         style="fill:#ffff00;fill-opacity:0.6992;stroke-width:1.00284;stroke-linecap:butt;stroke-linejoin:round"
         id="path467-3-9-2" /><path
         d="m 363.7,550 c 5.6,0 10.9,-2.2 14.8,-6.1 3.9,-3.9 6.1,-9.2 6.1,-14.7 0,-5.5 -2.2,-10.8 -6.1,-14.7 -3.9,-3.9 -9.2,-6.1 -14.8,-6.1 -5.5,0 -10.8,2.2 -14.7,6.1 -3.9,3.9 -6.1,9.2 -6.1,14.7 0,5.5 2.2,10.8 6.1,14.7 3.9,3.9 9.2,6.1 14.7,6.1 z"
         clip-path="url(#p12f52910fc-61-8-7)"
         style="fill:#ffff00;fill-opacity:0.6992;stroke-width:1.00284;stroke-linecap:butt;stroke-linejoin:round"
         id="path468-2-1-8" /><path
         d="m 316.9,666.5 c 3.1,0 6.1,-1.2 8.3,-3.4 2.2,-2.2 3.4,-5.1 3.4,-8.2 0,-3.1 -1.2,-6.1 -3.4,-8.3 -2.2,-2.2 -5.2,-3.4 -8.3,-3.4 -3.1,0 -6.1,1.2 -8.3,3.4 -2.2,2.2 -3.4,5.2 -3.4,8.3 0,3.1 1.2,6 3.4,8.2 2.2,2.2 5.2,3.4 8.3,3.4 z"
         clip-path="url(#p12f52910fc-61-8-7)"
         style="fill:#ffff00;fill-opacity:0.6992;stroke-width:1.00284;stroke-linecap:butt;stroke-linejoin:round"
         id="path469-43-0-4" /><path
         d="m 384.4,599.7 c 2.6,0 5.1,-1 6.9,-2.9 1.8,-1.8 2.9,-4.3 2.9,-6.9 0,-2.5 -1.1,-5 -2.9,-6.8 -1.8,-1.9 -4.3,-2.9 -6.9,-2.9 -2.6,0 -5,1 -6.9,2.9 -1.8,1.8 -2.8,4.3 -2.8,6.8 0,2.6 1,5.1 2.8,6.9 1.9,1.9 4.3,2.9 6.9,2.9 z"
         clip-path="url(#p12f52910fc-61-8-7)"
         style="fill:#ffff00;fill-opacity:0.6992;stroke-width:1.00284;stroke-linecap:butt;stroke-linejoin:round"
         id="path470-7-4-3" /><path
         d="m 414.9,527.5 c 5.2,0 10.1,-2.1 13.7,-5.7 3.7,-3.6 5.7,-8.6 5.7,-13.7 0,-5.2 -2,-10.1 -5.7,-13.7 -3.6,-3.7 -8.5,-5.7 -13.7,-5.7 -5.1,0 -10,2 -13.7,5.7 -3.6,3.6 -5.6,8.5 -5.6,13.7 0,5.1 2,10.1 5.6,13.7 3.7,3.6 8.6,5.7 13.7,5.7 z"
         clip-path="url(#p12f52910fc-61-8-7)"
         style="fill:#ffff00;fill-opacity:0.6992;stroke-width:1.00284;stroke-linecap:butt;stroke-linejoin:round"
         id="path471-1-1-1" /><path
         d="m 300.3,717 c 2.6,0 5.1,-1 6.9,-2.9 1.9,-1.8 2.9,-4.3 2.9,-6.9 0,-2.6 -1,-5.1 -2.9,-6.9 -1.8,-1.9 -4.3,-2.9 -6.9,-2.9 -2.6,0 -5.1,1 -7,2.9 -1.8,1.8 -2.8,4.3 -2.8,6.9 0,2.6 1,5.1 2.8,6.9 1.9,1.9 4.4,2.9 7,2.9 z"
         clip-path="url(#p12f52910fc-61-8-7)"
         style="fill:#ffff00;fill-opacity:0.6992;stroke-width:1.00284;stroke-linecap:butt;stroke-linejoin:round"
         id="path472-2-1-1" /><path
         d="m 370.8,618.9 c 4.8,0 9.4,-1.9 12.7,-5.2 3.4,-3.4 5.3,-8 5.3,-12.7 0,-4.8 -1.9,-9.4 -5.3,-12.7 -3.3,-3.4 -7.9,-5.3 -12.7,-5.3 -4.7,0 -9.3,1.9 -12.6,5.3 -3.4,3.3 -5.3,7.9 -5.3,12.7 0,4.7 1.9,9.3 5.3,12.7 3.3,3.3 7.9,5.2 12.6,5.2 z"
         clip-path="url(#p12f52910fc-61-8-7)"
         style="fill:#ffff00;fill-opacity:0.6992;stroke-width:1.00284;stroke-linecap:butt;stroke-linejoin:round"
         id="path473-2-8-1" /><path
         d="m 382.4,602.5 c 4.5,0 8.8,-1.8 11.9,-5 3.2,-3.1 5,-7.4 5,-11.9 0,-4.5 -1.8,-8.8 -5,-12 -3.1,-3.1 -7.4,-4.9 -11.9,-4.9 -4.5,0 -8.8,1.8 -12,4.9 -3.1,3.2 -4.9,7.5 -4.9,12 0,4.5 1.8,8.8 4.9,11.9 3.2,3.2 7.5,5 12,5 z"
         clip-path="url(#p12f52910fc-61-8-7)"
         style="fill:#ffff00;fill-opacity:0.6992;stroke-width:1.00284;stroke-linecap:butt;stroke-linejoin:round"
         id="path474-0-6-9" /><path
         d="m 328.9,693.9 c 1.5,0 3,-0.6 4.1,-1.6 1,-1.1 1.6,-2.6 1.6,-4.1 0,-1.5 -0.6,-3 -1.6,-4 -1.1,-1.1 -2.6,-1.7 -4.1,-1.7 -1.5,0 -2.9,0.6 -4,1.7 -1.1,1 -1.7,2.5 -1.7,4 0,1.5 0.6,3 1.7,4.1 1.1,1 2.5,1.6 4,1.6 z"
         clip-path="url(#p12f52910fc-61-8-7)"
         style="fill:#ffff00;fill-opacity:0.6992;stroke-width:1.00284;stroke-linecap:butt;stroke-linejoin:round"
         id="path475-2-4-0" /><path
         d="m 260.7,681.4 c 4.4,0 8.7,-1.8 11.8,-4.9 3.2,-3.2 4.9,-7.4 4.9,-11.9 0,-4.4 -1.7,-8.7 -4.9,-11.8 -3.1,-3.2 -7.4,-4.9 -11.8,-4.9 -4.4,0 -8.7,1.7 -11.8,4.9 -3.2,3.1 -4.9,7.4 -4.9,11.8 0,4.5 1.7,8.7 4.9,11.9 3.1,3.1 7.4,4.9 11.8,4.9 z"
         clip-path="url(#p12f52910fc-61-8-7)"
         style="fill:#ffff00;fill-opacity:0.6992;stroke-width:1.00284;stroke-linecap:butt;stroke-linejoin:round"
         id="path476-1-3-0" /><path
         d="m 542.6,478.1 c 1.9,0 3.6,-0.7 4.9,-2 1.3,-1.3 2.1,-3.1 2.1,-4.9 0,-1.9 -0.8,-3.6 -2.1,-4.9 -1.3,-1.3 -3,-2.1 -4.9,-2.1 -1.8,0 -3.6,0.8 -4.9,2.1 -1.3,1.3 -2,3 -2,4.9 0,1.8 0.7,3.6 2,4.9 1.3,1.3 3.1,2 4.9,2 z"
         clip-path="url(#p12f52910fc-61-8-7)"
         style="fill:#ffff00;fill-opacity:0.6992;stroke-width:1.00284;stroke-linecap:butt;stroke-linejoin:round"
         id="path477-7-4-0" /><path
         d="m 220.9,767.9 c 5.7,0 11.1,-2.2 15.1,-6.2 4,-4 6.3,-9.5 6.3,-15.2 0,-5.7 -2.3,-11.1 -6.3,-15.1 -4,-4 -9.4,-6.3 -15.1,-6.3 -5.7,0 -11.1,2.3 -15.2,6.3 -4,4 -6.2,9.4 -6.2,15.1 0,5.7 2.2,11.2 6.2,15.2 4.1,4 9.5,6.2 15.2,6.2 z"
         clip-path="url(#p12f52910fc-61-8-7)"
         style="fill:#ffff00;fill-opacity:0.6992;stroke-width:1.00284;stroke-linecap:butt;stroke-linejoin:round"
         id="path478-5-7-2" /><path
         d="m 576.5,451.4 c 3,0 5.8,-1.2 8,-3.3 2.1,-2.1 3.2,-5 3.2,-8 0,-3 -1.1,-5.8 -3.2,-7.9 -2.2,-2.1 -5,-3.3 -8,-3.3 -3,0 -5.8,1.2 -8,3.3 -2.1,2.1 -3.2,4.9 -3.2,7.9 0,3 1.1,5.9 3.2,8 2.2,2.1 5,3.3 8,3.3 z"
         clip-path="url(#p12f52910fc-61-8-7)"
         style="fill:#ffff00;fill-opacity:0.6992;stroke-width:1.00284;stroke-linecap:butt;stroke-linejoin:round"
         id="path479-1-7-5" /><path
         d="m 573.5,443.9 c 1.4,0 2.7,-0.5 3.7,-1.5 1,-1 1.6,-2.3 1.6,-3.7 0,-1.4 -0.6,-2.7 -1.6,-3.7 -1,-1 -2.3,-1.5 -3.7,-1.5 -1.4,0 -2.7,0.5 -3.7,1.5 -1,1 -1.5,2.3 -1.5,3.7 0,1.4 0.5,2.7 1.5,3.7 1,1 2.3,1.5 3.7,1.5 z"
         clip-path="url(#p12f52910fc-61-8-7)"
         style="fill:#ffff00;fill-opacity:0.6992;stroke-width:1.00284;stroke-linecap:butt;stroke-linejoin:round"
         id="path480-7-07-7" /></g></g></svg>
