<?xml version="1.0" encoding="UTF-8" standalone="no"?>
<svg
   width="3192pt"
   height="845.6pt"
   viewBox="0 0 3192 845.6"
   version="1.1"
   id="svg480"
   xml:space="preserve"
   xmlns="http://www.w3.org/2000/svg"
   xmlns:svg="http://www.w3.org/2000/svg"
   xmlns:rdf="http://www.w3.org/1999/02/22-rdf-syntax-ns#"
   xmlns:cc="http://creativecommons.org/ns#"
   xmlns:dc="http://purl.org/dc/elements/1.1/"><metadata
     id="metadata1"><rdf:RDF><cc:Work><dc:type
           rdf:resource="http://purl.org/dc/dcmitype/StillImage" /><dc:date>2025-09-25T09:01:30.953355</dc:date><dc:format>image/svg+xml</dc:format><dc:creator><cc:Agent><dc:title>Matplotlib v3.10.6, https://matplotlib.org/</dc:title></cc:Agent></dc:creator></cc:Work></rdf:RDF></metadata><defs
     id="defs1"><style
       type="text/css"
       id="style1">*{stroke-linejoin: round; stroke-linecap: butt}</style><filter
       style="color-interpolation-filters:sRGB"
       id="filter494-9-31-2-9-7-6-9-5"
       x="-0.0002216"
       y="-0.000398"
       width="1"
       height="1.001"><feTurbulence
         id="feTurbulence494-3-9-0-49-5-4-4-2"
         baseFrequency="9.9370437140213816"
         numOctaves="10"
         seed="349"
         type="fractalNoise" /><feColorMatrix
         id="feColorMatrix494-6-4-6-0-9-3-7-6"
         values="0.2126 0.7152 0.07220 0.000 0.000 0.2126 0.7200 0.07000 0.000 0.000 0.2126 0.7200 0.07000 0.000 0.000 0.000 0.000 0.000 1.000 0.000 " /><feComponentTransfer
         id="feComponentTransfer496-0-7-1-91-6-3-8-9"><feFuncR
           id="feFuncR496-6-8-5-7-2-3-4-1"
           type="discrete"
           tableValues="0 1" /><feFuncG
           id="feFuncG496-2-4-5-71-1-8-5-3"
           type="discrete"
           tableValues="0 1" /><feFuncB
           id="feFuncB496-6-5-4-1-7-6-0-3"
           type="discrete"
           tableValues="0 1"
           slope="-10"
           intercept="-10" /><feFuncA
           id="feFuncA496-1-0-7-5-8-0-3-1"
           type="discrete"
           tableValues="" /></feComponentTransfer><feColorMatrix
         id="feColorMatrix501-97-5-4-6-5"
         values="1.000 0.000 0.000 0.000 0.000 0.000 1.000 0.000 0.000 0.000 0.000 0.000 1.000 0.000 0.000 -0.7800 -0.7800 -0.7800 1.000 1.330 " /></filter><clipPath
       clipPathUnits="userSpaceOnUse"
       id="clipPath480"><path
         style="fill:#313131;fill-opacity:1;stroke-width:0.792885;stroke-linecap:butt;stroke-linejoin:round"
         d="m 3316,536.7 c 7,-3.4 11,-13.6 16,-21.4 8,-15.8 17,-29.3 28,-36.1 6,-1.1 9,-13.5 15,-15.8 7,-3.4 12,-9 18,-16.9 5,-7.9 12,-3.4 20,-3.4 7,-4.5 13,-15.8 22,-14.6 7,1.1 15,0 21,-1.2 8,-2.2 17,1.2 26,0 5,-6.7 11,-13.5 17,-9 7,2.3 11,-3.3 17,-4.5 8,-4.5 15,-11.2 22,-18 7,-6.8 15,5.6 21,0 5,-3.4 12,-4.5 17,-2.3 6,4.5 13,-4.5 20,-6.7 8,-3.4 15,-7.9 22,-13.5 4,-4.6 4,-18.1 7,-26 5,-12.4 9,-25.9 14,-39.4 2,-11.3 6,-24.8 9,-37.2 4,-13.5 5,-28.2 7,-45.1 3,-16.9 7,-32.7 12,-48.4 6,-6.8 13,-11.3 21,-11.3 4,2.2 11,1.1 18,1.1 6,-4.5 15,5.7 21,0 6,-7.9 13,-3.4 19,-4.5 11,-1.1 20,3.4 28,12.4 8,1.1 12,10.1 17,5.6 19,-7.8 37,-10.1 55,-18 14,-1.1 29,-7.9 43,-1.1 6,1.1 11,2.2 18,4.5 6,2.2 13,6.8 15,23.7 2,12.4 9,13.5 13,22.5 7,12.4 15,14.6 21,21.4 7,4.5 15,1.1 23,2.3 9,6.7 21,11.2 29,11.2 7,1.2 13,2.3 20,5.7 7,5.6 17,10.1 23,18 6,7.9 13,16.9 21,21.4 6,2.3 9,15.8 16,22.6 4,4.5 8,14.6 15,20.2 4,7.9 10,9.1 15,13.6 6,6.7 12,11.2 16,21.4 5,9 11,16.9 17,25.9 5,5.6 13,9 18,15.8 7,11.2 15,18 22,24.8 6,9 12,18 16,29.3 7,-1.2 10,11.2 14,20.3 6,10.1 13,6.7 19,5.6 8,3.4 15,5.6 23,7.9 7,1.1 16,0 22,10.1 6,5.7 14,7.9 21,5.7 6,3.3 13,7.8 20,9 5,2.2 10,4.5 14,11.2 7,5.7 14,5.7 19,14.7 7,7.9 14,14.6 20,18 7,3.4 14,4.5 21,10.2 8,4.5 16,6.7 24,12.4 4,3.3 11,4.5 18,9 6,7.9 15,13.5 23,16.9 14,1.1 27,2.2 41,9 9,2.2 16,11.3 25,18 6,2.3 14,11.3 18,22.6 6,5.6 10,10.1 15,20.3 14,36 30,71 43,105.9 17,24.8 36,50.5 53,76.5 19,20.3 37,42.6 55,62.9 31,29.3 64,59.8 96,91.1 9,9 19,18 28,27 17,29 36,56 52,86 12,30 27,59 37,89 14,52 24,105 35,157 8,15 16,30 23,45 -254,3 -510,1 -765,1 -427,-1 -853,-7 -1279,-4 -78,0 -158,0 -236,4 13,-7 26,-16 40,-22 9,-9 20,-18 29,-27 9,-14 19,-23 26,-40 5,-9 10,-19 15,-31 6,-29 14,-59 19,-91 8,-36 18,-69 29,-100 13,-40 28,-77 43,-113 3,-12.3 9,-18 16,-24.8 11,-10 22,-22.3 34,-28 13,-9.1 25,-19.3 38,-22.6 11,-4.5 21,-5.5 31,-14.5 16,-12.5 31,-22.8 47,-39.6 16,-14.5 32,-32.8 48,-49.3 9,-13.6 18,-23.7 24,-40.6 8,-16.9 18,-28.2 27,-40.6 6,-5.6 13,-9 17,-18 7,-9 12,-19.2 18,-30.4 4,-14.7 13,-18.1 20,-23.7 9,-7.9 21,-5.6 29,-14.6 8,-4.6 14,-15.8 19,-24.8 8,-14.7 20,-23.7 25,-46.2 3,-9.1 6,-19.2 7,-31.6 3,-5.6 5,-12.4 9,-18 z m 807,-180.4 c -1,-3.3 -5,-10.1 -1,-3.3 v 2.2 z"
         id="path481" /></clipPath><filter
       style="color-interpolation-filters:sRGB"
       id="filter494-9-31-2-9-7-6-9-5-0"
       x="-0.0002216"
       y="-0.000398"
       width="1"
       height="1.001"><feTurbulence
         id="feTurbulence494-3-9-0-49-5-4-4-2-3"
         baseFrequency="9.9370437140213816"
         numOctaves="10"
         seed="349"
         type="fractalNoise" /><feColorMatrix
         id="feColorMatrix494-6-4-6-0-9-3-7-6-0"
         values="0.2126 0.7152 0.07220 0.000 0.000 0.2126 0.7200 0.07000 0.000 0.000 0.2126 0.7200 0.07000 0.000 0.000 0.000 0.000 0.000 1.000 0.000 " /><feComponentTransfer
         id="feComponentTransfer496-0-7-1-91-6-3-8-9-4"><feFuncR
           id="feFuncR496-6-8-5-7-2-3-4-1-4"
           type="discrete"
           tableValues="0 1" /><feFuncG
           id="feFuncG496-2-4-5-71-1-8-5-3-4"
           type="discrete"
           tableValues="0 1" /><feFuncB
           id="feFuncB496-6-5-4-1-7-6-0-3-4"
           type="discrete"
           tableValues="0 1"
           slope="-10"
           intercept="-10" /><feFuncA
           id="feFuncA496-1-0-7-5-8-0-3-1-7"
           type="discrete"
           tableValues="" /></feComponentTransfer><feColorMatrix
         id="feColorMatrix501-97-5-4-6-5-6"
         values="1.000 0.000 0.000 0.000 0.000 0.000 1.000 0.000 0.000 0.000 0.000 0.000 1.000 0.000 0.000 -0.7800 -0.7800 -0.7800 1.000 1.330 " /></filter></defs><defs
     id="defs480" /><g
     id="g480"
     transform="translate(-518.1,-1412)"
     clip-path="none"><path
       style="fill:#313131;fill-opacity:1;stroke-width:0.793132;stroke-linecap:butt;stroke-linejoin:round"
       d="m 1371,1664 c 10,-2 16,-9 24,-14 11,-11 24,-20 38,-24 9,-1 15,-9 23,-11 9,-2 16,-6 23,-11 9,-5 19,-2 29,-2 10,-3 20,-11 31,-10 10,1 20,0 29,-1 12,-1 24,1 36,0 8,-4 16,-9 25,-6 8,2 16,-2 25,-3 10,-3 20,-7 30,-12 9,-4 19,4 28,0 8,-2 16,-3 24,-1 9,3 18,-3 28,-5 11,-2 21,-5 31,-9 6,-3 6,-12 11,-17 6,-8 12,-17 17,-26 5,-8 8,-17 12,-25 7,-9 9,-19 12,-30 4,-11 9,-22 17,-32 8,-5 18,-8 28,-8 8,2 17,1 26,1 9,-3 20,4 30,0 8,-5 18,-2 27,-3 14,-1 27,2 39,8 9,1 16,7 24,4 25,-5 51,-7 76,-12 20,-1 40,-5 60,-1 8,1 16,2 24,3 9,2 20,5 22,16 3,8 13,9 19,15 8,8 19,10 29,14 10,3 21,1 32,2 13,4 27,7 41,7 9,1 18,2 27,4 11,4 22,7 32,12 10,5 19,11 29,14 9,2 14,11 22,15 7,3 12,10 20,14 7,5 16,6 23,9 8,4 17,7 23,14 7,6 15,11 23,17 8,4 18,6 25,11 10,7 20,12 31,16 8,6 17,12 23,20 10,-1 13,7 18,13 8,7 19,5 28,4 11,2 21,4 32,5 10,1 22,0 31,7 9,4 19,5 28,4 10,2 19,5 29,6 7,1 14,3 20,7 9,4 19,4 27,10 8,5 17,10 26,12 10,2 20,3 30,7 11,3 22,4 33,8 8,2 17,3 24,6 11,5 23,9 35,11 19,1 37,2 56,6 12,2 23,8 35,12 10,2 18,8 26,15 7,4 15,7 20,14 20,24 41,47 61,70 25,17 50,34 76,51 25,14 50,29 76,42 44,20 89,40 133,61 13,6 26,12 39,19 25,19 50,37 74,57 17,20 36,39 53,58 16,35 32,70 48,104 11,10 22,20 33,30 -357,3 -715,1 -1072,1 -597,-1 -1192,-4 -1788.8,-3 -110,1 -221,1 -331,3 19,-5 38,-10 57,-15 13,-6 28,-11 41,-18 12,-9 26,-15 36,-26 6,-6 14,-13 20,-20 10,-20 20,-40 28,-61 10,-23 24,-45 40,-66 19,-26 38,-52 59,-76 5,-8 14,-12 24,-16 15,-7 30,-15 47,-19 18,-6 35,-13 53,-15 15,-3 29,-4 42,-10 23,-8 45.8,-15 66.8,-26 23,-10 45,-22 67,-33 12,-9 25,-16 35,-27 10,-11 23,-19 36,-27 9,-4 18,-6 25,-12 9,-6 17,-13 24,-20 6,-10 18,-12 28,-16 14,-5 29,-4 41,-10 11,-3 18,-10 26,-16 12,-10 28,-16 36,-31 4,-6 7,-13 9,-21 4,-4 8,-8 12,-12 z m 1130,-120 c -2,-2 -7,-7 -2,-2 l 1,1 z"
       id="path484-3-5"
       mask="none"
       clip-path="none" /><rect
       style="opacity:1;fill:#313131;fill-opacity:1;stroke:#313131;stroke-width:1.01088;stroke-miterlimit:0;stroke-dasharray:none;stroke-opacity:1;paint-order:stroke markers fill;filter:url(#filter494-9-31-2-9-7-6-9-5)"
       id="rect500"
       width="2281"
       height="1270"
       x="2707"
       y="157.5"
       transform="matrix(1.398,0,0,0.6655,-3263,1307)"
       clip-path="url(#clipPath480)"
       mask="none" /><rect
       style="fill:#313131;fill-opacity:1;stroke:#313131;stroke-width:1.01088;stroke-linecap:butt;stroke-linejoin:round;stroke-miterlimit:0;stroke-dasharray:none;stroke-opacity:1;paint-order:stroke markers fill;filter:url(#filter494-9-31-2-9-7-6-9-5-0)"
       id="rect500-1"
       width="2281"
       height="1270"
       x="2707"
       y="157.5"
       transform="matrix(1.398,0,0,0.6653,-4988,-1214)"
       clip-path="none"
       mask="none" /><path
       style="fill:#313131;fill-opacity:1;stroke-width:0.792885;stroke-linecap:butt;stroke-linejoin:round"
       d="m -352.2,-856.9 c 9.8,-2.3 15.3,-9.1 22.3,-14.3 11.2,-10.5 23.8,-19.5 39.2,-24 8.4,-0.7 12.6,-9 20.9,-10.5 9.8,-2.3 16.8,-6 25.2,-11.2 7,-5.3 16.8,-2.3 28,-2.3 9.8,-3 18.1,-10.5 30.7,-9.7 9.8,0.7 21,0 29.4,-0.8 11.2,-1.5 23.8,0.8 36.3,0 7,-4.5 15.4,-9 23.8,-6 9.79,1.5 15.38,-2.2 23.77,-3 11.18,-3 20.97,-7.5 30.75,-12 9.79,-4.5 20.97,3.8 29.36,0 6.992,-2.2 16.778,-3 23.77,-1.5 8.39,3 18.17,-3 27.96,-4.5 11.18,-2.2 20.97,-5.2 30.75,-8.9 5.6,-3.1 5.6,-12.1 9.79,-17.3 6.99,-8.3 12.58,-17.1 19.57,-26.1 2.78,-8 8.38,-17 12.58,-25 5.6,-9 7,-19 9.8,-30 4.2,-11 9.8,-22 16.8,-32 8.4,-5 18.1,-8 29.3,-8 5.6,2 15.4,1 25.2,1 8.4,-3 21,4 29.3,0 8.4,-5 18.2,-2 26.6,-3 15.4,-1 28,2 39.2,8 11.1,1 16.7,7 23.7,4 26.6,-5 51.7,-7 76.9,-12 19.6,-1 40.6,-5 60.1,-1 8.4,1 15.4,2 25.2,3 8.4,2 18.2,5 21,16 2.8,8 12.5,9 18.1,15 9.8,8 21,10 29.4,14 9.8,3 21,1 32.1,2 12.6,4 29.4,7 40.6,7 9.8,1 18.2,2 27.9,4 9.8,4 23.8,7 32.2,12 8.4,5 18.2,11 29.4,14 8.3,2 12.5,11 22.3,15 5.6,3 11.2,10.1 21,13.8 5.6,5.3 14,6.1 21,9.1 8.4,4.4 16.7,7.4 22.3,14.2 7,6 15.4,11.2 23.8,17.2 7,3.8 18.2,6 25.2,10.5 9.7,7.5 20.9,12 30.7,16.5 8.4,6 16.8,12 22.4,19.5 9.8,-0.8 14,7.5 19.6,13.5 8.3,6.8 18.1,4.5 26.5,3.8 11.2,2.2 21,3.7 32.2,5.2 9.8,0.7 22.3,0 30.3,6.7 9,3.8 20,5.3 30,3.8 8,2.2 18,5.2 28,6 7,1.5 14,3 19,7.5 10,3.8 20,3.8 27,9.7 10,5.3 19,9.8 28,12 10,2.3 19,3 29,6.8 11,3 23,4.5 34,8.3 5,2.2 15,3 25,5.9 8,5.3 21,9 32,11.3 20,0.7 38,1.5 57,6 13,1.4 23,7.5 35,12 9,1.5 20,7.5 26,15 8,3.7 13,6.7 20,13.5 20,23.9 42,47.2 61,70.5 23,16.4 50,33.5 74,50.8 26,13.6 51,28.4 77,41.9 43,19.5 89,39.8 134,60.6 12,6 26,12 39,18 24,19.3 50,37.2 73,57.2 16,19.9 37,39.2 51,59.2 20,34.6 34,69.8 49,104.4 11,10 23,20 32,30 -355,2 -713,0.6 -1069,0.6 -597,-0.6 -1192.5,-4.6 -1788.1,-2.6 -109,0 -220.9,0 -329.9,2.6 18,-4.6 36,-10.6 56,-14.6 12,-6 28,-12 40,-18 13,-9.3 27,-15.3 37,-26.6 7,-6 14,-12.6 21,-20.6 8,-19.3 19,-39.2 26,-60.5 12,-24 25.5,-45.9 40.9,-66.6 18.1,-26.6 39.1,-51.2 60.1,-75.1 4.2,-8.2 12.6,-12 22.4,-16.5 15.3,-6.7 30.7,-14.9 47.5,-18.7 18.2,-6 34.9,-12.8 53.1,-15 15.4,-3 29.4,-3.7 43.3,-9.6 22.4,-8.4 43.4,-15.2 65.8,-26.4 22.3,-9.6 44.7,-21.8 67.1,-32.8 12.5,-9 25.1,-15.8 33.5,-27 11.2,-11.2 25.2,-18.8 37.8,-27 8.3,-3.7 18.1,-6 23.7,-12 9.8,-6 16.8,-12.8 25.2,-20.2 5.6,-9.8 18.2,-12.1 27.9,-15.8 12.6,-5.2 29.4,-3.7 40.6,-9.7 11.2,-3.1 19.6,-10.5 26.5,-16.5 11.2,-9.8 28,-15.8 35,-30.7 4.2,-6.1 8.4,-12.8 9.8,-21.1 4.2,-3.7 7,-8.2 12.6,-11.9 z M 776,-977 c -1.4,-2.1 -7,-6.7 -1.4,-2.1 v 1.4 z"
       id="path481-1" /></g></svg>
