<?xml version="1.0" encoding="UTF-8" standalone="no"?>
<svg
   width="3325.8pt"
   height="815.33pt"
   viewBox="0 0 3325.8 815.4"
   version="1.1"
   id="svg480"
   xml:space="preserve"
   xmlns:xlink="http://www.w3.org/1999/xlink"
   xmlns="http://www.w3.org/2000/svg"
   xmlns:svg="http://www.w3.org/2000/svg"
   xmlns:rdf="http://www.w3.org/1999/02/22-rdf-syntax-ns#"
   xmlns:cc="http://creativecommons.org/ns#"
   xmlns:dc="http://purl.org/dc/elements/1.1/"><metadata
     id="metadata1"><rdf:RDF><cc:Work><dc:type
           rdf:resource="http://purl.org/dc/dcmitype/StillImage" /><dc:date>2025-09-25T09:01:30.953355</dc:date><dc:format>image/svg+xml</dc:format><dc:creator><cc:Agent><dc:title>Matplotlib v3.10.6, https://matplotlib.org/</dc:title></cc:Agent></dc:creator></cc:Work></rdf:RDF></metadata><defs
     id="defs1"><linearGradient
       id="linearGradient505"><stop
         style="stop-color:#333333;stop-opacity:1;"
         offset="0"
         id="stop502" /><stop
         style="stop-color:#333333;stop-opacity:0.86819;"
         offset="0.41668"
         id="stop503" /><stop
         style="stop-color:#333333;stop-opacity:0;"
         offset="0.7468"
         id="stop504" /><stop
         style="stop-color:#333333;stop-opacity:0;"
         offset="1"
         id="stop505" /></linearGradient><style
       type="text/css"
       id="style1">* {   }
</style><linearGradient
       xlink:href="#linearGradient505"
       id="linearGradient3"
       gradientUnits="userSpaceOnUse"
       gradientTransform="matrix(0.99999,0,0,0.99999,2182,-1780.7)"
       x1="-527.1"
       y1="1780.9"
       x2="-522.92"
       y2="2834.5" /></defs><defs
     id="defs480" /><path
     style="fill:url(#linearGradient3);stroke-width:0.763972;stroke-linecap:butt;stroke-linejoin:round"
     d="m 1312.9,407.71 c 13,-1.4 68,-4.7 81,-7.5 11,-2.5 22,-5.9 31,-13.4 7,-5.9 10,-15 13,-23.1 8,-16.9 13,-35.1 19,-52.6 4,-9.9 7,-19.8 10,-29.9 5,-14.3 8,-28.7 12,-43.2 3,-11.2 5,-22.4 8,-33.5 3,-14.1 7,-28.2 10,-42.4 3,-12.1 6,-24.2 8,-36.3 2,-13.6 4,-27.401 7,-41.001 2,-8.8 4,-17.6 7,-26.2 2,-9.3 5,-18.9 10,-27.4 3,-5.7 7,-11.3 12,-15.6 4,-3.3 8,-5.9995 13,-7.4995 9,-2.5 18,-1.9 26,-1.8 12,0.1 24,3.8995 36,3 14,-1 26,-7.9 39,-9.00002 21,-1.59998 41,3.50002 61,4.00002 20,0.5 40,-2 60,-1 9,0.4 17,-0.2 25,3 8,3.3 14,10.4995 21,15.9995 6,4.9 12,10.8 18,15 9,5.8 19,11.3 29,14 10,2.7 22,0.7 33,2 14,1.6 27,4.9 40,7 9,1.5 19,1.7 28,4 11,2.8 22,7.6 32,12 10,4.3 21,8.5 30,14 8,4.4 15,10.001 22,15.001 7,4.7 14,10 21,14 7,3.6 14,5.4 21,9 8,4.1 15,9.1 22,14 8,5.5 16,12.2 24,17.1 8,4.5 17,7.1 25,11 11,5 22,9.4 31,16 8,5.6 14,14 22,20 6,4.9 13,10.2 20,13 9,3.2 18,2.6 27,4 11,1.6 21,2.9 32,5 10,2.1 20,5.3 30,7.1 10,1.8 20,2.3 30,4 9,1.6 19,3.4 28,6 7,1.9 13,4.7 19,7 9,3.3 18,6.4 27,10 10,3.8 18,8.8 28,12 10,3.1 19,4.7 29,7 11,2.7 23,5.3 34,8 8,2 17,3.6 25,6 11,3.2 21,8.6 32,11 19,4.1 39,1.9 57,6 12,2.7 23,6.8 34,11.9 9,4.1 18,9.5 26,15 7,4.3 14,8.7 19,14 23,21 38,49.4 61,70 23,19.9 49,35.2 74,50.9 25,15.3 51,28.9 77,42 44,21.9 90,40.6 134,61 13,6 27,10.5 39,18 27,16.1 51,35.7 73,57 19,17.9 34,39.7 51,58.9 32,35.3 100,104.24 100,104.24 H -0.15718 c 0,0 66.00018,-62.64 110.99718,-83.14 54,-24.5 138,-17.4 197,-19.1 100,-2.7 176,-3.7 264,-7 56,-2.1 108,-4.3 164,-8.3 43,-3.1 78,-3.9 120.1,-12.1 10,-1.9 21,-3.3 29,-8.6 10,-5.8 18,-14.6 23,-24.3 9,-16.9 17,-37.3 21,-56 5,-23.4 13,-47 19,-70.2 5,-21.3 13,-43.2 21,-63.3 5,-10.6 10,-21.6 18,-29.9 7,-7.1 15.96,-13.1 24.96,-16 26,-8 54,-1.1 81,-2.2 47,-2 93,-6.8 139,-8 27,-0.7 58,2.9 81,0.4 z m 790,-274.4 c 1,-0.4 0,-2.2 -1,-2 v 1 c 0,0.4 1,1.3 1,1 z"
     id="path481-7-9-2-0-5-5-6-2-4-6-9-1-1" /></svg>
