<?xml version="1.0" encoding="UTF-8" standalone="no"?>
<svg
   width="3735.4pt"
   height="1051pt"
   viewBox="0 0 3735.4 1051"
   version="1.1"
   id="svg480"
   xml:space="preserve"
   xmlns="http://www.w3.org/2000/svg"
   xmlns:svg="http://www.w3.org/2000/svg"
   xmlns:rdf="http://www.w3.org/1999/02/22-rdf-syntax-ns#"
   xmlns:cc="http://creativecommons.org/ns#"
   xmlns:dc="http://purl.org/dc/elements/1.1/"><metadata
     id="metadata1"><rdf:RDF><cc:Work><dc:type
           rdf:resource="http://purl.org/dc/dcmitype/StillImage" /><dc:date>2025-09-25T09:01:30.953355</dc:date><dc:format>image/svg+xml</dc:format><dc:creator><cc:Agent><dc:title>Matplotlib v3.10.6, https://matplotlib.org/</dc:title></cc:Agent></dc:creator></cc:Work></rdf:RDF></metadata><defs
     id="defs1"><style
       type="text/css"
       id="style1">* {   }
</style><filter
       style="color-interpolation-filters:sRGB"
       id="filter494-9-31-2-9-7-6-9-5-2"
       x="0"
       y="0"
       width="1"
       height="1"><feTurbulence
         id="feTurbulence494-3-9-0-49-5-4-4-2-9"
         baseFrequency="9.9370437140213816"
         numOctaves="10"
         seed="349"
         type="fractalNoise" /><feColorMatrix
         id="feColorMatrix494-6-4-6-0-9-3-7-6-12"
         values="0.2126 0.7152 0.07220 0.000 0.000 0.2126 0.7200 0.07000 0.000 0.000 0.2126 0.7200 0.07000 0.000 0.000 0.000 0.000 0.000 1.000 0.000 " /><feComponentTransfer
         id="feComponentTransfer496-0-7-1-91-6-3-8-9-7"><feFuncR
           id="feFuncR496-6-8-5-7-2-3-4-1-0"
           type="discrete"
           tableValues="0 1" /><feFuncG
           id="feFuncG496-2-4-5-71-1-8-5-3-9"
           type="discrete"
           tableValues="0 1" /><feFuncB
           id="feFuncB496-6-5-4-1-7-6-0-3-3"
           type="discrete"
           tableValues="0 1"
           slope="-10"
           intercept="-10" /><feFuncA
           id="feFuncA496-1-0-7-5-8-0-3-1-60"
           type="discrete"
           tableValues="" /></feComponentTransfer><feColorMatrix
         id="feColorMatrix501-97-5-4-6-5-62"
         values="1.000 0.000 0.000 0.000 0.000 0.000 1.000 0.000 0.000 0.000 0.000 0.000 1.000 0.000 0.000 -0.7800 -0.7800 -0.7800 1.000 1.330 " /></filter><clipPath
       clipPathUnits="userSpaceOnUse"
       id="clipPath497"><path
         style="fill:#313131;fill-opacity:1;stroke-width:0.656298;stroke-linecap:butt;stroke-linejoin:round"
         d="m 3769.7,915.24 c 1.2,-19.58 1.1,-39.33 1.9,-59 0.9,-24.74 2.5,-49.57 3.3,-74.31 0.6,-21.75 0.5,-43.5 1.2,-65.25 0.5,-16.95 1.5,-33.72 2.1,-50.66 0.8,-21.57 1.5,-43.14 2.1,-64.71 0.6,-20.3 1,-40.51 1.6,-60.81 0.4,-14.86 0.9,-29.82 1.3,-44.68 0.5,-17.58 1,-35.16 1.4,-52.75 0.4,-13.59 0.7,-27.18 1,-40.78 0.3,-14.86 0.4,-29.72 0.9,-44.59 0.4,-16.67 1.1,-33.35 1.7,-50.02 0.5,-13.23 0.9,-26.47 1.6,-39.7 0.6,-9.78 1.4,-19.57 2.2,-29.18 1.1,-11.96 1.8,-24.29 3.7,-35.89 1.6,-9.69 2.8,-20.57 6.3,-27.91 2.2,-4.62 5.5,-7.07 8.6,-8.61 6.1,-2.99 12.6,-1.54 18.9,-1.18 7.3,0.37 14.6,4.72 22,3.63 8.1,-1.27 15.7,-9.61 23.8,-10.88 12.2,-1.99 24.7,4.17 37.2,4.81 12.2,0.63 24.4,-2.45 36.6,-1.18 5,0.54 10.4,-0.18 15.2,3.62 5,4.08 8.6,12.78 12.8,19.31 3.8,5.89 6.9,13.05 11,18.12 5.5,6.98 11.4,13.69 17.7,16.95 6.3,3.26 13.1,0.9 19.6,2.35 8.1,2 16.3,5.99 24.4,8.52 5.6,1.82 11.5,2 17.1,4.81 6.7,3.53 13.1,9.15 19.6,14.5 6.2,5.16 12.4,10.42 18.3,16.94 4.7,5.26 8.9,12.15 13.4,18.13 4.3,5.62 8.3,12.05 12.9,16.86 4,4.53 8.6,6.7 12.8,10.87 4.7,4.99 9,11.15 13.4,16.95 4.9,6.61 9.5,14.86 14.7,20.66 4.8,5.44 10.2,8.61 15.2,13.32 6.4,5.99 13.1,11.33 19,19.31 4.8,6.89 8.6,16.94 13.3,24.19 3.9,5.9 7.7,12.33 12.2,15.68 5.2,3.99 11,3.27 16.5,4.81 6.6,2.08 13.1,3.62 19.6,6.07 6.2,2.45 12.1,6.25 18.3,8.43 6,2.17 12.3,2.81 18.3,4.89 5.7,1.99 11.5,4.08 17.1,7.25 4,2.27 7.8,5.62 11.7,8.43 5.5,4.08 11,7.88 16.5,12.05 5.7,4.62 11.2,10.7 17,14.5 5.8,3.9 11.9,5.71 17.8,8.52 6.9,3.26 13.8,6.35 20.7,9.61 5.1,2.44 10.3,4.35 15.3,7.25 6.6,3.9 12.8,10.42 19.5,13.32 11.5,5.08 23.6,2.27 35,7.25 7.3,3.26 14.5,8.34 21.4,14.5 5.5,5.08 10.8,11.6 15.9,18.13 4,5.16 8,10.51 11.6,16.94 13.9,25.38 23.1,59.64 37.2,84.56 13.6,24.01 29.6,42.5 45.2,61.53 15.2,18.49 31,34.99 47,50.75 26.8,26.47 54.5,49.03 81.8,73.68 7.9,7.25 16.3,12.78 23.8,21.75 16.1,19.49 30.8,43.14 44.5,68.88 11.5,21.66 22.6,44.86 31.2,71.12 12.8,39.2 52.4,81.2 61,124.9 1.2,6.3 25.8,66.4 37.4,101.3 19.7,59.8 54.9,184.5 54.9,184.5 h -2281 c 0,0 40.8,-40.6 48.9,-53 12,-18.2 75.5,-11.8 89.8,-21.8 17.6,-12.3 88,-34.7 105.7,-46.7 15.6,-10.6 77.8,-15.2 93.9,-22 13.9,-5.8 85.6,-12.1 99.7,-16.1 20.8,-5.8 79.2,-0.7 99.5,-11.8 15.7,-8.5 74.2,-33.6 89.9,-41.8 20.9,-10.9 88.8,-5.2 110.3,-8.6 23.5,-3.7 102.2,-4.5 125.5,-13.1 21.4,-7.7 98.9,-17.2 118.8,-34.2 14.9,-12.7 29.8,-27.9 41.6,-50 10.2,-18.9 17.7,-43.2 23.8,-68.1 4.2,-17 6,-35.5 8.4,-53.75 2.9,-23.47 5.4,-47.39 7,-71.41 z m 378.4,-596.6 c 0.4,-0.45 -0.2,-2.53 -0.6,-2.44 -0.2,0.18 -0.1,0.9 0,1.27 0.1,0.54 0.3,1.54 0.6,1.17 z"
         id="path497" /></clipPath></defs><defs
     id="defs480" /><path
     style="fill:#313131;fill-opacity:1;stroke-width:0.764011;stroke-linecap:butt;stroke-linejoin:round"
     d="m 1740.4,627.03 c 2.1,-16.2 1.9,-32.5 3.1,-48.79 1.6,-20.5 4.1,-41 5.4,-61.5 1.1,-18 0.9,-36 2,-54 0.8,-14 2.5,-27.9 3.5,-41.9 1.3,-17.9 2.4,-35.7 3.4,-53.6 1,-16.8 1.7,-33.5 2.6,-50.3 0.7,-12.3 1.5,-24.7 2.2,-37 0.8,-14.5 1.6,-29.1 2.3,-43.6 0.6,-11.3 1.1,-22.5 1.6,-33.8 0.5,-12.3 0.7,-24.6 1.4,-36.9 0.7,-13.8 1.9,-27.6 2.9,-41.4 0.8,-10.9 1.4,-21.9 2.6,-32.797 0.9,-8.1 2.2,-16.2 3.6,-24.2 1.7,-9.899 2.9,-20.099 6,-29.699 2.6,-8 4.6,-17 10.4,-23.1 3.6,-3.8 9,-5.8003 14.1,-7.0993 10,-2.5 20.6,-1.3 30.9,-1 12,0.3 24,3.8993 36,2.999 13.3,-0.999 25.7,-7.899 39,-8.99897 20.1,-1.60003 40.5,3.49997 60.9,3.99997 20,0.5 40,-2 59.9,-1 8.3,0.5 17.2,-0.1 25,3 8.2,3.399 14.1,10.5993 21,15.9993 6.1,4.9 11.3,10.8 18,15 9,5.8 18.6,11.3 29,14 10.2,2.7 21.3,0.8 32,2 13.3,1.6 26.6,4.9 40,6.999 9.2,1.5 18.8,1.7 28,4 11,2.9 21.5,7.6 32,12 10.2,4.3 20.3,8.6 30,14 7.7,4.4 14.6,10.097 22,14.997 7,4.7 13.5,10 21,14 6.7,3.7 14.2,5.5 21,9 7.7,4.1 14.7,9.2 22,14 8.1,5.5 15.5,12.3 24,17.1 7.9,4.5 16.8,7.1 25,11 10.5,5 21.4,9.4 31,16 8,5.7 14.1,14 21.9,20 6.3,4.9 12.6,10.2 20,13 8.5,3.3 18,2.7 27,4 10.7,1.7 21.4,3 32,5 10.1,2 19.9,5.2 30,7 9.9,1.8 20.1,2.3 30,4 9.4,1.7 18.8,3.4 28,6 6.5,1.9 12.7,4.7 19.1,7 9,3.4 18.1,6.5 27,10 9.4,3.8 18.4,8.8 28,12 9.4,3.2 19.3,4.7 29,7 11.3,2.7 22.7,5.3 34,8 8.3,2 16.8,3.6 25,6 10.8,3.2 21,8.6 32,11 18.7,4.2 38.5,1.9 57.3,6 12,2.7 23.7,6.9 35,12 9.1,4.2 17.6,9.6 26,15 6.6,4.3 13.2,8.7 19,14 22.7,21 37.8,49.4 60.9,70 22.3,19.9 48.5,35.2 74,50.9 24.9,15.3 50.8,29 77,42 43.9,21.9 89.3,40.6 133.9,61 13,6 26.8,10.59 39,17.99 26.4,16.1 50.6,35.7 73,57 18.8,17.9 36.9,37.1 51,58.9 21,32.4 85.9,67.2 99.9,103.3 2,5.2 42.1,55 61.1,83.9 32.4,49.4 90,152.57 90,152.57 H 0.1392 c 0,0 66.6988,-33.6 79.9988,-43.8 19.699,-15.07 123.712,-9.77 147.112,-18.07 28.81,-10.2 144.1,-28.7 173,-38.6 25.5,-8.8 127.4,-12.6 153.8,-18.2 22.8,-4.8 140.2,-10 163.3,-13.3 34.1,-4.9 129.7,-0.6 162.89,-9.8 25.7,-7.1 121.46,-27.8 147.26,-34.6 34.1,-9 145.4,-4.3 180.5,-7.1 38.6,-3.1 167.5,-3.8 205.6,-10.8 35.1,-6.4 161.9,-14.3 194.6,-28.4 24.4,-10.5 48.7,-23.1 68,-41.3 16.7,-15.7 29.1,-35.8 39.1,-56.4 6.8,-14 9.8,-29.4 13.6,-44.5 4.9,-19.4 8.9,-39.2 11.5,-59.1 z m 619.7,-493.69 c 0.6,-0.4 -0.3,-2.1 -1,-2 -0.3,0.1 -0.1,0.7 0,1 0.2,0.5 0.6,1.3 1,1 z"
     id="path481-7-9-2-0-5-5-6" /><rect
     style="fill:#313131;fill-opacity:1;stroke:none;stroke-width:1.01088;stroke-miterlimit:0;stroke-dasharray:none;stroke-opacity:1;paint-order:stroke markers fill;filter:url(#filter494-9-31-2-9-7-6-9-5-2)"
     id="rect500-8"
     width="2281"
     height="1270"
     x="2707"
     y="157.5"
     transform="matrix(1.6376,0,0,0.82757,-4433,-130.34)"
     clip-path="url(#clipPath497)"
     mask="none" /></svg>
