<?xml version="1.0" encoding="UTF-8" standalone="no"?>
<svg
   width="3325.8pt"
   height="815.33pt"
   viewBox="0 0 3325.8 815.4"
   version="1.1"
   id="svg480"
   xml:space="preserve"
   xmlns:xlink="http://www.w3.org/1999/xlink"
   xmlns="http://www.w3.org/2000/svg"
   xmlns:svg="http://www.w3.org/2000/svg"
   xmlns:rdf="http://www.w3.org/1999/02/22-rdf-syntax-ns#"
   xmlns:cc="http://creativecommons.org/ns#"
   xmlns:dc="http://purl.org/dc/elements/1.1/"><metadata
     id="metadata1"><rdf:RDF><cc:Work><dc:type
           rdf:resource="http://purl.org/dc/dcmitype/StillImage" /><dc:date>2025-09-25T09:01:30.953355</dc:date><dc:format>image/svg+xml</dc:format><dc:creator><cc:Agent><dc:title>Matplotlib v3.10.6, https://matplotlib.org/</dc:title></cc:Agent></dc:creator></cc:Work></rdf:RDF></metadata><defs
     id="defs1"><linearGradient
       id="linearGradient505"><stop
         style="stop-color:#333333;stop-opacity:1;"
         offset="0"
         id="stop502" /><stop
         style="stop-color:#333333;stop-opacity:0.86819;"
         offset="0.41668"
         id="stop503" /><stop
         style="stop-color:#333333;stop-opacity:0;"
         offset="0.7468"
         id="stop504" /><stop
         style="stop-color:#333333;stop-opacity:0;"
         offset="1"
         id="stop505" /></linearGradient><linearGradient
       id="linearGradient498"><stop
         style="stop-color:#333333;stop-opacity:1;"
         offset="0"
         id="stop498" /><stop
         style="stop-color:#333333;stop-opacity:1;"
         offset="0.56643"
         id="stop500" /><stop
         style="stop-color:#333333;stop-opacity:0;"
         offset="0.7754"
         id="stop501" /><stop
         style="stop-color:#333333;stop-opacity:0;"
         offset="0.7754"
         id="stop499" /></linearGradient><style
       type="text/css"
       id="style1">* {   }
</style><linearGradient
       xlink:href="#linearGradient1"
       id="linearGradient2"
       x1="-127.58"
       y1="133.6"
       x2="518.41"
       y2="130.14"
       gradientUnits="userSpaceOnUse"
       gradientTransform="translate(-17.415,-6.2581)" /><linearGradient
       id="linearGradient1"><stop
         style="stop-color:#0000ff;stop-opacity:0.6;"
         offset="0"
         id="stop1" /><stop
         style="stop-color:#0000dc;stop-opacity:0.6;"
         offset="0.35956"
         id="stop51" /><stop
         style="stop-color:#000000;stop-opacity:0;"
         offset="0.7874"
         id="stop2" /></linearGradient><filter
       style="color-interpolation-filters:sRGB"
       id="filter95-5"
       x="-0.00026368"
       y="-6.4491e-05"
       width="1.0005"
       height="1.0001"><feTurbulence
         type="fractalNoise"
         baseFrequency="9.2503490953947374 10"
         numOctaves="10"
         seed="689"
         result="turbulence"
         id="feTurbulence94-9" /><feComposite
         in="SourceGraphic"
         in2="turbulence"
         operator="in"
         result="composite1"
         id="feComposite94-9" /><feColorMatrix
         values="1 0 0 0 0 0 1 0 0 0 0 0 1 0 0 0 0 0 13.5595 -3.20989 "
         result="color"
         id="feColorMatrix94-1" /><feFlood
         flood-opacity="1"
         flood-color="rgb(0,0,0)"
         result="flood"
         id="feFlood94-4" /><feMerge
         result="merge"
         id="feMerge95-9"><feMergeNode
           in="flood"
           id="feMergeNode94-1" /><feMergeNode
           in="color"
           id="feMergeNode95-0" /></feMerge><feComposite
         in2="SourceGraphic"
         operator="in"
         result="fbSourceGraphic"
         id="feComposite95-7" /><feColorMatrix
         result="fbSourceGraphicAlpha"
         in="fbSourceGraphic"
         values="0 0 0 -1 0 0 0 0 -1 0 0 0 0 -1 0 0 0 0 1 0"
         id="feColorMatrix12-5" /><feColorMatrix
         id="feColorMatrix13-8"
         values="11 0 0 -0.979052 -5 0 11 0 -0.979052 -5 0 0 11 -0.979052 -5 0 0 0 1 0"
         in="fbSourceGraphic"
         result="fbSourceGraphic" /><feColorMatrix
         result="fbSourceGraphicAlpha"
         in="fbSourceGraphic"
         values="0 0 0 -1 0 0 0 0 -1 0 0 0 0 -1 0 0 0 0 1 0"
         id="feColorMatrix31-7" /><feColorMatrix
         id="feColorMatrix32-0"
         values="11 0 0 4.73511 -5 0 11 0 4.73511 -5 0 0 11 4.73511 -5 0 0 0 1 0"
         in="fbSourceGraphic"
         result="fbSourceGraphic" /><feColorMatrix
         result="fbSourceGraphicAlpha"
         in="fbSourceGraphic"
         values="0 0 0 -1 0 0 0 0 -1 0 0 0 0 -1 0 0 0 0 1 0"
         id="feColorMatrix45-4" /><feColorMatrix
         id="feColorMatrix46-8"
         values="10.99 0 0 2.76982 -4.995 0 10.99 0 2.76982 -4.995 0 0 10.99 2.76982 -4.995 0 0 0 1 0"
         in="fbSourceGraphic" /><feComponentTransfer
         id="feComponentTransfer51-0"><feFuncR
           id="feFuncR51-4"
           type="discrete"
           tableValues="0 0" /><feFuncG
           id="feFuncG51-2"
           type="discrete"
           tableValues="0  0" /><feFuncB
           id="feFuncB51-9"
           type="discrete"
           tableValues="1 0" /><feFuncA
           id="feFuncA51-6"
           type="discrete"
           tableValues="1" /></feComponentTransfer><feColorMatrix
         id="feColorMatrix51-1"
         values="1.0000 0.0000 0.0000 0.0000 0.0000 0.0000 1.0000 0.0000 0.0000 0.0000 0.0000 0.0000 1.0000 0.0000 0.0000 0.0000 0.0000 -1.0000 1.0000 0.0000 " /></filter><linearGradient
       xlink:href="#linearGradient505"
       id="linearGradient499"
       x1="-527.1"
       y1="1780.9"
       x2="-522.92"
       y2="2834.5"
       gradientUnits="userSpaceOnUse"
       gradientTransform="translate(2182,-1780.7)" /><clipPath
       clipPathUnits="userSpaceOnUse"
       id="clipPath500"><path
         style="fill:url(#linearGradient500);stroke-width:0.763972;stroke-linecap:butt;stroke-linejoin:round"
         d="m 23.049,374.11 c -0.501,-4.56 -1.66,-23.94 -2.635,-28.51 -0.895,-3.88 -2.081,-7.74 -4.715,-10.91 -2.081,-2.48 -5.269,-3.54 -8.1138,-4.59 -5.9271,-2.8 -12.3285,-4.57 -18.4662,-6.68 -3.477,-1.4 -6.955,-2.46 -10.511,-3.52 -5.032,-1.76 -10.089,-2.82 -15.174,-4.22 -3.898,-1.06 -7.824,-1.77 -11.722,-2.83 -4.953,-1.05 -9.905,-2.45 -14.884,-3.51 -4.268,-1.05 -8.509,-2.11 -12.75,-2.82 -4.795,-0.72 -9.642,-1.4 -14.41,-2.46 -3.082,-0.71 -6.19,-1.42 -9.193,-2.48 -3.265,-0.69 -6.635,-1.74 -9.645,-3.51 -2,-1.06 -3.95,-2.46 -5.48,-4.23 -1.16,-1.4 -2.1,-2.82 -2.63,-4.57 -0.87,-3.16 -0.66,-6.33 -0.63,-9.16 0,-4.22 1.37,-8.45 1.05,-12.67 -0.34,-4.91 -2.77,-9.14 -3.16,-13.73 -0.55,-7.4 1.24,-14.42 1.42,-21.47 0.16,-7.05 -0.71,-14.07 -0.37,-21.12 0.16,-3.17 0,-6 1.06,-8.8 1.16,-2.82 3.69,-4.94 5.63,-7.39 1.72,-2.11 3.8,-4.23 5.27,-6.34 2.03,-3.17 3.95,-6.7 4.9,-10.22 0.95,-3.51 0.27,-7.73 0.71,-11.62 0.56,-4.91 1.717,-9.5 2.454,-14.07 0.527,-3.17 0.606,-6.68 1.423,-9.85 0.974,-3.88 2.66,-7.76 4.215,-11.27 1.501,-3.51 2.976,-7.4 4.899,-10.57 1.555,-2.82 3.53,-5.28 5.269,-7.73 1.66,-2.48 3.53,-4.94 4.926,-7.4 1.265,-2.48 1.897,-4.93 3.161,-7.389 1.449,-2.825 3.188,-5.281 4.926,-7.763 1.923,-2.799 4.268,-5.624 6.007,-8.449 1.58,-2.799 2.476,-5.968 3.846,-8.793 1.765,-3.856 3.319,-7.737 5.637,-10.906 1.949,-2.825 4.9,-4.937 7.007,-7.736 1.739,-2.113 3.583,-4.595 4.584,-7.051 1.106,-3.168 0.896,-6.337 1.396,-9.505 0.553,-3.882 1.028,-7.394 1.765,-11.275 0.685,-3.512 1.818,-7.024 2.45,-10.562 0.632,-3.512 0.817,-7.0243 1.396,-10.5625 0.58,-3.1687 1.212,-6.68054 2.108,-9.8492 0.685,-2.4556 1.659,-4.568 2.45,-6.6803 1.159,-3.169 2.265,-6.337 3.53,-9.506 1.317,-3.538 3.082,-6.337 4.214,-9.849 1.08,-3.538 1.634,-6.707 2.45,-10.219 0.949,-3.881 1.871,-8.106 2.819,-11.961 0.685,-2.826 1.264,-5.994 2.107,-8.82 1.107,-3.855 3.004,-7.393 3.847,-11.248 1.448,-6.707 0.684,-13.731 2.107,-20.068 0.9483,-4.225 2.3972,-8.108 4.1885,-11.988 1.4489,-3.17 3.3456,-6.34 5.2686,-9.14 1.50155,-2.48 3.0558,-4.93 4.9261,-6.7 7.3758,-8.08 17.3338,-13.36 24.5778,-21.47 6.981,-8.08 12.355,-17.24 17.887,-26.04 5.374,-8.82 10.142,-17.95 14.752,-27.11 7.692,-15.5 14.252,-31.69 21.417,-47.16 2.108,-4.6 3.688,-9.51 6.322,-13.73 5.638,-9.51 12.538,-17.96 20.018,-25.72 6.27,-6.68 13.94,-11.96 20.68,-17.96 12.41,-11.25 36.65,-35.2 36.65,-35.2 V 836.36 c 0,0 -22.03,-23.23 -29.25,-39.07 -8.58,-19.01 -6.11,-48.58 -6.69,-69.35 -0.94,-35.21 -1.31,-61.96 -2.47,-92.94 -0.74,-19.73 -1.5,-38.03 -2.9,-57.72 -1.11,-15.13 -1.37,-27.47 -4.27,-42.28 -0.66,-3.54 -1.16,-7.39 -3,-10.22 -2.06,-3.51 -5.14,-6.33 -8.54,-8.1 -5.95,-3.17 -13.115,-5.97 -19.674,-7.4 -8.219,-1.74 -16.517,-4.57 -24.657,-6.68 -7.482,-1.77 -15.174,-4.57 -22.234,-7.39 -3.714,-1.77 -7.587,-3.51 -10.484,-6.34 -2.503,-2.45 -4.61,-5.62 -5.638,-8.79 -2.792,-9.16 -0.369,-19.01 -0.764,-28.52 -0.711,-16.56 -2.397,-32.74 -2.818,-48.93 -0.238,-9.5 1.027,-20.41 0.158,-28.52 z M -73.288,95.989 c -0.158,-0.343 -0.79,0 -0.711,0.37 h 0.342 c 0.158,0 0.475,-0.37 0.369,-0.37 z"
         id="path500" /></clipPath><linearGradient
       xlink:href="#linearGradient498"
       id="linearGradient500"
       gradientUnits="userSpaceOnUse"
       gradientTransform="matrix(0,-0.35203,0.3512,0,-745.51,68.158)"
       x1="-527.1"
       y1="1780.9"
       x2="-522.92"
       y2="2834.5" /></defs><defs
     id="defs480" /><path
     style="fill:url(#linearGradient499);stroke-width:0.76398;stroke-linecap:butt;stroke-linejoin:round"
     d="m 1312.9,407.61 c 13,-1.4 68,-4.7 81,-7.5 11,-2.5 22,-5.9 31,-13.4 7,-5.9 10,-15 13,-23.1 8,-16.9 13,-35.1 19,-52.6 4,-9.9 7,-19.8 10,-29.9 5,-14.3 8,-28.7 12,-43.2 3,-11.1 5,-22.3 8,-33.4 3,-14.1 7,-28.2 10,-42.4 3,-12.1 6,-24.2 8,-36.3 2,-13.6 4,-27.395 7,-40.991 2,-8.8 4,-17.61 7,-26.21 2,-9.299 5,-18.899 10,-27.399 3,-5.7 7,-11.3 12,-15.6 4,-3.3 8,-6.0001 13,-7.5001 9,-2.5004 18,-1.9004 26,-1.8004 12,0.1 24,3.9005 36,3.0004 14,-1 26,-7.9004 39,-9.00042 21,-1.59998 41,3.50002 61,4.00002 20,0.5 40,-2 60,-1 9,0.4 17,-0.2 25,3 8,3.3004 14,10.5005 21,16.0005 6,4.9 12,10.8 18,15 9,5.8 19,11.3 29,14 10,2.7 22,0.7 33,2 14,1.6 27,4.899 40,6.999 9,1.5 19,1.7 28,4 11,2.8 22,7.61 32,12.01 10,4.3 21,8.5 30,14 8,4.4 15,9.991 22,14.991 7,4.7 14,10 21,14 7,3.6 14,5.4 21,9 8,4.1 15,9.1 22,14 8,5.5 16,12.2 24,17.1 8,4.5 17,7.1 25,11 11,5 22,9.4 31,16 8,5.6 14,14 22,20 6,4.9 13,10.2 20,13 9,3.2 18,2.6 27,4 11,1.6 21,2.9 32,5 10,2 20,5.2 30,7 10,1.8 20,2.3 30,4 9,1.6 19,3.4 28,6 7,1.9 13,4.7 19,7 9,3.3 18,6.4 27,10 10,3.8 18,8.8 28,12 10,3.1 19,4.7 29,7 11,2.7 23,5.3 34,8 8,2 17,3.6 25,6 11,3.2 21,8.6 32,11 19,4.1 39,1.9 57,6 12,2.7 23,6.8 34,11.9 9,4.1 18,9.5 26,15 7,4.3 14,8.7 19,14 23,21 38,49.4 61,70 23,19.9 49,35.2 74,50.9 25,15.3 51,28.9 77,42 44,21.9 90,40.6 134,61 13,6 27,10.5 39,18 27,16.1 51,35.7 73,57 19,17.9 34,39.7 51,58.9 32,35.3 100,104.29 100,104.29 H -0.17332 c 0,0 66.00032,-62.69 111.00332,-83.19 54,-24.5 138,-17.4 197,-19.1 100,-2.7 176,-3.7 264,-7 56,-2.1 108,-4.3 164,-8.3 43,-3.1 78,-3.9 120.09,-12.1 10,-1.9 21,-3.3 29,-8.6 10,-5.8 18,-14.6 23,-24.3 9,-16.9 17,-37.3 21,-56 5,-23.4 13,-47 19,-70.2 5,-21.3 13,-43.2 21,-63.3 5,-10.6 10,-21.6 18,-29.9 7,-7.1 15.98,-13.1 24.98,-16 26,-8 54,-1.1 81,-2.2 47,-2 93,-6.8 139,-8 27,-0.7 58,2.9 81,0.4 z m 790,-274.3 c 1,-0.4 0,-2.2 -1,-2 v 1 c 0,0.4 1,1.3 1,1 z"
     id="path481-7-9-2-0-5-5-6-2-4-6-9-1" /><rect
     style="fill:url(#linearGradient2);fill-opacity:1;stroke:#ffff00;stroke-width:0.151026;stroke-miterlimit:0;stroke-dasharray:0.151026, 0.604107;stroke-opacity:0.72;paint-order:stroke markers fill;filter:url(#filter95-5)"
     id="rect1-22"
     width="286.38"
     height="1170.9"
     x="-120.12"
     y="-334.55"
     transform="matrix(0,2.8473,-2.8406,0,2375.6,341.95)"
     ry="0"
     clip-path="url(#clipPath500)" /></svg>
