<?xml version="1.0" encoding="UTF-8" standalone="no"?>
<!-- Created with Inkscape (http://www.inkscape.org/) -->

<svg
   version="1.1"
   id="svg176"
   width="1750"
   height="400.5"
   viewBox="0 0 1750 400.5"
   xml:space="preserve"
   xmlns="http://www.w3.org/2000/svg"
   xmlns:svg="http://www.w3.org/2000/svg"><defs
     id="defs180"><linearGradient
       id="linearGradient1486"><stop
         style="stop-color:#000000;stop-opacity:1;"
         offset="0"
         id="stop1484" /></linearGradient></defs><g
     id="g182"
     transform="translate(7183,7539)"><g
       id="g124127"
       transform="translate(-83.69,-554.2)"><path
         style="fill:#000000;fill-opacity:1;stroke-width:1.98133"
         d="m -5612,-6833 -5,26 -9,34 -5,21 -13,59 -7,26 -5,26 c 0,0 -1,9 -6,37 -6,11 -8,18 -21,19 -12,0 -14,-15 -14,-15 l -8,-24 -6,-21 -11,-37 -9,-25 -7,-25 -10,-28 -10,-29 -8,-25 -8,-23 c 0,0 -9,-29 -13,-40 -3,-13 -5,-15 -1,-27 1,-4 7,-11 12,-11 9,-1 11,3 17,22 5,13 19,60 19,60 l 17,53 9,24 10,26 8,22 12,31 6,-4 12,-59 8,-36 9,-42 10,-48 c 0,0 4,-24 8,-39 2,-9 8,-10 15,-10 10,4 13,6 14,15 2,16 -4,37 -4,37 z"
         id="path56837-9-3" /><path
         style="fill:#000000;fill-opacity:1;stroke-width:1.37531"
         d="m -5352,-6596 c -5,5 -9,11 -14,11 -7,0 -20,-19 -20,-19 l -4,-4 -24,-28 -8,-9 -27,-29 -17,-19 -23,-30 c 0,0 -12,-12 -12,-17 -2,-13 0,-18 13,-32 6,-6 13,-17 16,-21 5,-7 4,-8 18,-26 4,-5 13,-18 16,-23 14,-18 19,-25 24,-32 10,-15 12,-20 12,-20 l 5,-9 8,-10 c 0,0 10,-5 14,-1 4,2 8,8 8,13 0,4 0,9 0,9 l -17,31 -8,12 -6,11 c 0,0 -4,6 -14,18 -6,7 -14,18 -17,24 -3,6 -9,14 -13,19 -7,8 -12,15 -17,23 -2,4 -5,8 -1,14 3,4 11,14 17,21 14,17 19,25 21,26 7,8 34,39 39,45 7,9 12,15 21,26 15,19 15,21 10,26 z"
         id="path56837-7-6" /><path
         style="fill:#000000;fill-opacity:1;stroke-width:1.27138"
         d="m -6898,-6592 c -4,4 -5,5 -11,5 -5,0 -9,-1 -12,-6 -3,-2 -5,-7 -6,-10 -1,-3 -1,-12 -1,-15 0,-5 1,-18 0,-22 -1,-4 -1,-7 -3,-8 -1,0 -7,3 -7,3 l -13,4 -24,10 -18,10 -3,1 -14,9 -27,13 -11,6 c 0,0 -23,12 -31,3 -8,-8 -8,-16 -8,-16 l 1,-24 v -65 l -2,-27 -2,-31 -2,-26 -3,-29 -3,-58 -1,-46 v -19 c 0,0 4,-17 8,-21 3,-3 11,-5 15,-4 5,1 15,16 15,16 l 3,10 -1,11 v 41 20 18 l 2,21 1,16 c 0,6 0,17 1,24 l 2,45 4,73 v 12 c 0,0 0,8 2,9 1,1 3,2 6,-2 1,-2 5,-4 8,-5 4,-1 8,-3 10,-5 3,-2 28,-16 29,-16 1,0 4,-1 7,-3 4,-2 10,-4 13,-5 3,-2 9,-4 13,-6 7,-4 11,-5 24,-9 l 5,-1 -1,-6 -2,-17 c 0,0 -1,-31 -3,-52 -1,-10 -2,-21 -2,-25 -1,-3 -2,-11 -2,-17 -1,-6 -2,-23 -2,-23 l -5,-47 c 0,0 -3,-22 -3,-34 -1,-12 -3,-27 -3,-31 -1,-8 -2,-21 -1,-25 1,-2 -1,-5 1,-11 3,-6 14,-6 17,-6 4,0 3,-1 9,0 7,0 11,4 11,8 1,5 1,12 2,16 0,3 0,13 0,15 1,1 1,22 1,26 0,9 2,22 2,38 1,24 1,30 2,37 1,14 2,37 2,37 l 6,69 c 0,0 2,29 3,39 2,10 2,19 3,41 0,22 3,40 3,41 0,0 1,5 1,11 0,10 -5,15 -5,15 z"
         id="path56835-10" /><g
         id="g6813"
         transform="matrix(1.001,0,0,1,-2577,1927)"
         style="fill:#000000;fill-opacity:1;stroke-width:0.999619"><path
           style="fill:#000000;fill-opacity:1;stroke-width:1.09497"
           d="m -4150,-8533 c 0,1 -1,2 -1,2 1,0 -1,3 -4,6 l -5,5 -14,1 c -12,0 -21,0 -33,1 -8,1 -14,0 -21,0 -2,1 -6,1 -8,2 -2,0 -6,0 -10,0 -4,0 -9,1 -11,2 -3,1 -6,2 -7,2 -3,0 -11,-2 -11,-3 1,-1 -1,-2 -3,-4 -4,-3 -4,-6 -4,-16 1,-4 1,-8 0,-8 -1,-2 -1,-19 -1,-19 l 3,-43 -1,-51 v -50 -56 l 2,-39 c 0,0 1,-23 2,-25 1,-3 1,-10 3,-12 1,-2 4,-3 5,-3 2,-1 3,-1 7,-1 3,1 7,3 10,5 2,2 4,4 4,6 1,13 0,22 0,28 -1,7 -1,13 -1,14 0,1 -1,6 -1,12 -1,6 -1,13 -1,17 0,4 -1,16 -2,26 0,10 0,26 0,26 l 1,37 v 6 10 l 1,42 -2,41 c 0,0 -1,11 5,20 2,2 -1,2 46,2 16,0 19,-1 28,-1 13,0 24,1 25,11 0,3 0,6 -1,7 z"
           id="path56835-1-6" /><path
           style="fill:#000000;fill-opacity:1;stroke-width:1.08333"
           d="m -3983,-8824 c 0,8 -2,11 -7,13 -4,1 -24,4 -35,6 -2,0 -15,4 -23,5 -10,1 -13,6 -14,10 0,2 -1,12 -1,30 0,18 -1,36 -2,39 -1,8 -1,21 -1,33 1,11 1,30 1,30 l 2,61 c 0,0 2,11 2,32 0,40 0,50 -6,51 -11,3 -11,3 -21,-2 -4,-2 -3,-21 -3,-24 0,-2 1,-43 1,-43 l -1,-16 -3,-64 v -47 l 1,-40 v -36 c 0,0 2,-9 -3,-9 -3,1 -15,2 -17,3 -4,1 -12,2 -16,3 -2,0 -9,1 -11,2 -5,1 -14,3 -20,2 -4,0 -5,-1 -6,-8 0,-7 -5,-18 2,-20 12,-2 27,-8 27,-8 l 15,-2 15,-2 13,-2 16,-2 13,-2 c 2,-1 12,-2 18,-3 l 18,-4 33,-4 c 0,0 11,2 12,8 z"
           id="path56835-2-3" /></g><path
         style="fill:#000000;fill-opacity:1;stroke-width:1.08965"
         d="m -6369,-6602 c -3,2 -4,3 -8,5 -3,2 -6,5 -10,3 -1,-1 -6,-10 -6,-10 l -6,-14 -7,-14 -7,-15 -8,-17 -8,-16 c 0,0 -12,-21 -17,-32 -1,-2 -4,-7 -5,-10 -2,-4 -7,-14 -8,-16 -2,-5 -7,-12 -7,-12 0,0 -2,-1 -4,1 -6,4 -10,4 -14,10 -8,6 -7,3 -13,7 l -7,5 v 6 c 1,7 1,22 1,34 0,12 1,23 1,25 1,2 1,7 1,12 0,18 -1,24 0,28 -1,10 -1,16 -1,26 -2,7 -5,10 -8,10 -4,0 -14,1 -20,-1 -4,-1 -3,-15 -3,-15 v -40 -16 -11 -15 -29 l -1,-33 1,-51 v -45 -30 -12 c 0,0 -1,-11 0,-17 3,-12 13,-18 26,-12 10,5 19,6 19,6 l 14,4 21,6 14,3 21,8 21,8 12,4 c 0,0 13,10 16,15 1,2 2,4 2,4 2,1 4,9 5,13 1,7 -5,13 -24,27 -4,3 -8,6 -10,8 -1,1 -4,3 -6,5 -2,1 -14,10 -15,10 0,1 -7,6 -10,8 -6,4 -13,7 -11,12 3,8 17,33 17,33 l 3,8 8,18 4,9 10,19 6,11 4,9 3,6 10,22 c 0,0 2,5 3,7 1,4 4,12 5,13 2,5 0,10 -4,15 z m -29,-244 c -6,-2 -12,-6 -18,-9 -2,-1 -3,-1 -3,-1 -4,-1 -13,-6 -16,-7 -2,0 -8,-3 -14,-5 -14,-3 -26,-7 -31,-8 -8,-2 -12,-5 -18,-4 h -7 l -1,7 c -1,9 -1,34 -1,69 1,40 1,41 8,37 2,-1 5,-2 6,-2 1,0 4,-2 7,-4 4,-4 7,-6 11,-7 4,-3 8,-5 12,-9 7,-5 15,-12 24,-18 2,-1 6,-4 9,-7 6,-6 13,-12 19,-16 2,-2 6,-4 8,-6 3,-2 5,-5 6,-6 0,-1 1,-3 -1,-4 z"
         id="path56835-9-2" /><path
         style="fill:#000000;fill-opacity:1;stroke-width:1.37116"
         d="m -5899,-6594 c -12,11 -15,11 -27,0 -8,-7 -25,-29 -37,-41 -7,-9 -17,-20 -23,-27 -11,-14 -8,-11 -16,-19 -4,-4 -7,-11 -11,-15 -3,-5 -9,-11 -11,-12 -1,-2 -6,-8 -12,-15 -6,-8 -7,-12 -8,-13 -2,0 -9,-10 -9,-10 0,0 -5,-6 -9,-11 -5,-4 -12,-15 -12,-18 0,-2 1,-5 2,-7 0,-1 6,-14 6,-14 l 14,-20 10,-14 9,-12 10,-15 22,-30 10,-13 11,-16 17,-23 c 0,0 15,-21 23,-32 3,-3 11,-14 14,-14 4,-1 13,5 16,8 5,5 12,5 4,21 -3,7 -16,23 -16,23 l -14,22 -11,16 -12,16 -30,38 -24,33 -7,11 c 0,0 -6,10 -6,11 0,2 1,4 3,6 9,12 22,31 22,31 l 14,18 6,8 5,6 8,10 3,3 2,4 3,5 4,6 9,8 7,9 6,8 c 5,6 9,11 13,16 0,0 9,12 13,16 5,5 10,12 15,19 5,8 3,10 -6,19 z"
         id="path56837-0" /><path
         style="fill:#000000;fill-opacity:1;stroke-width:1.14365"
         d="m -6328,-6588 c -6,-4 -5,-7 -2,-24 l 4,-20 9,-30 8,-37 7,-26 11,-40 5,-26 5,-16 4,-17 4,-10 11,-47 c 0,0 6,-16 8,-21 5,-13 14,-17 24,-10 5,3 5,3 8,13 6,16 6,19 9,32 3,11 9,34 9,34 l 6,24 c 0,0 6,19 7,28 1,5 6,22 8,28 3,11 6,23 9,33 5,15 8,30 11,43 3,7 6,19 6,19 l 5,19 c 0,0 3,11 5,15 4,14 4,18 3,26 -4,7 -4,5 -8,8 -5,2 -12,0 -16,-6 -3,-5 -6,-14 -6,-14 l -2,-9 -3,-13 -5,-18 c -2,-4 -4,-11 -4,-15 l -3,-8 c 0,0 -1,1 -14,8 -4,2 -8,5 -12,8 l -10,7 -19,12 -11,7 -12,10 -23,17 -10,7 c 0,0 -7,5 -11,8 -8,5 -11,4 -15,1 z m 53,-70 13,-9 c 4,-2 9,-6 13,-9 l 9,-7 9,-5 12,-9 c 5,-4 15,-9 20,-13 l -2,-8 c -1,-5 -3,-13 -3,-13 l -6,-18 -4,-19 -3,-14 -5,-23 -5,-17 c 0,0 -4,-16 -7,-24 -1,-9 -3,-15 -5,-15 -1,0 -7,22 -7,22 l -5,15 c -1,7 -4,18 -6,23 -1,8 -3,14 -5,21 l -3,13 -1,6 -5,18 -4,20 -10,39 c 0,0 -2,7 -3,17 -2,5 -7,23 -6,23 5,-3 19,-14 19,-14 z"
         id="path57142-6" /><path
         style="fill:#000000;fill-opacity:1;stroke-width:1.38248"
         d="m -5837,-6586 c -9,2 -15,-5 -16,-16 0,-9 -1,-17 -1,-17 v -23 l -1,-23 -2,-84 v -58 c 0,0 -1,-15 0,-18 1,-11 4,-9 12,-10 5,-1 12,0 16,4 l 2,5 v 14 l 2,28 -2,19 v 18 18 l 2,57 1,34 1,32 c -1,14 1,18 -14,20 z"
         id="path56837-1-5" /><path
         style="fill:#000000;fill-opacity:1;stroke:none;stroke-width:1.03687;stroke-linecap:round;stroke-linejoin:round;stroke-dasharray:none;stroke-opacity:1"
         id="rect57268-5"
         width="37.07"
         height="40.75"
         x="-5860"
         y="-6914"
         d="m -5850,-6914 17,-1 c 6,1 12,6 12,11 l -2,21 c 0,6 -5,9 -10,9 l -18,1 c -5,0 -8,-4 -8,-9 l -2,-24 c 1,-4 6,-8 11,-8 z"
         ry="9.296"
         rx="9.296" /><path
         style="fill:#000000;fill-opacity:1;stroke-width:1.45247"
         d="m -5534,-6597 c -3,8 -11,13 -16,11 -2,0 -9,-7 -9,-7 l -4,-23 -2,-21 v -21 -22 l -2,-22 v -29 l -1,-37 -3,-31 c 0,0 -2,-22 0,-26 2,-7 9,-11 17,-11 6,0 7,0 11,7 l 5,6 -1,18 v 18 l 1,29 v 38 l 1,32 4,66 1,11 c 0,0 1,8 -2,14 z"
         id="path56837-4-7" /><path
         style="fill:#000000;fill-opacity:1;stroke:none;stroke-width:1.03686;stroke-linecap:round;stroke-linejoin:round;stroke-dasharray:none;stroke-opacity:1"
         id="rect57268-4-6"
         width="37.07"
         height="40.82"
         x="-5570"
         y="-6915"
         d="m -5561,-6914 17,-1 c 7,0 10,5 10,10 l 2,22 c -1,5 -6,9 -11,9 l -18,0 c -5,0 -8,-4 -8,-9 l -1,-23 c 0,-5 4,-8 9,-8 z"
         ry="9.296"
         rx="9.296" /></g></g></svg>
